M48
; DRILL file {KiCad 8.0.1} date 2024-04-01T09:21:36+1100
; FORMAT={-:-/ absolute / inch / decimal}
; #@! TF.CreationDate,2024-04-01T09:21:36+11:00
; #@! TF.GenerationSoftware,Kicad,Pcbnew,8.0.1
; #@! TF.FileFunction,Plated,1,2,PTH
FMAT,2
INCH
; #@! TA.AperFunction,Plated,PTH,ViaDrill
T1C0.0118
; #@! TA.AperFunction,Plated,PTH,ComponentDrill
T2C0.0320
; #@! TA.AperFunction,Plated,PTH,ComponentDrill
T3C0.0390
%
G90
G05
T1
X8.6949Y-3.4343
X8.6996Y-3.0669
X8.7055Y-3.7728
X8.7323Y-4.0988
X8.7484Y-3.4516
X8.7913Y-4.1437
X8.7921Y-3.2118
X8.7966Y-3.4957
X8.8012Y-4.2287
X8.8098Y-2.9622
X8.8102Y-3.0874
X8.8207Y-3.9104
X8.8882Y-3.9728
X8.8949Y-3.7024
X8.9157Y-2.9579
X8.9228Y-3.4752
X8.9244Y-3.4406
X8.9327Y-3.1161
X8.9559Y-3.3539
X8.9638Y-3.5059
X8.9883Y-3.2938
X9.0173Y-3.4165
X9.0201Y-3.4949
X9.0291Y-3.3465
X9.0295Y-4.2358
X9.0441Y-3.0016
X9.0531Y-4.0819
X9.089Y-3.8366
X9.1382Y-4.2307
X9.1535Y-3.8228
X9.1787Y-3.802
X9.1827Y-3.372
X9.1994Y-2.9892
X9.2079Y-3.7665
X9.2189Y-3.428
X9.2327Y-3.5531
X9.2327Y-3.6102
X9.2524Y-3.0173
X9.2591Y-4.0634
X9.2856Y-3.6146
X9.2858Y-3.5657
X9.3008Y-3.8614
X9.3063Y-3.8972
X9.3252Y-3.8311
X9.3512Y-3.2547
X9.3581Y-3.7315
X9.3644Y-3.8976
X9.3863Y-3.7455
X9.39Y-4.0701
X9.4146Y-3.8394
X9.4368Y-3.6108
X9.5205Y-4.1386
X9.5283Y-4.2299
X9.5394Y-3.0602
X9.6185Y-3.8533
T2
X8.9169Y-4.1552
X8.9715Y-4.1946
X9.026Y-4.1552
X9.0805Y-4.1946
X9.135Y-4.1552
X9.1896Y-4.1946
X9.2441Y-4.1552
X9.2986Y-4.1946
X9.3531Y-4.1552
T3
G00X8.7112Y-4.2222
M15
G01X8.6223Y-4.2222
M16
G05
G00X9.6951Y-4.2222
M15
G01X9.6061Y-4.2222
M16
G05
M30
