M48
; DRILL file {KiCad 8.0.1} date 2024-04-01T09:21:36+1100
; FORMAT={-:-/ absolute / inch / decimal}
; #@! TF.CreationDate,2024-04-01T09:21:36+11:00
; #@! TF.GenerationSoftware,Kicad,Pcbnew,8.0.1
; #@! TF.FileFunction,NonPlated,1,2,NPTH
FMAT,2
INCH
; #@! TA.AperFunction,NonPlated,NPTH,ComponentDrill
T1C0.0197
; #@! TA.AperFunction,NonPlated,NPTH,ComponentDrill
T2C0.0454
; #@! TA.AperFunction,NonPlated,NPTH,ComponentDrill
T3C0.0630
; #@! TA.AperFunction,NonPlated,NPTH,ComponentDrill
T4C0.0830
; #@! TA.AperFunction,NonPlated,NPTH,ComponentDrill
T5C0.0866
%
G90
G05
T1
X8.5787Y-3.0591
X8.5787Y-3.0886
X8.5787Y-3.1181
X8.5787Y-3.7795
X8.5787Y-3.8091
X8.5787Y-3.8386
X8.6378Y-3.0591
X8.6378Y-3.0886
X8.6378Y-3.1181
X8.6378Y-3.7795
X8.6378Y-3.8091
X8.6378Y-3.8386
X8.7516Y-2.7736
X8.7516Y-2.8327
X8.7811Y-2.7736
X8.7811Y-2.8327
X8.8106Y-2.7736
X8.8106Y-2.8327
X9.5102Y-2.774
X9.5102Y-2.8331
X9.5398Y-2.774
X9.5398Y-2.8331
X9.5693Y-2.774
X9.5693Y-2.8331
X9.6811Y-3.0591
X9.6811Y-3.0886
X9.6811Y-3.1181
X9.6811Y-3.7795
X9.6811Y-3.8091
X9.6811Y-3.8386
X9.7402Y-3.0591
X9.7402Y-3.0886
X9.7402Y-3.1181
X9.7402Y-3.7795
X9.7402Y-3.8091
X9.7402Y-3.8386
T2
X8.2169Y-4.5638
X8.2201Y-2.6815
X10.1067Y-2.6756
T3
X8.8831Y-4.2143
T4
X9.4343Y-4.2143
T5
X8.7142Y-3.6106
X9.6039Y-3.6106
M30
