%TF.GenerationSoftware,KiCad,Pcbnew,8.0.1*%
%TF.CreationDate,2024-04-03T17:06:29+11:00*%
%TF.ProjectId,DB9 RS232 Adapter,44423920-5253-4323-9332-204164617074,rev?*%
%TF.SameCoordinates,Original*%
%TF.FileFunction,Soldermask,Top*%
%TF.FilePolarity,Negative*%
%FSLAX46Y46*%
G04 Gerber Fmt 4.6, Leading zero omitted, Abs format (unit mm)*
G04 Created by KiCad (PCBNEW 8.0.1) date 2024-04-03 17:06:29*
%MOMM*%
%LPD*%
G01*
G04 APERTURE LIST*
G04 Aperture macros list*
%AMRoundRect*
0 Rectangle with rounded corners*
0 $1 Rounding radius*
0 $2 $3 $4 $5 $6 $7 $8 $9 X,Y pos of 4 corners*
0 Add a 4 corners polygon primitive as box body*
4,1,4,$2,$3,$4,$5,$6,$7,$8,$9,$2,$3,0*
0 Add four circle primitives for the rounded corners*
1,1,$1+$1,$2,$3*
1,1,$1+$1,$4,$5*
1,1,$1+$1,$6,$7*
1,1,$1+$1,$8,$9*
0 Add four rect primitives between the rounded corners*
20,1,$1+$1,$2,$3,$4,$5,0*
20,1,$1+$1,$4,$5,$6,$7,0*
20,1,$1+$1,$6,$7,$8,$9,0*
20,1,$1+$1,$8,$9,$2,$3,0*%
G04 Aperture macros list end*
%ADD10R,0.450000X1.800000*%
%ADD11R,1.000000X1.000000*%
%ADD12RoundRect,0.218750X0.256250X-0.218750X0.256250X0.218750X-0.256250X0.218750X-0.256250X-0.218750X0*%
%ADD13RoundRect,0.140000X0.170000X-0.140000X0.170000X0.140000X-0.170000X0.140000X-0.170000X-0.140000X0*%
%ADD14RoundRect,0.140000X0.140000X0.170000X-0.140000X0.170000X-0.140000X-0.170000X0.140000X-0.170000X0*%
%ADD15C,2.200000*%
%ADD16RoundRect,0.200000X-0.275000X0.200000X-0.275000X-0.200000X0.275000X-0.200000X0.275000X0.200000X0*%
%ADD17C,2.000000*%
%ADD18RoundRect,0.140000X-0.140000X-0.170000X0.140000X-0.170000X0.140000X0.170000X-0.140000X0.170000X0*%
%ADD19RoundRect,0.200000X0.275000X-0.200000X0.275000X0.200000X-0.275000X0.200000X-0.275000X-0.200000X0*%
%ADD20R,1.500000X1.500000*%
%ADD21RoundRect,0.135000X0.135000X0.185000X-0.135000X0.185000X-0.135000X-0.185000X0.135000X-0.185000X0*%
%ADD22R,0.300000X1.000000*%
%ADD23R,0.700000X1.150000*%
%ADD24C,1.320800*%
%ADD25O,3.750000X1.490600*%
%ADD26R,1.200000X0.400000*%
G04 APERTURE END LIST*
D10*
%TO.C,IC1*%
X239755000Y-93450000D03*
X239105000Y-93450000D03*
X238455000Y-93450000D03*
X237805000Y-93450000D03*
X237155000Y-93450000D03*
X236505000Y-93450000D03*
X235855000Y-93450000D03*
X235205000Y-93450000D03*
X234555000Y-93450000D03*
X233905000Y-93450000D03*
X233255000Y-93450000D03*
X232605000Y-93450000D03*
X231955000Y-93450000D03*
X231305000Y-93450000D03*
X231305000Y-100550000D03*
X231955000Y-100550000D03*
X232605000Y-100550000D03*
X233255000Y-100550000D03*
X233905000Y-100550000D03*
X234555000Y-100550000D03*
X235205000Y-100550000D03*
X235855000Y-100550000D03*
X236505000Y-100550000D03*
X237155000Y-100550000D03*
X237805000Y-100550000D03*
X238455000Y-100550000D03*
X239105000Y-100550000D03*
X239755000Y-100550000D03*
%TD*%
D11*
%TO.C,TP3*%
X232220000Y-81590000D03*
%TD*%
D12*
%TO.C,D2*%
X220907500Y-103937500D03*
X220907500Y-102362500D03*
%TD*%
D11*
%TO.C,TP2*%
X233520000Y-81590000D03*
%TD*%
D13*
%TO.C,C6*%
X223610000Y-85520000D03*
X223610000Y-84560000D03*
%TD*%
D14*
%TO.C,C4*%
X232160000Y-76750000D03*
X231200000Y-76750000D03*
%TD*%
%TO.C,C7*%
X229230000Y-94260000D03*
X228270000Y-94260000D03*
%TD*%
D15*
%TO.C,H2*%
X243940000Y-91710000D03*
%TD*%
D16*
%TO.C,R3*%
X220900000Y-99325000D03*
X220900000Y-100975000D03*
%TD*%
D17*
%TO.C,TP4*%
X223770000Y-78310000D03*
%TD*%
D16*
%TO.C,R4*%
X233340000Y-78005000D03*
X233340000Y-79655000D03*
%TD*%
D18*
%TO.C,C5*%
X233020000Y-76750000D03*
X233980000Y-76750000D03*
%TD*%
D14*
%TO.C,C8*%
X229230000Y-93210000D03*
X228270000Y-93210000D03*
%TD*%
%TO.C,C9*%
X232680000Y-102670000D03*
X231720000Y-102670000D03*
%TD*%
D19*
%TO.C,R5*%
X231860000Y-79655000D03*
X231860000Y-78005000D03*
%TD*%
D14*
%TO.C,C11*%
X230850000Y-102590000D03*
X229890000Y-102590000D03*
%TD*%
D16*
%TO.C,R2*%
X244400000Y-99325000D03*
X244400000Y-100975000D03*
%TD*%
D20*
%TO.C,TP3*%
X238340000Y-73210000D03*
%TD*%
%TO.C,TP1*%
X226940000Y-73210000D03*
%TD*%
D21*
%TO.C,R1*%
X228870000Y-77390000D03*
X227850000Y-77390000D03*
%TD*%
D22*
%TO.C,P1*%
X229890000Y-74250000D03*
X230390000Y-74250000D03*
X230890000Y-74250000D03*
X231390000Y-74250000D03*
X231890000Y-74250000D03*
X232390000Y-74250000D03*
X232890000Y-74250000D03*
X233390000Y-74250000D03*
X233890000Y-74250000D03*
X234390000Y-74250000D03*
X234890000Y-74250000D03*
X235390000Y-74250000D03*
D23*
X229220000Y-75090000D03*
%TD*%
D24*
%TO.C,J1*%
X237569999Y-105542999D03*
X234800000Y-105542999D03*
X232030000Y-105542999D03*
X229260000Y-105542999D03*
X226490001Y-105542999D03*
X236185001Y-106543000D03*
X233415001Y-106543000D03*
X230645001Y-106543000D03*
X227875002Y-106543000D03*
D25*
X245125000Y-107243000D03*
X220135000Y-107243000D03*
%TD*%
D14*
%TO.C,C10*%
X232420000Y-91820000D03*
X231460000Y-91820000D03*
%TD*%
D26*
%TO.C,U1*%
X230332500Y-89377500D03*
X230332500Y-88742500D03*
X230332500Y-88107500D03*
X230332500Y-87472500D03*
X230332500Y-86837500D03*
X230332500Y-86202500D03*
X230332500Y-85567500D03*
X230332500Y-84932500D03*
X230332500Y-84297500D03*
X230332500Y-83662500D03*
X225132500Y-83662500D03*
X225132500Y-84297500D03*
X225132500Y-84932500D03*
X225132500Y-85567500D03*
X225132500Y-86202500D03*
X225132500Y-86837500D03*
X225132500Y-87472500D03*
X225132500Y-88107500D03*
X225132500Y-88742500D03*
X225132500Y-89377500D03*
%TD*%
D18*
%TO.C,C3*%
X236200000Y-77120000D03*
X237160000Y-77120000D03*
%TD*%
D15*
%TO.C,H1*%
X221340000Y-91710000D03*
%TD*%
D14*
%TO.C,C2*%
X221960000Y-84610000D03*
X221000000Y-84610000D03*
%TD*%
%TO.C,C1*%
X221960000Y-85600000D03*
X221000000Y-85600000D03*
%TD*%
D12*
%TO.C,D1*%
X244390000Y-103937500D03*
X244390000Y-102362500D03*
%TD*%
D17*
%TO.C,TP1*%
X223770000Y-75240000D03*
%TD*%
M02*
