%TF.GenerationSoftware,KiCad,Pcbnew,8.0.3*%
%TF.CreationDate,2024-07-15T16:50:19+10:00*%
%TF.ProjectId,DB9 Serial Expansion Card Rev2,44423920-5365-4726-9961-6c2045787061,rev?*%
%TF.SameCoordinates,Original*%
%TF.FileFunction,Copper,L1,Top*%
%TF.FilePolarity,Positive*%
%FSLAX46Y46*%
G04 Gerber Fmt 4.6, Leading zero omitted, Abs format (unit mm)*
G04 Created by KiCad (PCBNEW 8.0.3) date 2024-07-15 16:50:19*
%MOMM*%
%LPD*%
G01*
G04 APERTURE LIST*
G04 Aperture macros list*
%AMRoundRect*
0 Rectangle with rounded corners*
0 $1 Rounding radius*
0 $2 $3 $4 $5 $6 $7 $8 $9 X,Y pos of 4 corners*
0 Add a 4 corners polygon primitive as box body*
4,1,4,$2,$3,$4,$5,$6,$7,$8,$9,$2,$3,0*
0 Add four circle primitives for the rounded corners*
1,1,$1+$1,$2,$3*
1,1,$1+$1,$4,$5*
1,1,$1+$1,$6,$7*
1,1,$1+$1,$8,$9*
0 Add four rect primitives between the rounded corners*
20,1,$1+$1,$2,$3,$4,$5,0*
20,1,$1+$1,$4,$5,$6,$7,0*
20,1,$1+$1,$6,$7,$8,$9,0*
20,1,$1+$1,$8,$9,$2,$3,0*%
G04 Aperture macros list end*
%TA.AperFunction,ComponentPad*%
%ADD10C,1.320800*%
%TD*%
%TA.AperFunction,ComponentPad*%
%ADD11O,3.750000X1.500000*%
%TD*%
%TA.AperFunction,SMDPad,CuDef*%
%ADD12R,0.450000X1.800000*%
%TD*%
%TA.AperFunction,SMDPad,CuDef*%
%ADD13RoundRect,0.140000X0.170000X-0.140000X0.170000X0.140000X-0.170000X0.140000X-0.170000X-0.140000X0*%
%TD*%
%TA.AperFunction,SMDPad,CuDef*%
%ADD14RoundRect,0.140000X0.140000X0.170000X-0.140000X0.170000X-0.140000X-0.170000X0.140000X-0.170000X0*%
%TD*%
%TA.AperFunction,SMDPad,CuDef*%
%ADD15RoundRect,0.140000X-0.140000X-0.170000X0.140000X-0.170000X0.140000X0.170000X-0.140000X0.170000X0*%
%TD*%
%TA.AperFunction,SMDPad,CuDef*%
%ADD16C,2.000000*%
%TD*%
%TA.AperFunction,SMDPad,CuDef*%
%ADD17RoundRect,0.200000X-0.275000X0.200000X-0.275000X-0.200000X0.275000X-0.200000X0.275000X0.200000X0*%
%TD*%
%TA.AperFunction,SMDPad,CuDef*%
%ADD18RoundRect,0.200000X0.275000X-0.200000X0.275000X0.200000X-0.275000X0.200000X-0.275000X-0.200000X0*%
%TD*%
%TA.AperFunction,SMDPad,CuDef*%
%ADD19R,1.500000X1.500000*%
%TD*%
%TA.AperFunction,SMDPad,CuDef*%
%ADD20RoundRect,0.135000X0.135000X0.185000X-0.135000X0.185000X-0.135000X-0.185000X0.135000X-0.185000X0*%
%TD*%
%TA.AperFunction,SMDPad,CuDef*%
%ADD21R,0.300000X1.000000*%
%TD*%
%TA.AperFunction,SMDPad,CuDef*%
%ADD22R,0.700000X1.150000*%
%TD*%
%TA.AperFunction,SMDPad,CuDef*%
%ADD23R,1.200000X0.400000*%
%TD*%
%TA.AperFunction,ViaPad*%
%ADD24C,0.600000*%
%TD*%
%TA.AperFunction,Conductor*%
%ADD25C,0.200000*%
%TD*%
%TA.AperFunction,Conductor*%
%ADD26C,0.127000*%
%TD*%
%TA.AperFunction,Conductor*%
%ADD27C,0.300000*%
%TD*%
G04 APERTURE END LIST*
D10*
%TO.P,J1,1,1*%
%TO.N,DCD*%
X226490001Y-105542999D03*
%TO.P,J1,2,2*%
%TO.N,RXD*%
X229260000Y-105542999D03*
%TO.P,J1,3,3*%
%TO.N,TXD*%
X232030000Y-105542999D03*
%TO.P,J1,4,4*%
%TO.N,DTR*%
X234800000Y-105542999D03*
%TO.P,J1,5,5*%
%TO.N,Earth*%
X237569999Y-105542999D03*
%TO.P,J1,6,6*%
%TO.N,DSR*%
X227875002Y-106543000D03*
%TO.P,J1,7,7*%
%TO.N,RTS*%
X230645001Y-106543000D03*
%TO.P,J1,8,8*%
%TO.N,CTS*%
X233415001Y-106543000D03*
%TO.P,J1,9,9*%
%TO.N,RI*%
X236185001Y-106543000D03*
D11*
%TO.P,J1,10,5*%
%TO.N,Earth*%
X245125000Y-107243000D03*
%TO.P,J1,11,5*%
X220135000Y-107243000D03*
%TD*%
D12*
%TO.P,U2,1,T3OUT*%
%TO.N,RTS*%
X236035000Y-91170000D03*
%TO.P,U2,2,T1OUT*%
%TO.N,TXD*%
X235385000Y-91170000D03*
%TO.P,U2,3,T2OUT*%
%TO.N,unconnected-(U2-T2OUT-Pad3)*%
X234735000Y-91170000D03*
%TO.P,U2,4,R2IN*%
%TO.N,DSR*%
X234085000Y-91170000D03*
%TO.P,U2,5,R2OUT*%
%TO.N,USB_~{DSR}*%
X233435000Y-91170000D03*
%TO.P,U2,6,T2IN*%
%TO.N,unconnected-(U2-T2IN-Pad6)*%
X232785000Y-91170000D03*
%TO.P,U2,7,T1IN*%
%TO.N,USB_TXD*%
X232135000Y-91170000D03*
%TO.P,U2,8,R1OUT*%
%TO.N,USB_~{DCD}*%
X231485000Y-91170000D03*
%TO.P,U2,9,R1IN*%
%TO.N,DCD*%
X230835000Y-91170000D03*
%TO.P,U2,10,GND*%
%TO.N,Earth*%
X230185000Y-91170000D03*
%TO.P,U2,11,VCC*%
%TO.N,VCC*%
X229535000Y-91170000D03*
%TO.P,U2,12,C1+*%
%TO.N,Net-(U2-C1+)*%
X228885000Y-91170000D03*
%TO.P,U2,13,V+*%
%TO.N,VCC*%
X228235000Y-91170000D03*
%TO.P,U2,14,C1-*%
%TO.N,Net-(U2-C1-)*%
X227585000Y-91170000D03*
%TO.P,U2,15,C2+*%
%TO.N,Net-(U2-C2+)*%
X227585000Y-98270000D03*
%TO.P,U2,16,C2-*%
%TO.N,Net-(U2-C2-)*%
X228235000Y-98270000D03*
%TO.P,U2,17,V-*%
%TO.N,Net-(U2-V-)*%
X228885000Y-98270000D03*
%TO.P,U2,18,R5IN*%
%TO.N,RI*%
X229535000Y-98270000D03*
%TO.P,U2,19,R5OUT*%
%TO.N,USB_~{RI}*%
X230185000Y-98270000D03*
%TO.P,U2,20,T3IN*%
%TO.N,USB_~{RTS}*%
X230835000Y-98270000D03*
%TO.P,U2,21,T4IN*%
%TO.N,USB_~{DTR}*%
X231485000Y-98270000D03*
%TO.P,U2,22,R4OUT*%
%TO.N,USB_RXD*%
X232135000Y-98270000D03*
%TO.P,U2,23,R4IN*%
%TO.N,RXD*%
X232785000Y-98270000D03*
%TO.P,U2,24,EN*%
%TO.N,VCC*%
X233435000Y-98270000D03*
%TO.P,U2,25,~{SHUTDOWN_(}SD)*%
%TO.N,SLEEP#*%
X234085000Y-98270000D03*
%TO.P,U2,26,R3OUT*%
%TO.N,USB_~{CTS}*%
X234735000Y-98270000D03*
%TO.P,U2,27,R3IN*%
%TO.N,CTS*%
X235385000Y-98270000D03*
%TO.P,U2,28,T4OUT*%
%TO.N,DTR*%
X236035000Y-98270000D03*
%TD*%
D13*
%TO.P,C6,1*%
%TO.N,3V3OUT*%
X222677500Y-82268000D03*
%TO.P,C6,2*%
%TO.N,Earth*%
X222677500Y-81308000D03*
%TD*%
D14*
%TO.P,C4,1*%
%TO.N,/D+*%
X232150000Y-76410000D03*
%TO.P,C4,2*%
%TO.N,Earth*%
X231190000Y-76410000D03*
%TD*%
D15*
%TO.P,C7,1*%
%TO.N,VCC*%
X229440000Y-89450000D03*
%TO.P,C7,2*%
%TO.N,Earth*%
X230400000Y-89450000D03*
%TD*%
D16*
%TO.P,TP4,1,1*%
%TO.N,Earth*%
X222420000Y-77590000D03*
%TD*%
D17*
%TO.P,R4,1*%
%TO.N,/D-*%
X233330000Y-77665000D03*
%TO.P,R4,2*%
X233330000Y-79315000D03*
%TD*%
D15*
%TO.P,C5,1*%
%TO.N,/D-*%
X233010000Y-76410000D03*
%TO.P,C5,2*%
%TO.N,Earth*%
X233970000Y-76410000D03*
%TD*%
%TO.P,C8,1*%
%TO.N,VCC*%
X228530000Y-88530000D03*
%TO.P,C8,2*%
%TO.N,Earth*%
X229490000Y-88530000D03*
%TD*%
D14*
%TO.P,C9,1*%
%TO.N,Net-(U2-V-)*%
X229010000Y-101130000D03*
%TO.P,C9,2*%
%TO.N,Earth*%
X228050000Y-101130000D03*
%TD*%
D18*
%TO.P,R5,1*%
%TO.N,/D+*%
X231850000Y-79315000D03*
%TO.P,R5,2*%
X231850000Y-77665000D03*
%TD*%
D14*
%TO.P,C11,1*%
%TO.N,Net-(U2-C2-)*%
X228590000Y-100140000D03*
%TO.P,C11,2*%
%TO.N,Net-(U2-C2+)*%
X227630000Y-100140000D03*
%TD*%
D19*
%TO.P,TP3,1*%
%TO.N,Earth*%
X238340000Y-73210000D03*
%TD*%
%TO.P,TP1,1*%
%TO.N,Earth*%
X226940000Y-73210000D03*
%TD*%
D20*
%TO.P,R1,1*%
%TO.N,Net-(P1-CC)*%
X228870000Y-77390000D03*
%TO.P,R1,2*%
%TO.N,Earth*%
X227850000Y-77390000D03*
%TD*%
D21*
%TO.P,P1,A1,GND*%
%TO.N,Earth*%
X229890000Y-74250000D03*
%TO.P,P1,A2*%
%TO.N,N/C*%
X230390000Y-74250000D03*
%TO.P,P1,A3*%
X230890000Y-74250000D03*
%TO.P,P1,A4,VBUS*%
%TO.N,VCC*%
X231390000Y-74250000D03*
%TO.P,P1,A5,CC*%
%TO.N,Net-(P1-CC)*%
X231890000Y-74250000D03*
%TO.P,P1,A6,D+*%
%TO.N,/D+*%
X232390000Y-74250000D03*
%TO.P,P1,A7,D-*%
%TO.N,/D-*%
X232890000Y-74250000D03*
%TO.P,P1,A8*%
%TO.N,N/C*%
X233390000Y-74250000D03*
%TO.P,P1,A9,VBUS*%
%TO.N,VCC*%
X233890000Y-74250000D03*
%TO.P,P1,A10*%
%TO.N,N/C*%
X234390000Y-74250000D03*
%TO.P,P1,A11*%
X234890000Y-74250000D03*
%TO.P,P1,A12,GND*%
%TO.N,Earth*%
X235390000Y-74250000D03*
D22*
%TO.P,P1,S1,SHIELD*%
X229220000Y-75090000D03*
%TD*%
D14*
%TO.P,C10,1*%
%TO.N,Net-(U2-C1+)*%
X225810000Y-90590000D03*
%TO.P,C10,2*%
%TO.N,Net-(U2-C1-)*%
X224850000Y-90590000D03*
%TD*%
D23*
%TO.P,U1,1,~{DTR}*%
%TO.N,USB_~{DTR}*%
X229450000Y-86275000D03*
%TO.P,U1,2,~{RTS}*%
%TO.N,USB_~{RTS}*%
X229450000Y-85640000D03*
%TO.P,U1,3,VCCIO*%
%TO.N,3V3OUT*%
X229450000Y-85005000D03*
%TO.P,U1,4,RXD*%
%TO.N,USB_RXD*%
X229450000Y-84370000D03*
%TO.P,U1,5,~{RI}*%
%TO.N,USB_~{RI}*%
X229450000Y-83735000D03*
%TO.P,U1,6,GND*%
%TO.N,Earth*%
X229450000Y-83100000D03*
%TO.P,U1,7,~{DSR}*%
%TO.N,USB_~{DSR}*%
X229450000Y-82465000D03*
%TO.P,U1,8,~{DCD}*%
%TO.N,USB_~{DCD}*%
X229450000Y-81830000D03*
%TO.P,U1,9,~{CTS}*%
%TO.N,USB_~{CTS}*%
X229450000Y-81195000D03*
%TO.P,U1,10,CBUS2*%
%TO.N,unconnected-(U1-CBUS2-Pad10)*%
X229450000Y-80560000D03*
%TO.P,U1,11,USBDP*%
%TO.N,/D+*%
X224250000Y-80560000D03*
%TO.P,U1,12,USBDM*%
%TO.N,/D-*%
X224250000Y-81195000D03*
%TO.P,U1,13,3V3OUT*%
%TO.N,3V3OUT*%
X224250000Y-81830000D03*
%TO.P,U1,14,~{RESET}*%
X224250000Y-82465000D03*
%TO.P,U1,15,VCC*%
%TO.N,VCC*%
X224250000Y-83100000D03*
%TO.P,U1,16,GND*%
%TO.N,Earth*%
X224250000Y-83735000D03*
%TO.P,U1,17,CBUS1*%
%TO.N,unconnected-(U1-CBUS1-Pad17)*%
X224250000Y-84370000D03*
%TO.P,U1,18,CBUS0*%
%TO.N,SLEEP#*%
X224250000Y-85005000D03*
%TO.P,U1,19,CBUS3*%
%TO.N,unconnected-(U1-CBUS3-Pad19)*%
X224250000Y-85640000D03*
%TO.P,U1,20,TXD*%
%TO.N,USB_TXD*%
X224250000Y-86275000D03*
%TD*%
D15*
%TO.P,C3,1*%
%TO.N,VCC*%
X236200000Y-77120000D03*
%TO.P,C3,2*%
%TO.N,Earth*%
X237160000Y-77120000D03*
%TD*%
D14*
%TO.P,C2,1*%
%TO.N,VCC*%
X221630000Y-81330500D03*
%TO.P,C2,2*%
%TO.N,Earth*%
X220670000Y-81330500D03*
%TD*%
%TO.P,C1,1*%
%TO.N,VCC*%
X221630000Y-82320500D03*
%TO.P,C1,2*%
%TO.N,Earth*%
X220670000Y-82320500D03*
%TD*%
D16*
%TO.P,TP1,1,1*%
%TO.N,VCC*%
X222490000Y-74280000D03*
%TD*%
D24*
%TO.N,Earth*%
X228092000Y-102362000D03*
X222758000Y-106172000D03*
X226822000Y-86360000D03*
%TO.N,VCC*%
X230632000Y-94996000D03*
X230330000Y-75480000D03*
X229616000Y-92456000D03*
X234375000Y-75485000D03*
%TO.N,/D+*%
X227960521Y-80470521D03*
X225263628Y-80584455D03*
%TO.N,/D-*%
X227359479Y-79869479D03*
X225864670Y-81185497D03*
%TO.N,SLEEP#*%
X233680000Y-95250000D03*
X225552000Y-84836000D03*
%TO.N,USB_~{DSR}*%
X228210000Y-82590000D03*
X231586025Y-83223976D03*
%TO.N,CTS*%
X232000000Y-102990000D03*
%TO.N,USB_~{CTS}*%
X234900000Y-96710000D03*
X231404738Y-81685000D03*
%TO.N,USB_~{DTR}*%
X230020000Y-87310000D03*
X231465009Y-96750824D03*
%TO.N,DTR*%
X232805380Y-103104620D03*
%TO.N,USB_~{RI}*%
X229060000Y-96000000D03*
X230362299Y-83720000D03*
%TO.N,USB_RXD*%
X232260000Y-96450000D03*
X231530799Y-84653676D03*
%TO.N,USB_~{RTS}*%
X230654998Y-96493171D03*
X228509197Y-85655000D03*
%TO.N,USB_TXD*%
X231610000Y-89340000D03*
X225450000Y-86380000D03*
%TO.N,RI*%
X229354998Y-96754485D03*
%TD*%
D25*
%TO.N,Earth*%
X229490000Y-88530000D02*
X229490000Y-88540000D01*
X222677500Y-81308000D02*
X222987499Y-81308000D01*
X222987499Y-81308000D02*
X223266000Y-81029499D01*
D26*
X229220000Y-75090000D02*
X229220000Y-75076909D01*
D25*
X223266000Y-81029499D02*
X223266000Y-80264000D01*
X230185000Y-91170000D02*
X230185000Y-89665000D01*
D26*
X229220000Y-75076909D02*
X229968455Y-74328454D01*
D25*
X230185000Y-89665000D02*
X230400000Y-89450000D01*
X229490000Y-88540000D02*
X230400000Y-89450000D01*
%TO.N,VCC*%
X231340000Y-75050000D02*
X230760000Y-75050000D01*
X233890000Y-75000000D02*
X236010000Y-77120000D01*
X232399769Y-94996000D02*
X230632000Y-94996000D01*
X231390000Y-75000000D02*
X231340000Y-75050000D01*
X223720000Y-75510000D02*
X223720000Y-79240500D01*
X224928000Y-88530000D02*
X228530000Y-88530000D01*
X222409500Y-83100000D02*
X221630000Y-82320500D01*
X222490000Y-74280000D02*
X223720000Y-75510000D01*
X230760000Y-75050000D02*
X230330000Y-75480000D01*
X223450000Y-83100000D02*
X223350000Y-83200000D01*
X229535000Y-89545000D02*
X229440000Y-89450000D01*
X233890000Y-74250000D02*
X233890000Y-75000000D01*
X231390000Y-74250000D02*
X231390000Y-75000000D01*
X229616000Y-92456000D02*
X229616000Y-91251000D01*
X233435000Y-98270000D02*
X233435000Y-96031231D01*
X229616000Y-91251000D02*
X229535000Y-91170000D01*
X221630000Y-81330500D02*
X221630000Y-82320500D01*
X233435000Y-96031231D02*
X232399769Y-94996000D01*
X236010000Y-77120000D02*
X236200000Y-77120000D01*
X223350000Y-83200000D02*
X223350000Y-86952000D01*
X224250000Y-83100000D02*
X222409500Y-83100000D01*
X223350000Y-86952000D02*
X224928000Y-88530000D01*
D27*
X229795000Y-76015000D02*
X223775000Y-76015000D01*
D25*
X224250000Y-83100000D02*
X223450000Y-83100000D01*
D27*
X230330000Y-75480000D02*
X229795000Y-76015000D01*
D25*
X228235000Y-91170000D02*
X228235000Y-88825000D01*
X229440000Y-89440000D02*
X228530000Y-88530000D01*
X223720000Y-79240500D02*
X221630000Y-81330500D01*
X228235000Y-88825000D02*
X228530000Y-88530000D01*
X229535000Y-91170000D02*
X229535000Y-89545000D01*
X229440000Y-89450000D02*
X229440000Y-89440000D01*
%TO.N,/D+*%
X231850000Y-76952499D02*
X232365000Y-76437499D01*
X232390000Y-76170000D02*
X232150000Y-76410000D01*
X228833200Y-79315000D02*
X228099100Y-80049100D01*
X231850000Y-79315000D02*
X228833200Y-79315000D01*
X232365000Y-76437499D02*
X232365000Y-76325496D01*
X224274455Y-80584455D02*
X224250000Y-80560000D01*
X232390000Y-74250000D02*
X232390000Y-76170000D01*
X231850000Y-77665000D02*
X231850000Y-76952499D01*
X228099100Y-80049100D02*
X228099099Y-80049100D01*
X225263628Y-80584455D02*
X224274455Y-80584455D01*
X228099099Y-80049100D02*
X227960521Y-80187678D01*
X227960521Y-80187678D02*
X227960521Y-80470521D01*
%TO.N,/D-*%
X224250000Y-81195000D02*
X224259503Y-81185497D01*
X232815000Y-76437499D02*
X232815000Y-76325496D01*
X232890000Y-76290000D02*
X232890000Y-74250000D01*
X232630000Y-78615000D02*
X228613958Y-78615000D01*
X224259503Y-81185497D02*
X225864670Y-81185497D01*
X228613958Y-78615000D02*
X227359479Y-79869479D01*
X233010000Y-76410000D02*
X232890000Y-76290000D01*
X233330000Y-76952499D02*
X232815000Y-76437499D01*
X233330000Y-77665000D02*
X233330000Y-76952499D01*
X233330000Y-79315000D02*
X232630000Y-78615000D01*
%TO.N,3V3OUT*%
X222874500Y-82465000D02*
X222677500Y-82268000D01*
X229450000Y-85005000D02*
X227555000Y-85005000D01*
X227555000Y-85005000D02*
X225015000Y-82465000D01*
X225015000Y-82465000D02*
X224250000Y-82465000D01*
X224250000Y-82465000D02*
X222874500Y-82465000D01*
X224250000Y-81830000D02*
X224250000Y-82465000D01*
%TO.N,Net-(U2-V-)*%
X229170000Y-99670000D02*
X229170000Y-100970000D01*
X228885000Y-99385000D02*
X229170000Y-99670000D01*
X228885000Y-98270000D02*
X228885000Y-99385000D01*
X229170000Y-100970000D02*
X229010000Y-101130000D01*
%TO.N,Net-(U2-C1+)*%
X228885000Y-91170000D02*
X228885000Y-92270000D01*
X227290000Y-92430000D02*
X225810000Y-90950000D01*
X228885000Y-92270000D02*
X228725000Y-92430000D01*
X228725000Y-92430000D02*
X227290000Y-92430000D01*
X225810000Y-90950000D02*
X225810000Y-90590000D01*
%TO.N,Net-(U2-C1-)*%
X226395000Y-89980000D02*
X225460000Y-89980000D01*
X227585000Y-91170000D02*
X226395000Y-89980000D01*
X225460000Y-89980000D02*
X224850000Y-90590000D01*
%TO.N,Net-(U2-C2+)*%
X227630000Y-98315000D02*
X227585000Y-98270000D01*
X227630000Y-100140000D02*
X227630000Y-98315000D01*
%TO.N,Net-(U2-C2-)*%
X228235000Y-99785000D02*
X228235000Y-98270000D01*
X228590000Y-100140000D02*
X228235000Y-99785000D01*
%TO.N,SLEEP#*%
X234085000Y-95655000D02*
X233680000Y-95250000D01*
X234085000Y-98270000D02*
X234085000Y-95655000D01*
X225552000Y-84836000D02*
X225383000Y-85005000D01*
X225383000Y-85005000D02*
X224250000Y-85005000D01*
%TO.N,USB_~{DSR}*%
X233435000Y-91170000D02*
X233435000Y-85072951D01*
X229325000Y-82590000D02*
X229450000Y-82465000D01*
X233435000Y-85072951D02*
X231586025Y-83223976D01*
X228210000Y-82590000D02*
X229325000Y-82590000D01*
%TO.N,CTS*%
X234730000Y-99530000D02*
X232000000Y-102260000D01*
X235385000Y-98270000D02*
X235385000Y-99370000D01*
X235385000Y-99370000D02*
X235225000Y-99530000D01*
X235225000Y-99530000D02*
X234730000Y-99530000D01*
X232000000Y-102260000D02*
X232000000Y-102990000D01*
%TO.N,USB_~{CTS}*%
X234735000Y-98270000D02*
X234735000Y-96875000D01*
X231276989Y-81557251D02*
X231404738Y-81685000D01*
X230250000Y-81284239D02*
X230630761Y-81665000D01*
X229450000Y-81195000D02*
X230250000Y-81195000D01*
X234735000Y-96875000D02*
X234900000Y-96710000D01*
X230250000Y-81195000D02*
X230250000Y-81284239D01*
X230630761Y-81665000D02*
X231169239Y-81665000D01*
X231169239Y-81665000D02*
X231276989Y-81557251D01*
%TO.N,USB_~{DTR}*%
X229450000Y-86740000D02*
X230020000Y-87310000D01*
X229450000Y-86275000D02*
X229450000Y-86740000D01*
X231485000Y-98270000D02*
X231485000Y-96770815D01*
X231485000Y-96770815D02*
X231465009Y-96750824D01*
%TO.N,DTR*%
X236035000Y-99875000D02*
X232805380Y-103104620D01*
X236035000Y-98270000D02*
X236035000Y-99875000D01*
%TO.N,USB_~{RI}*%
X230185000Y-98270000D02*
X230185000Y-96942412D01*
X229450000Y-83735000D02*
X230347299Y-83735000D01*
X230004998Y-96762410D02*
X230004998Y-96276469D01*
X229728529Y-96000000D02*
X229060000Y-96000000D01*
X230347299Y-83735000D02*
X230362299Y-83720000D01*
X230004998Y-96276469D02*
X229728529Y-96000000D01*
X230185000Y-96942412D02*
X230004998Y-96762410D01*
%TO.N,USB_RXD*%
X232135000Y-96575000D02*
X232260000Y-96450000D01*
X231247123Y-84370000D02*
X231530799Y-84653676D01*
X229450000Y-84370000D02*
X231247123Y-84370000D01*
X232135000Y-98270000D02*
X232135000Y-96575000D01*
%TO.N,USB_~{RTS}*%
X230835000Y-96673173D02*
X230654998Y-96493171D01*
X229450000Y-85640000D02*
X228524197Y-85640000D01*
X230835000Y-98270000D02*
X230835000Y-96673173D01*
X228524197Y-85640000D02*
X228509197Y-85655000D01*
%TO.N,USB_~{DCD}*%
X231670339Y-83873976D02*
X232407544Y-84611181D01*
X229450000Y-81830000D02*
X230230075Y-81830000D01*
X230980000Y-89565000D02*
X231485000Y-90070000D01*
X230230075Y-81830000D02*
X230936025Y-82535950D01*
X232407544Y-84611181D02*
X232407544Y-87666322D01*
X231316786Y-83873976D02*
X231670339Y-83873976D01*
X230980000Y-89093866D02*
X230980000Y-89565000D01*
X230936025Y-83493215D02*
X231316786Y-83873976D01*
X232407544Y-87666322D02*
X230980000Y-89093866D01*
X230936025Y-82535950D02*
X230936025Y-83493215D01*
X231485000Y-90070000D02*
X231485000Y-91170000D01*
%TO.N,RTS*%
X231144015Y-106015224D02*
X231069600Y-105940810D01*
X236640000Y-91775000D02*
X236035000Y-91170000D01*
X230645001Y-106514238D02*
X231144015Y-106015224D01*
X231632189Y-104582599D02*
X232576640Y-104582599D01*
X230645001Y-106543000D02*
X230645001Y-106514238D01*
X231069600Y-105940810D02*
X231069600Y-105145188D01*
X236640000Y-100519239D02*
X236640000Y-91775000D01*
X231069600Y-105145188D02*
X231632189Y-104582599D01*
X232576640Y-104582599D02*
X236640000Y-100519239D01*
%TO.N,DSR*%
X226950000Y-99649996D02*
X227060000Y-99539996D01*
X227060000Y-99539996D02*
X227060000Y-97100000D01*
X227875002Y-106543000D02*
X227875002Y-104115002D01*
X226950000Y-103190000D02*
X226950000Y-99649996D01*
X233960000Y-92370000D02*
X234085000Y-92245000D01*
X234085000Y-92245000D02*
X234085000Y-91170000D01*
X227875002Y-104115002D02*
X226950000Y-103190000D01*
X227060000Y-97100000D02*
X231790000Y-92370000D01*
X231790000Y-92370000D02*
X233960000Y-92370000D01*
%TO.N,USB_TXD*%
X224355000Y-86380000D02*
X224250000Y-86275000D01*
X232135000Y-89865000D02*
X231610000Y-89340000D01*
X232135000Y-91170000D02*
X232135000Y-89865000D01*
X225450000Y-86380000D02*
X224355000Y-86380000D01*
%TO.N,DCD*%
X230835000Y-92245000D02*
X230835000Y-91170000D01*
X226490001Y-96589999D02*
X230835000Y-92245000D01*
X226490001Y-105542999D02*
X226490001Y-96589999D01*
%TO.N,RXD*%
X232785000Y-99230076D02*
X232785000Y-98270000D01*
X229260000Y-102755076D02*
X232785000Y-99230076D01*
X229260000Y-105542999D02*
X229260000Y-102755076D01*
%TO.N,RI*%
X229535000Y-98270000D02*
X229535000Y-96934487D01*
X229535000Y-96934487D02*
X229354998Y-96754485D01*
%TO.N,TXD*%
X236560000Y-89970000D02*
X235485000Y-89970000D01*
X235485000Y-89970000D02*
X235385000Y-90070000D01*
X237040000Y-101466945D02*
X237040000Y-90450000D01*
X237040000Y-90450000D02*
X236560000Y-89970000D01*
X235385000Y-90070000D02*
X235385000Y-91170000D01*
X232030000Y-105542999D02*
X232963946Y-105542999D01*
X232963946Y-105542999D02*
X237040000Y-101466945D01*
%TO.N,Net-(P1-CC)*%
X231890000Y-74250000D02*
X231890000Y-75065686D01*
X229273866Y-77390000D02*
X228870000Y-77390000D01*
X231890000Y-75065686D02*
X231505686Y-75450000D01*
X230863866Y-75800000D02*
X229273866Y-77390000D01*
X231440000Y-75450000D02*
X231090000Y-75800000D01*
X231505686Y-75450000D02*
X231440000Y-75450000D01*
X231090000Y-75800000D02*
X230863866Y-75800000D01*
%TD*%
%TA.AperFunction,Conductor*%
%TO.N,Earth*%
G36*
X227421194Y-72728806D02*
G01*
X227439500Y-72773000D01*
X227439500Y-73988842D01*
X227470262Y-74143495D01*
X227530606Y-74289180D01*
X227618210Y-74420288D01*
X227729711Y-74531789D01*
X227860819Y-74619393D01*
X227860820Y-74619393D01*
X227860821Y-74619394D01*
X228006503Y-74679737D01*
X228161158Y-74710500D01*
X228307500Y-74710500D01*
X228351694Y-74728806D01*
X228370000Y-74773000D01*
X228370000Y-74840000D01*
X229407500Y-74840000D01*
X229451694Y-74858306D01*
X229470000Y-74902500D01*
X229470000Y-75277500D01*
X229451694Y-75321694D01*
X229407500Y-75340000D01*
X228370000Y-75340000D01*
X228370000Y-75602000D01*
X228351694Y-75646194D01*
X228307500Y-75664500D01*
X224083000Y-75664500D01*
X224038806Y-75646194D01*
X224020500Y-75602000D01*
X224020500Y-75470439D01*
X224020498Y-75470431D01*
X224000023Y-75394015D01*
X224000019Y-75394006D01*
X223960462Y-75325492D01*
X223960455Y-75325483D01*
X223558358Y-74923387D01*
X223540052Y-74879193D01*
X223546605Y-74851334D01*
X223614226Y-74715535D01*
X223614226Y-74715533D01*
X223614229Y-74715528D01*
X223675115Y-74501536D01*
X223681263Y-74435190D01*
X223695643Y-74280004D01*
X223695643Y-74279995D01*
X223675116Y-74058471D01*
X223675114Y-74058459D01*
X223632873Y-73910000D01*
X223614229Y-73844472D01*
X223515058Y-73645311D01*
X223515055Y-73645307D01*
X223515054Y-73645305D01*
X223380989Y-73467773D01*
X223380984Y-73467768D01*
X223380981Y-73467764D01*
X223277834Y-73373733D01*
X223216566Y-73317879D01*
X223216563Y-73317877D01*
X223216562Y-73317876D01*
X223027401Y-73200753D01*
X223027399Y-73200752D01*
X222950138Y-73170821D01*
X222819940Y-73120382D01*
X222819937Y-73120381D01*
X222819936Y-73120381D01*
X222601247Y-73079500D01*
X222601243Y-73079500D01*
X222378757Y-73079500D01*
X222378752Y-73079500D01*
X222160063Y-73120381D01*
X221952600Y-73200752D01*
X221763433Y-73317879D01*
X221599017Y-73467766D01*
X221599010Y-73467773D01*
X221464945Y-73645305D01*
X221464942Y-73645311D01*
X221365771Y-73844471D01*
X221304885Y-74058459D01*
X221304883Y-74058471D01*
X221284357Y-74279995D01*
X221284357Y-74280004D01*
X221304883Y-74501528D01*
X221304885Y-74501540D01*
X221364340Y-74710499D01*
X221365771Y-74715528D01*
X221464942Y-74914689D01*
X221464943Y-74914690D01*
X221464945Y-74914694D01*
X221599010Y-75092226D01*
X221599015Y-75092231D01*
X221599019Y-75092236D01*
X221684298Y-75169978D01*
X221763433Y-75242120D01*
X221763434Y-75242121D01*
X221763438Y-75242124D01*
X221952599Y-75359247D01*
X222160060Y-75439618D01*
X222378757Y-75480500D01*
X222378760Y-75480500D01*
X222601240Y-75480500D01*
X222601243Y-75480500D01*
X222819940Y-75439618D01*
X223027401Y-75359247D01*
X223057493Y-75340614D01*
X223104702Y-75332913D01*
X223134588Y-75349559D01*
X223401194Y-75616165D01*
X223419500Y-75660359D01*
X223419500Y-76339294D01*
X223401194Y-76383488D01*
X223357000Y-76401794D01*
X223318612Y-76388615D01*
X223243235Y-76329946D01*
X223243228Y-76329942D01*
X223024614Y-76211635D01*
X223024607Y-76211632D01*
X222789490Y-76130916D01*
X222544291Y-76090000D01*
X222295709Y-76090000D01*
X222050509Y-76130916D01*
X221815392Y-76211632D01*
X221815385Y-76211635D01*
X221596767Y-76329944D01*
X221549942Y-76366389D01*
X222729358Y-77545805D01*
X222747664Y-77589999D01*
X222729358Y-77634193D01*
X221549941Y-78813609D01*
X221596771Y-78850057D01*
X221815385Y-78968364D01*
X221815392Y-78968367D01*
X222050509Y-79049083D01*
X222295709Y-79090000D01*
X222544291Y-79090000D01*
X222789490Y-79049083D01*
X223024607Y-78968367D01*
X223024614Y-78968364D01*
X223243232Y-78850055D01*
X223318611Y-78791385D01*
X223364730Y-78778686D01*
X223406321Y-78802317D01*
X223419500Y-78840706D01*
X223419500Y-79090140D01*
X223401194Y-79134334D01*
X221733833Y-80801694D01*
X221689639Y-80820000D01*
X221450108Y-80820000D01*
X221450105Y-80820000D01*
X221450100Y-80820001D01*
X221400513Y-80826528D01*
X221400511Y-80826528D01*
X221400182Y-80826572D01*
X221353977Y-80814189D01*
X221338230Y-80796421D01*
X221319720Y-80765122D01*
X221205377Y-80650779D01*
X221066197Y-80568469D01*
X221066196Y-80568468D01*
X220920000Y-80525993D01*
X220920000Y-83125005D01*
X221066196Y-83082531D01*
X221066197Y-83082530D01*
X221205377Y-83000220D01*
X221205379Y-83000219D01*
X221319719Y-82885879D01*
X221319720Y-82885877D01*
X221338228Y-82854580D01*
X221376480Y-82825857D01*
X221400183Y-82824428D01*
X221400511Y-82824471D01*
X221400513Y-82824472D01*
X221450099Y-82831000D01*
X221689640Y-82830999D01*
X221733834Y-82849305D01*
X222169040Y-83284511D01*
X222224989Y-83340460D01*
X222293511Y-83380021D01*
X222316896Y-83386287D01*
X222369932Y-83400499D01*
X222369938Y-83400500D01*
X222987000Y-83400500D01*
X223031194Y-83418806D01*
X223049500Y-83463000D01*
X223049500Y-86991567D01*
X223069978Y-87067986D01*
X223069978Y-87067988D01*
X223109541Y-87136512D01*
X223109544Y-87136516D01*
X224687540Y-88714511D01*
X224743489Y-88770460D01*
X224812011Y-88810021D01*
X224835396Y-88816287D01*
X224888432Y-88830499D01*
X224888438Y-88830500D01*
X224967562Y-88830500D01*
X227872000Y-88830500D01*
X227916194Y-88848806D01*
X227934500Y-88893000D01*
X227934500Y-90014180D01*
X227916194Y-90058374D01*
X227872000Y-90076680D01*
X227859807Y-90075479D01*
X227829748Y-90069500D01*
X227340252Y-90069500D01*
X227281769Y-90081132D01*
X227281767Y-90081133D01*
X227215447Y-90125447D01*
X227171133Y-90191767D01*
X227171130Y-90191774D01*
X227170815Y-90193361D01*
X227169917Y-90194703D01*
X227168778Y-90197455D01*
X227168230Y-90197228D01*
X227144234Y-90233131D01*
X227097316Y-90242456D01*
X227065324Y-90225353D01*
X226579516Y-89739544D01*
X226579512Y-89739541D01*
X226579511Y-89739540D01*
X226510989Y-89699979D01*
X226510988Y-89699978D01*
X226510987Y-89699978D01*
X226434567Y-89679500D01*
X226434562Y-89679500D01*
X225420438Y-89679500D01*
X225420432Y-89679500D01*
X225344013Y-89699978D01*
X225344011Y-89699978D01*
X225275487Y-89739541D01*
X224953833Y-90061194D01*
X224909639Y-90079500D01*
X224670108Y-90079500D01*
X224670106Y-90079500D01*
X224670100Y-90079501D01*
X224620513Y-90086028D01*
X224620511Y-90086028D01*
X224620510Y-90086029D01*
X224511681Y-90136777D01*
X224426777Y-90221681D01*
X224376027Y-90330513D01*
X224369500Y-90380092D01*
X224369500Y-90799891D01*
X224369500Y-90799892D01*
X224369501Y-90799900D01*
X224376028Y-90849487D01*
X224409642Y-90921571D01*
X224426777Y-90958318D01*
X224511681Y-91043222D01*
X224511682Y-91043222D01*
X224511684Y-91043224D01*
X224620513Y-91093972D01*
X224670099Y-91100500D01*
X225029900Y-91100499D01*
X225079487Y-91093972D01*
X225188316Y-91043224D01*
X225273224Y-90958316D01*
X225273356Y-90958031D01*
X225273542Y-90957860D01*
X225276357Y-90953841D01*
X225277248Y-90954465D01*
X225308624Y-90925715D01*
X225356414Y-90927802D01*
X225382943Y-90954331D01*
X225383643Y-90953841D01*
X225386420Y-90957808D01*
X225386644Y-90958032D01*
X225386777Y-90958318D01*
X225471681Y-91043222D01*
X225471682Y-91043222D01*
X225471684Y-91043224D01*
X225500751Y-91056778D01*
X225515609Y-91063707D01*
X225543319Y-91089096D01*
X225549901Y-91100494D01*
X225549902Y-91100500D01*
X225549904Y-91100500D01*
X225569540Y-91134511D01*
X227049540Y-92614511D01*
X227105489Y-92670460D01*
X227174011Y-92710021D01*
X227197396Y-92716287D01*
X227250432Y-92730499D01*
X227250438Y-92730500D01*
X228764562Y-92730500D01*
X228764567Y-92730499D01*
X228787271Y-92724414D01*
X228840989Y-92710021D01*
X228909511Y-92670460D01*
X228965460Y-92614511D01*
X229023776Y-92556193D01*
X229067968Y-92537888D01*
X229112162Y-92556193D01*
X229129832Y-92591491D01*
X229130832Y-92598450D01*
X229130834Y-92598456D01*
X229190622Y-92729372D01*
X229190623Y-92729374D01*
X229199921Y-92740104D01*
X229284872Y-92838143D01*
X229405947Y-92915953D01*
X229405949Y-92915953D01*
X229405950Y-92915954D01*
X229544036Y-92956499D01*
X229544038Y-92956500D01*
X229547640Y-92956500D01*
X229591834Y-92974806D01*
X229610140Y-93019000D01*
X229591834Y-93063194D01*
X227939051Y-94715978D01*
X226305490Y-96349539D01*
X226283118Y-96371911D01*
X226249542Y-96405486D01*
X226209979Y-96474010D01*
X226209979Y-96474012D01*
X226189501Y-96550431D01*
X226189501Y-104693829D01*
X226171195Y-104738023D01*
X226152423Y-104750925D01*
X226057178Y-104793332D01*
X226057175Y-104793333D01*
X225910772Y-104899701D01*
X225910772Y-104899702D01*
X225789681Y-105034188D01*
X225749667Y-105103495D01*
X225700045Y-105189445D01*
X225699196Y-105190915D01*
X225643275Y-105363019D01*
X225624359Y-105542999D01*
X225643275Y-105722978D01*
X225699196Y-105895082D01*
X225699198Y-105895087D01*
X225701256Y-105898652D01*
X225707499Y-105946076D01*
X225678379Y-105984027D01*
X225647129Y-105992400D01*
X225526517Y-105992400D01*
X225323544Y-106032773D01*
X225132348Y-106111969D01*
X225132344Y-106111972D01*
X224960274Y-106226945D01*
X224813937Y-106373282D01*
X224698964Y-106545352D01*
X224698961Y-106545356D01*
X224619765Y-106736552D01*
X224579392Y-106939524D01*
X224579392Y-107146475D01*
X224619765Y-107349447D01*
X224698961Y-107540643D01*
X224698962Y-107540645D01*
X224698963Y-107540646D01*
X224705218Y-107550007D01*
X224812184Y-107710094D01*
X224813938Y-107712718D01*
X224960274Y-107859054D01*
X225132346Y-107974029D01*
X225132347Y-107974029D01*
X225132348Y-107974030D01*
X225314041Y-108049290D01*
X225347866Y-108083114D01*
X225347865Y-108130950D01*
X225314041Y-108164775D01*
X225290123Y-108169532D01*
X222252123Y-108169532D01*
X222207929Y-108151226D01*
X222189623Y-108107032D01*
X222207929Y-108062838D01*
X222213439Y-108057327D01*
X222213446Y-108057319D01*
X222329094Y-107898145D01*
X222418416Y-107722839D01*
X222418420Y-107722831D01*
X222479219Y-107535712D01*
X222479221Y-107535703D01*
X222485985Y-107493000D01*
X221693012Y-107493000D01*
X221725925Y-107435993D01*
X221760000Y-107308826D01*
X221760000Y-107177174D01*
X221725925Y-107050007D01*
X221693012Y-106993000D01*
X222485985Y-106993000D01*
X222485985Y-106992999D01*
X222479221Y-106950296D01*
X222479219Y-106950287D01*
X222418420Y-106763168D01*
X222418416Y-106763160D01*
X222329094Y-106587854D01*
X222213446Y-106428680D01*
X222213439Y-106428672D01*
X222074327Y-106289560D01*
X222074319Y-106289553D01*
X221915145Y-106173905D01*
X221739839Y-106084583D01*
X221739831Y-106084579D01*
X221552707Y-106023778D01*
X221358390Y-105993001D01*
X221358375Y-105993000D01*
X220385000Y-105993000D01*
X220385000Y-106743000D01*
X219885000Y-106743000D01*
X219885000Y-105993000D01*
X218911625Y-105993000D01*
X218911609Y-105993001D01*
X218717293Y-106023778D01*
X218717292Y-106023778D01*
X218530168Y-106084579D01*
X218530160Y-106084583D01*
X218354854Y-106173905D01*
X218195680Y-106289553D01*
X218195672Y-106289560D01*
X218056560Y-106428672D01*
X218056553Y-106428680D01*
X217940905Y-106587854D01*
X217863688Y-106739403D01*
X217827314Y-106770470D01*
X217779626Y-106766717D01*
X217748559Y-106730343D01*
X217745500Y-106711029D01*
X217745500Y-105733000D01*
X217763806Y-105688806D01*
X217808000Y-105670500D01*
X219418842Y-105670500D01*
X219573497Y-105639737D01*
X219719179Y-105579394D01*
X219850289Y-105491789D01*
X219961789Y-105380289D01*
X220049394Y-105249179D01*
X220109737Y-105103497D01*
X220140500Y-104948842D01*
X220140500Y-104870000D01*
X220140500Y-104804108D01*
X220140500Y-92548992D01*
X220158806Y-92504798D01*
X220203000Y-92486492D01*
X220247194Y-92504798D01*
X220253558Y-92512249D01*
X220309896Y-92589792D01*
X220309898Y-92589794D01*
X220309902Y-92589799D01*
X220460205Y-92740102D01*
X220632182Y-92865050D01*
X220632184Y-92865051D01*
X220821588Y-92961557D01*
X221023757Y-93027246D01*
X221112244Y-93041261D01*
X221233699Y-93060498D01*
X221233705Y-93060498D01*
X221233713Y-93060500D01*
X221233715Y-93060500D01*
X221446285Y-93060500D01*
X221446287Y-93060500D01*
X221656243Y-93027246D01*
X221858412Y-92961557D01*
X222047816Y-92865051D01*
X222219792Y-92740104D01*
X222370104Y-92589792D01*
X222495051Y-92417816D01*
X222591557Y-92228412D01*
X222657246Y-92026243D01*
X222690500Y-91816287D01*
X222690500Y-91603713D01*
X222657246Y-91393757D01*
X222591557Y-91191588D01*
X222495051Y-91002184D01*
X222463179Y-90958316D01*
X222370102Y-90830205D01*
X222219794Y-90679897D01*
X222047817Y-90554949D01*
X221858418Y-90458446D01*
X221858410Y-90458442D01*
X221656241Y-90392753D01*
X221446300Y-90359501D01*
X221446288Y-90359500D01*
X221446287Y-90359500D01*
X221233713Y-90359500D01*
X221233711Y-90359500D01*
X221233699Y-90359501D01*
X221023759Y-90392753D01*
X221023758Y-90392753D01*
X220821589Y-90458442D01*
X220821581Y-90458446D01*
X220632182Y-90554949D01*
X220460205Y-90679897D01*
X220309902Y-90830200D01*
X220309896Y-90830207D01*
X220309896Y-90830208D01*
X220253562Y-90907744D01*
X220212777Y-90932738D01*
X220166263Y-90921571D01*
X220141269Y-90880784D01*
X220140500Y-90871007D01*
X220140500Y-83113269D01*
X220158806Y-83069075D01*
X220203000Y-83050769D01*
X220234816Y-83059473D01*
X220273804Y-83082532D01*
X220419999Y-83125005D01*
X220420000Y-83125004D01*
X220420000Y-80525994D01*
X220419999Y-80525993D01*
X220273807Y-80568467D01*
X220234815Y-80591527D01*
X220187456Y-80598266D01*
X220149203Y-80569545D01*
X220140500Y-80537730D01*
X220140500Y-77590000D01*
X220914859Y-77590000D01*
X220935387Y-77837738D01*
X220935389Y-77837748D01*
X220996408Y-78078705D01*
X220996413Y-78078720D01*
X221096269Y-78306370D01*
X221096271Y-78306373D01*
X221196563Y-78459881D01*
X221196564Y-78459881D01*
X222066446Y-77589999D01*
X221196564Y-76720117D01*
X221196563Y-76720117D01*
X221096271Y-76873625D01*
X221096269Y-76873629D01*
X220996413Y-77101279D01*
X220996408Y-77101294D01*
X220935389Y-77342251D01*
X220935387Y-77342261D01*
X220914859Y-77590000D01*
X220140500Y-77590000D01*
X220140500Y-76273000D01*
X220158806Y-76228806D01*
X220203000Y-76210500D01*
X220418842Y-76210500D01*
X220573497Y-76179737D01*
X220719179Y-76119394D01*
X220850289Y-76031789D01*
X220961789Y-75920289D01*
X221049394Y-75789179D01*
X221109737Y-75643497D01*
X221140500Y-75488842D01*
X221140500Y-75410000D01*
X221140500Y-75344108D01*
X221140500Y-72773000D01*
X221158806Y-72728806D01*
X221203000Y-72710500D01*
X227377000Y-72710500D01*
X227421194Y-72728806D01*
G37*
%TD.AperFunction*%
%TA.AperFunction,Conductor*%
G36*
X238567114Y-106186562D02*
G01*
X238568758Y-106187113D01*
X238569843Y-106189291D01*
X238570713Y-106190161D01*
X238570421Y-106190452D01*
X238590089Y-106229930D01*
X238578304Y-106271006D01*
X238514200Y-106359237D01*
X238420972Y-106542205D01*
X238420971Y-106542208D01*
X238357515Y-106737506D01*
X238357515Y-106737507D01*
X238325393Y-106940312D01*
X238325392Y-106940328D01*
X238325392Y-107145671D01*
X238325393Y-107145687D01*
X238357515Y-107348492D01*
X238357515Y-107348493D01*
X238420971Y-107543791D01*
X238420972Y-107543794D01*
X238424138Y-107550007D01*
X238514198Y-107726759D01*
X238634899Y-107892890D01*
X238634902Y-107892893D01*
X238634905Y-107892897D01*
X238780094Y-108038086D01*
X238780102Y-108038093D01*
X238805394Y-108056469D01*
X238830388Y-108097255D01*
X238819220Y-108143769D01*
X238778434Y-108168763D01*
X238768657Y-108169532D01*
X225969861Y-108169532D01*
X225925667Y-108151226D01*
X225907361Y-108107032D01*
X225925667Y-108062838D01*
X225945943Y-108049290D01*
X225972992Y-108038086D01*
X226127638Y-107974029D01*
X226299710Y-107859054D01*
X226446046Y-107712718D01*
X226561021Y-107540646D01*
X226640218Y-107349449D01*
X226680592Y-107146475D01*
X226680592Y-106939525D01*
X226640218Y-106736551D01*
X226561021Y-106545354D01*
X226531465Y-106501121D01*
X226522134Y-106454206D01*
X226548710Y-106414432D01*
X226577382Y-106405734D01*
X226577226Y-106404242D01*
X226580481Y-106403899D01*
X226580485Y-106403899D01*
X226757499Y-106366273D01*
X226922822Y-106292667D01*
X226931185Y-106286590D01*
X226935167Y-106283698D01*
X226981680Y-106272529D01*
X227022467Y-106297522D01*
X227033636Y-106344035D01*
X227031346Y-106353572D01*
X227028277Y-106363017D01*
X227028277Y-106363020D01*
X227028276Y-106363023D01*
X227011660Y-106521113D01*
X227009360Y-106543000D01*
X227028276Y-106722979D01*
X227059506Y-106819092D01*
X227084199Y-106895088D01*
X227174683Y-107051812D01*
X227259194Y-107145671D01*
X227295773Y-107186296D01*
X227295773Y-107186297D01*
X227442175Y-107292664D01*
X227442181Y-107292668D01*
X227607504Y-107366274D01*
X227784518Y-107403900D01*
X227965486Y-107403900D01*
X228142500Y-107366274D01*
X228307823Y-107292668D01*
X228454230Y-107186297D01*
X228575321Y-107051812D01*
X228665805Y-106895088D01*
X228721728Y-106722977D01*
X228740644Y-106543000D01*
X228721728Y-106363023D01*
X228718659Y-106353577D01*
X228722410Y-106305891D01*
X228758783Y-106274823D01*
X228806471Y-106278574D01*
X228814835Y-106283699D01*
X228827174Y-106292664D01*
X228827176Y-106292665D01*
X228827179Y-106292667D01*
X228992502Y-106366273D01*
X229169516Y-106403899D01*
X229350484Y-106403899D01*
X229527498Y-106366273D01*
X229692821Y-106292667D01*
X229701184Y-106286590D01*
X229705166Y-106283698D01*
X229751679Y-106272529D01*
X229792466Y-106297522D01*
X229803635Y-106344035D01*
X229801345Y-106353572D01*
X229798276Y-106363017D01*
X229798276Y-106363020D01*
X229798275Y-106363023D01*
X229781659Y-106521113D01*
X229779359Y-106543000D01*
X229798275Y-106722979D01*
X229829505Y-106819092D01*
X229854198Y-106895088D01*
X229944682Y-107051812D01*
X230029193Y-107145671D01*
X230065772Y-107186296D01*
X230065772Y-107186297D01*
X230212174Y-107292664D01*
X230212180Y-107292668D01*
X230377503Y-107366274D01*
X230554517Y-107403900D01*
X230735485Y-107403900D01*
X230912499Y-107366274D01*
X231077822Y-107292668D01*
X231224229Y-107186297D01*
X231345320Y-107051812D01*
X231435804Y-106895088D01*
X231491727Y-106722977D01*
X231510643Y-106543000D01*
X231491727Y-106363023D01*
X231488657Y-106353575D01*
X231492409Y-106305889D01*
X231528783Y-106274821D01*
X231576471Y-106278573D01*
X231584835Y-106283699D01*
X231597173Y-106292663D01*
X231597179Y-106292667D01*
X231762502Y-106366273D01*
X231939516Y-106403899D01*
X232120484Y-106403899D01*
X232297498Y-106366273D01*
X232462821Y-106292667D01*
X232471184Y-106286590D01*
X232475166Y-106283698D01*
X232521679Y-106272529D01*
X232562466Y-106297522D01*
X232573635Y-106344035D01*
X232571345Y-106353572D01*
X232568276Y-106363017D01*
X232568276Y-106363020D01*
X232568275Y-106363023D01*
X232551659Y-106521113D01*
X232549359Y-106543000D01*
X232568275Y-106722979D01*
X232599505Y-106819092D01*
X232624198Y-106895088D01*
X232714682Y-107051812D01*
X232799193Y-107145671D01*
X232835772Y-107186296D01*
X232835772Y-107186297D01*
X232982174Y-107292664D01*
X232982180Y-107292668D01*
X233147503Y-107366274D01*
X233324517Y-107403900D01*
X233505485Y-107403900D01*
X233682499Y-107366274D01*
X233847822Y-107292668D01*
X233994229Y-107186297D01*
X234115320Y-107051812D01*
X234205804Y-106895088D01*
X234261727Y-106722977D01*
X234280643Y-106543000D01*
X234261727Y-106363023D01*
X234258657Y-106353575D01*
X234262409Y-106305889D01*
X234298783Y-106274821D01*
X234346471Y-106278573D01*
X234354835Y-106283699D01*
X234367173Y-106292663D01*
X234367179Y-106292667D01*
X234532502Y-106366273D01*
X234709516Y-106403899D01*
X234890484Y-106403899D01*
X235067498Y-106366273D01*
X235232821Y-106292667D01*
X235241184Y-106286590D01*
X235245166Y-106283698D01*
X235291679Y-106272529D01*
X235332466Y-106297522D01*
X235343635Y-106344035D01*
X235341345Y-106353572D01*
X235338276Y-106363017D01*
X235338276Y-106363020D01*
X235338275Y-106363023D01*
X235321659Y-106521113D01*
X235319359Y-106543000D01*
X235338275Y-106722979D01*
X235369505Y-106819092D01*
X235394198Y-106895088D01*
X235484682Y-107051812D01*
X235569193Y-107145671D01*
X235605772Y-107186296D01*
X235605772Y-107186297D01*
X235752174Y-107292664D01*
X235752180Y-107292668D01*
X235917503Y-107366274D01*
X236094517Y-107403900D01*
X236275485Y-107403900D01*
X236452499Y-107366274D01*
X236617822Y-107292668D01*
X236764229Y-107186297D01*
X236885320Y-107051812D01*
X236975804Y-106895088D01*
X237031727Y-106722977D01*
X237037736Y-106665802D01*
X237060560Y-106623767D01*
X237106426Y-106610180D01*
X237122471Y-106614059D01*
X237251080Y-106663883D01*
X237462467Y-106703398D01*
X237462475Y-106703399D01*
X237677523Y-106703399D01*
X237677530Y-106703398D01*
X237888912Y-106663884D01*
X238089450Y-106586195D01*
X238194560Y-106521113D01*
X237622846Y-105949399D01*
X237623503Y-105949399D01*
X237726864Y-105921704D01*
X237819535Y-105868200D01*
X237895200Y-105792535D01*
X237948704Y-105699864D01*
X237976399Y-105596503D01*
X237976399Y-105595846D01*
X238567114Y-106186562D01*
G37*
%TD.AperFunction*%
%TA.AperFunction,Conductor*%
G36*
X244121194Y-72728806D02*
G01*
X244139500Y-72773000D01*
X244139500Y-75488842D01*
X244170262Y-75643495D01*
X244230606Y-75789180D01*
X244318210Y-75920288D01*
X244429711Y-76031789D01*
X244560819Y-76119393D01*
X244560820Y-76119393D01*
X244560821Y-76119394D01*
X244706503Y-76179737D01*
X244861158Y-76210500D01*
X244874108Y-76210500D01*
X245077000Y-76210500D01*
X245121194Y-76228806D01*
X245139500Y-76273000D01*
X245139500Y-90871007D01*
X245121194Y-90915201D01*
X245077000Y-90933507D01*
X245032806Y-90915201D01*
X245026441Y-90907750D01*
X244970104Y-90830208D01*
X244970099Y-90830203D01*
X244970097Y-90830200D01*
X244819794Y-90679897D01*
X244647817Y-90554949D01*
X244458418Y-90458446D01*
X244458410Y-90458442D01*
X244256241Y-90392753D01*
X244046300Y-90359501D01*
X244046288Y-90359500D01*
X244046287Y-90359500D01*
X243833713Y-90359500D01*
X243833711Y-90359500D01*
X243833699Y-90359501D01*
X243623759Y-90392753D01*
X243623758Y-90392753D01*
X243421589Y-90458442D01*
X243421581Y-90458446D01*
X243232182Y-90554949D01*
X243060205Y-90679897D01*
X242909897Y-90830205D01*
X242784949Y-91002182D01*
X242688446Y-91191581D01*
X242688442Y-91191589D01*
X242622753Y-91393758D01*
X242622753Y-91393759D01*
X242589501Y-91603699D01*
X242589500Y-91603715D01*
X242589500Y-91816284D01*
X242589501Y-91816300D01*
X242622753Y-92026240D01*
X242622753Y-92026241D01*
X242688442Y-92228410D01*
X242688446Y-92228418D01*
X242784949Y-92417817D01*
X242909897Y-92589794D01*
X243060205Y-92740102D01*
X243232182Y-92865050D01*
X243232184Y-92865051D01*
X243421588Y-92961557D01*
X243623757Y-93027246D01*
X243712244Y-93041261D01*
X243833699Y-93060498D01*
X243833705Y-93060498D01*
X243833713Y-93060500D01*
X243833715Y-93060500D01*
X244046285Y-93060500D01*
X244046287Y-93060500D01*
X244256243Y-93027246D01*
X244458412Y-92961557D01*
X244647816Y-92865051D01*
X244819792Y-92740104D01*
X244970104Y-92589792D01*
X245026437Y-92512255D01*
X245067222Y-92487262D01*
X245113736Y-92498428D01*
X245138730Y-92539214D01*
X245139500Y-92548992D01*
X245139500Y-104948842D01*
X245170262Y-105103495D01*
X245230606Y-105249180D01*
X245318210Y-105380288D01*
X245429711Y-105491789D01*
X245560819Y-105579393D01*
X245560820Y-105579393D01*
X245560821Y-105579394D01*
X245706503Y-105639737D01*
X245861158Y-105670500D01*
X245874108Y-105670500D01*
X247472000Y-105670500D01*
X247516194Y-105688806D01*
X247534500Y-105733000D01*
X247534500Y-106756592D01*
X247516194Y-106800786D01*
X247472000Y-106819092D01*
X247427806Y-106800786D01*
X247412559Y-106775906D01*
X247408420Y-106763168D01*
X247408416Y-106763160D01*
X247319094Y-106587854D01*
X247203446Y-106428680D01*
X247203439Y-106428672D01*
X247064327Y-106289560D01*
X247064319Y-106289553D01*
X246905145Y-106173905D01*
X246729839Y-106084583D01*
X246729831Y-106084579D01*
X246542707Y-106023778D01*
X246348390Y-105993001D01*
X246348375Y-105993000D01*
X245375000Y-105993000D01*
X245375000Y-106743000D01*
X244875000Y-106743000D01*
X244875000Y-105993000D01*
X243901625Y-105993000D01*
X243901609Y-105993001D01*
X243707293Y-106023778D01*
X243707292Y-106023778D01*
X243520168Y-106084579D01*
X243520160Y-106084583D01*
X243344854Y-106173905D01*
X243185680Y-106289553D01*
X243185672Y-106289560D01*
X243046560Y-106428672D01*
X243046553Y-106428680D01*
X242930905Y-106587854D01*
X242841583Y-106763160D01*
X242841579Y-106763168D01*
X242780780Y-106950287D01*
X242780778Y-106950296D01*
X242774014Y-106992999D01*
X242774015Y-106993000D01*
X243566988Y-106993000D01*
X243534075Y-107050007D01*
X243500000Y-107177174D01*
X243500000Y-107308826D01*
X243534075Y-107435993D01*
X243566988Y-107493000D01*
X242774014Y-107493000D01*
X242780778Y-107535703D01*
X242780780Y-107535712D01*
X242841579Y-107722831D01*
X242841583Y-107722839D01*
X242930905Y-107898145D01*
X243046553Y-108057319D01*
X243046560Y-108057327D01*
X243052071Y-108062838D01*
X243070377Y-108107032D01*
X243052071Y-108151226D01*
X243007877Y-108169532D01*
X240491327Y-108169532D01*
X240447133Y-108151226D01*
X240428827Y-108107032D01*
X240447133Y-108062838D01*
X240454590Y-108056469D01*
X240464471Y-108049290D01*
X240479882Y-108038093D01*
X240625085Y-107892890D01*
X240745786Y-107726759D01*
X240839012Y-107543793D01*
X240902468Y-107348495D01*
X240934592Y-107145674D01*
X240934592Y-106940326D01*
X240902468Y-106737505D01*
X240839012Y-106542207D01*
X240745786Y-106359241D01*
X240625085Y-106193110D01*
X240625080Y-106193105D01*
X240625078Y-106193102D01*
X240479889Y-106047913D01*
X240479885Y-106047910D01*
X240479882Y-106047907D01*
X240313751Y-105927206D01*
X240302953Y-105921704D01*
X240130786Y-105833980D01*
X240130783Y-105833979D01*
X239935485Y-105770523D01*
X239732679Y-105738401D01*
X239732667Y-105738400D01*
X239732666Y-105738400D01*
X239527318Y-105738400D01*
X239527316Y-105738400D01*
X239527304Y-105738401D01*
X239324499Y-105770523D01*
X239324498Y-105770523D01*
X239129200Y-105833979D01*
X239129197Y-105833980D01*
X238946232Y-105927206D01*
X238868025Y-105984027D01*
X238780102Y-106047907D01*
X238780100Y-106047908D01*
X238780097Y-106047911D01*
X238721947Y-106106061D01*
X238677752Y-106124366D01*
X238633558Y-106106060D01*
X238615253Y-106061865D01*
X238621805Y-106034007D01*
X238656674Y-105963980D01*
X238715526Y-105757139D01*
X238715528Y-105757127D01*
X238735370Y-105543003D01*
X238735370Y-105542994D01*
X238715528Y-105328870D01*
X238715526Y-105328858D01*
X238656674Y-105122017D01*
X238560816Y-104929509D01*
X238560812Y-104929503D01*
X238550587Y-104915963D01*
X237976399Y-105490151D01*
X237976399Y-105489495D01*
X237948704Y-105386134D01*
X237895200Y-105293463D01*
X237819535Y-105217798D01*
X237726864Y-105164294D01*
X237623503Y-105136599D01*
X237622844Y-105136599D01*
X238194560Y-104564883D01*
X238089450Y-104499802D01*
X237888912Y-104422113D01*
X237677530Y-104382599D01*
X237462467Y-104382599D01*
X237251085Y-104422113D01*
X237050547Y-104499802D01*
X236945436Y-104564883D01*
X237517152Y-105136599D01*
X237516495Y-105136599D01*
X237413134Y-105164294D01*
X237320463Y-105217798D01*
X237244798Y-105293463D01*
X237191294Y-105386134D01*
X237163599Y-105489495D01*
X237163599Y-105490151D01*
X236589410Y-104915962D01*
X236589409Y-104915963D01*
X236579182Y-104929506D01*
X236483323Y-105122017D01*
X236424471Y-105328858D01*
X236424469Y-105328870D01*
X236404628Y-105542994D01*
X236404628Y-105543003D01*
X236412535Y-105628341D01*
X236398385Y-105674035D01*
X236356068Y-105696340D01*
X236337307Y-105695241D01*
X236275485Y-105682100D01*
X236094517Y-105682100D01*
X235917506Y-105719725D01*
X235917499Y-105719727D01*
X235752173Y-105793335D01*
X235752172Y-105793336D01*
X235739830Y-105802303D01*
X235693316Y-105813468D01*
X235652531Y-105788472D01*
X235641366Y-105741958D01*
X235643651Y-105732436D01*
X235646726Y-105722976D01*
X235665642Y-105542999D01*
X235646726Y-105363022D01*
X235590803Y-105190911D01*
X235500319Y-105034187D01*
X235379228Y-104899702D01*
X235379228Y-104899701D01*
X235232826Y-104793334D01*
X235232823Y-104793332D01*
X235232821Y-104793331D01*
X235108596Y-104738023D01*
X235067501Y-104719726D01*
X235067498Y-104719725D01*
X235067496Y-104719724D01*
X235067494Y-104719724D01*
X234890484Y-104682099D01*
X234709516Y-104682099D01*
X234532505Y-104719724D01*
X234532498Y-104719726D01*
X234440681Y-104760606D01*
X234367179Y-104793331D01*
X234367177Y-104793331D01*
X234367173Y-104793334D01*
X234220771Y-104899701D01*
X234220771Y-104899702D01*
X234099680Y-105034188D01*
X234059666Y-105103495D01*
X234010044Y-105189445D01*
X234009195Y-105190915D01*
X233953274Y-105363019D01*
X233953274Y-105363022D01*
X233934358Y-105542999D01*
X233952932Y-105719726D01*
X233953275Y-105722981D01*
X233956343Y-105732424D01*
X233952589Y-105780112D01*
X233916214Y-105811177D01*
X233868526Y-105807423D01*
X233860166Y-105802300D01*
X233847826Y-105793334D01*
X233846031Y-105792535D01*
X233752576Y-105750926D01*
X233682502Y-105719727D01*
X233682499Y-105719726D01*
X233682497Y-105719725D01*
X233682495Y-105719725D01*
X233505485Y-105682100D01*
X233400703Y-105682100D01*
X233356509Y-105663794D01*
X233338203Y-105619600D01*
X233356509Y-105575406D01*
X235057373Y-103874542D01*
X237280460Y-101651456D01*
X237290554Y-101633972D01*
X237320021Y-101582934D01*
X237340500Y-101506507D01*
X237340500Y-90410438D01*
X237339623Y-90407164D01*
X237339174Y-90405487D01*
X237339174Y-90405486D01*
X237326851Y-90359500D01*
X237320022Y-90334012D01*
X237311660Y-90319529D01*
X237280462Y-90265492D01*
X237280455Y-90265483D01*
X236744516Y-89729544D01*
X236744510Y-89729539D01*
X236731699Y-89722142D01*
X236731699Y-89722143D01*
X236675989Y-89689979D01*
X236675986Y-89689978D01*
X236599567Y-89669500D01*
X236599562Y-89669500D01*
X235445438Y-89669500D01*
X235445432Y-89669500D01*
X235369013Y-89689978D01*
X235369011Y-89689979D01*
X235313301Y-89722143D01*
X235313300Y-89722142D01*
X235300489Y-89729539D01*
X235300483Y-89729544D01*
X235211713Y-89818316D01*
X235200489Y-89829540D01*
X235183989Y-89846040D01*
X235144541Y-89885487D01*
X235104978Y-89954011D01*
X235104978Y-89954013D01*
X235084412Y-90030763D01*
X235055291Y-90068713D01*
X235011849Y-90075885D01*
X234979748Y-90069500D01*
X234490252Y-90069500D01*
X234431769Y-90081133D01*
X234431768Y-90081133D01*
X234425732Y-90082334D01*
X234425317Y-90080248D01*
X234394683Y-90080248D01*
X234394268Y-90082334D01*
X234388231Y-90081133D01*
X234329748Y-90069500D01*
X233840252Y-90069500D01*
X233810193Y-90075479D01*
X233763277Y-90066147D01*
X233736701Y-90026373D01*
X233735500Y-90014180D01*
X233735500Y-85033390D01*
X233735499Y-85033384D01*
X233729788Y-85012073D01*
X233720781Y-84978457D01*
X233720780Y-84978455D01*
X233718861Y-84971292D01*
X233715022Y-84956963D01*
X233697750Y-84927048D01*
X233675462Y-84888443D01*
X233675455Y-84888434D01*
X232103652Y-83316632D01*
X232085346Y-83272438D01*
X232085981Y-83263553D01*
X232091672Y-83223976D01*
X232071190Y-83081519D01*
X232011402Y-82950603D01*
X232011401Y-82950601D01*
X231917153Y-82841833D01*
X231892294Y-82825857D01*
X231796078Y-82764023D01*
X231796076Y-82764022D01*
X231796074Y-82764021D01*
X231657988Y-82723476D01*
X231657986Y-82723476D01*
X231514064Y-82723476D01*
X231514062Y-82723476D01*
X231375975Y-82764021D01*
X231375972Y-82764023D01*
X231332813Y-82791759D01*
X231285739Y-82800252D01*
X231246446Y-82772970D01*
X231236525Y-82739180D01*
X231236525Y-82496388D01*
X231236524Y-82496382D01*
X231223437Y-82447543D01*
X231216046Y-82419961D01*
X231176485Y-82351439D01*
X231120536Y-82295490D01*
X230897240Y-82072194D01*
X230878934Y-82028000D01*
X230897240Y-81983806D01*
X230941434Y-81965500D01*
X230956994Y-81965500D01*
X231001188Y-81983806D01*
X231004216Y-81987057D01*
X231073610Y-82067143D01*
X231194685Y-82144953D01*
X231194687Y-82144953D01*
X231194688Y-82144954D01*
X231203359Y-82147500D01*
X231331009Y-82184981D01*
X231332774Y-82185499D01*
X231332776Y-82185500D01*
X231332777Y-82185500D01*
X231476700Y-82185500D01*
X231476700Y-82185499D01*
X231614791Y-82144953D01*
X231735866Y-82067143D01*
X231830115Y-81958373D01*
X231889903Y-81827457D01*
X231910385Y-81685000D01*
X231889903Y-81542543D01*
X231830115Y-81411627D01*
X231830114Y-81411625D01*
X231735866Y-81302857D01*
X231692474Y-81274971D01*
X231614791Y-81225047D01*
X231614789Y-81225046D01*
X231614787Y-81225045D01*
X231476701Y-81184500D01*
X231476699Y-81184500D01*
X231332777Y-81184500D01*
X231332775Y-81184500D01*
X231194686Y-81225046D01*
X231194685Y-81225046D01*
X231073611Y-81302855D01*
X231073609Y-81302857D01*
X231038887Y-81342929D01*
X230996111Y-81364341D01*
X230991653Y-81364500D01*
X230781120Y-81364500D01*
X230736926Y-81346194D01*
X230563927Y-81173195D01*
X230547751Y-81145178D01*
X230541165Y-81120599D01*
X230530021Y-81079011D01*
X230490460Y-81010489D01*
X230490458Y-81010487D01*
X230490455Y-81010483D01*
X230434516Y-80954544D01*
X230434512Y-80954541D01*
X230434511Y-80954540D01*
X230365989Y-80914979D01*
X230365988Y-80914978D01*
X230365987Y-80914978D01*
X230287348Y-80893906D01*
X230249398Y-80864785D01*
X230242226Y-80821342D01*
X230246135Y-80801694D01*
X230250500Y-80779748D01*
X230250500Y-80340252D01*
X230238867Y-80281769D01*
X230238866Y-80281767D01*
X230194552Y-80215447D01*
X230128232Y-80171133D01*
X230128230Y-80171132D01*
X230069748Y-80159500D01*
X228830252Y-80159500D01*
X228771769Y-80171132D01*
X228771767Y-80171133D01*
X228705447Y-80215447D01*
X228661133Y-80281767D01*
X228661132Y-80281769D01*
X228649500Y-80340251D01*
X228649500Y-80779748D01*
X228661132Y-80838230D01*
X228661133Y-80838231D01*
X228664171Y-80842778D01*
X228673502Y-80889694D01*
X228664171Y-80912222D01*
X228661133Y-80916768D01*
X228661132Y-80916769D01*
X228649500Y-80975251D01*
X228649500Y-81414748D01*
X228661132Y-81473230D01*
X228661133Y-81473231D01*
X228664171Y-81477778D01*
X228673502Y-81524694D01*
X228664171Y-81547222D01*
X228661133Y-81551768D01*
X228661132Y-81551769D01*
X228649500Y-81610251D01*
X228649500Y-82049748D01*
X228661132Y-82108230D01*
X228661133Y-82108231D01*
X228664171Y-82112778D01*
X228673502Y-82159694D01*
X228664171Y-82182222D01*
X228661133Y-82186768D01*
X228660228Y-82191319D01*
X228633650Y-82231091D01*
X228586733Y-82240422D01*
X228551695Y-82220052D01*
X228541127Y-82207856D01*
X228541126Y-82207855D01*
X228420051Y-82130046D01*
X228281963Y-82089500D01*
X228281961Y-82089500D01*
X228138039Y-82089500D01*
X228138037Y-82089500D01*
X227999950Y-82130045D01*
X227878871Y-82207857D01*
X227784623Y-82316625D01*
X227784623Y-82316627D01*
X227724834Y-82447544D01*
X227704353Y-82590000D01*
X227724834Y-82732455D01*
X227724835Y-82732457D01*
X227780607Y-82854580D01*
X227784623Y-82863372D01*
X227784623Y-82863374D01*
X227870516Y-82962500D01*
X227878872Y-82972143D01*
X227999947Y-83049953D01*
X227999949Y-83049953D01*
X227999950Y-83049954D01*
X228065071Y-83069075D01*
X228110895Y-83082530D01*
X228138036Y-83090499D01*
X228138038Y-83090500D01*
X228138039Y-83090500D01*
X228281962Y-83090500D01*
X228281962Y-83090499D01*
X228420053Y-83049953D01*
X228541128Y-82972143D01*
X228578442Y-82929079D01*
X228584949Y-82921571D01*
X228627724Y-82900159D01*
X228632183Y-82900000D01*
X229587500Y-82900000D01*
X229631694Y-82918306D01*
X229650000Y-82962500D01*
X229650000Y-83237500D01*
X229631694Y-83281694D01*
X229587500Y-83300000D01*
X228350000Y-83300000D01*
X228350000Y-83347835D01*
X228356402Y-83407377D01*
X228406647Y-83542091D01*
X228406649Y-83542094D01*
X228492808Y-83657186D01*
X228492809Y-83657187D01*
X228607910Y-83743352D01*
X228608832Y-83743696D01*
X228609249Y-83744084D01*
X228611836Y-83745497D01*
X228611475Y-83746156D01*
X228643848Y-83776287D01*
X228649500Y-83802259D01*
X228649500Y-83954748D01*
X228661132Y-84013230D01*
X228661133Y-84013231D01*
X228664171Y-84017778D01*
X228673502Y-84064694D01*
X228664171Y-84087222D01*
X228661133Y-84091768D01*
X228661132Y-84091769D01*
X228649500Y-84150251D01*
X228649500Y-84589748D01*
X228657468Y-84629807D01*
X228648136Y-84676723D01*
X228608362Y-84703299D01*
X228596169Y-84704500D01*
X227705359Y-84704500D01*
X227661165Y-84686194D01*
X225199511Y-82224540D01*
X225164821Y-82204512D01*
X225164821Y-82204511D01*
X225130994Y-82184981D01*
X225130989Y-82184979D01*
X225085577Y-82172810D01*
X225047627Y-82143689D01*
X225040455Y-82100247D01*
X225050500Y-82049748D01*
X225050500Y-81610252D01*
X225042024Y-81567639D01*
X225040642Y-81560690D01*
X225049974Y-81513773D01*
X225089748Y-81487198D01*
X225101941Y-81485997D01*
X225434255Y-81485997D01*
X225478449Y-81504303D01*
X225481489Y-81507568D01*
X225533541Y-81567640D01*
X225533543Y-81567641D01*
X225568315Y-81589987D01*
X225654617Y-81645450D01*
X225792706Y-81685996D01*
X225792708Y-81685997D01*
X225792709Y-81685997D01*
X225936632Y-81685997D01*
X225936632Y-81685996D01*
X226074723Y-81645450D01*
X226195798Y-81567640D01*
X226290047Y-81458870D01*
X226349835Y-81327954D01*
X226370317Y-81185497D01*
X226349835Y-81043040D01*
X226290047Y-80912124D01*
X226290046Y-80912122D01*
X226195798Y-80803354D01*
X226159066Y-80779748D01*
X226074723Y-80725544D01*
X226074721Y-80725543D01*
X226074719Y-80725542D01*
X225936633Y-80684997D01*
X225936631Y-80684997D01*
X225826948Y-80684997D01*
X225782754Y-80666691D01*
X225764448Y-80622497D01*
X225765084Y-80613602D01*
X225767289Y-80598266D01*
X225769275Y-80584455D01*
X225748793Y-80441998D01*
X225689005Y-80311082D01*
X225689004Y-80311080D01*
X225594756Y-80202312D01*
X225552639Y-80175245D01*
X225473681Y-80124502D01*
X225473679Y-80124501D01*
X225473677Y-80124500D01*
X225335591Y-80083955D01*
X225335589Y-80083955D01*
X225191667Y-80083955D01*
X225191665Y-80083955D01*
X225053576Y-80124501D01*
X224987829Y-80166753D01*
X224940754Y-80175245D01*
X224930122Y-80171916D01*
X224928232Y-80171133D01*
X224869748Y-80159500D01*
X223630252Y-80159500D01*
X223571769Y-80171132D01*
X223571767Y-80171133D01*
X223505447Y-80215447D01*
X223461133Y-80281767D01*
X223461132Y-80281769D01*
X223449500Y-80340251D01*
X223449500Y-80714014D01*
X223431194Y-80758208D01*
X223387000Y-80776514D01*
X223342806Y-80758208D01*
X223242877Y-80658279D01*
X223103697Y-80575969D01*
X223103696Y-80575968D01*
X222977216Y-80539222D01*
X222939884Y-80509313D01*
X222934635Y-80461767D01*
X222950456Y-80435013D01*
X223960460Y-79425011D01*
X223969400Y-79409526D01*
X224000021Y-79356489D01*
X224020500Y-79280062D01*
X224020500Y-77640000D01*
X227080069Y-77640000D01*
X227082832Y-77675119D01*
X227082832Y-77675124D01*
X227127594Y-77829194D01*
X227127595Y-77829195D01*
X227209262Y-77967288D01*
X227322711Y-78080737D01*
X227460804Y-78162404D01*
X227460805Y-78162405D01*
X227599999Y-78202844D01*
X227600000Y-78202844D01*
X227600000Y-77640000D01*
X227080069Y-77640000D01*
X224020500Y-77640000D01*
X224020500Y-77140000D01*
X227080068Y-77140000D01*
X227600000Y-77140000D01*
X227600000Y-76577154D01*
X227599999Y-76577153D01*
X227460805Y-76617594D01*
X227460804Y-76617595D01*
X227322711Y-76699262D01*
X227322710Y-76699264D01*
X227209264Y-76812710D01*
X227209262Y-76812711D01*
X227127595Y-76950804D01*
X227127594Y-76950805D01*
X227082832Y-77104875D01*
X227082832Y-77104880D01*
X227080068Y-77140000D01*
X224020500Y-77140000D01*
X224020500Y-76428000D01*
X224038806Y-76383806D01*
X224083000Y-76365500D01*
X229722506Y-76365500D01*
X229766700Y-76383806D01*
X229785006Y-76428000D01*
X229766700Y-76472194D01*
X229300876Y-76938018D01*
X229256682Y-76956324D01*
X229212488Y-76938018D01*
X229200406Y-76925936D01*
X229093172Y-76875931D01*
X229044322Y-76869500D01*
X229044316Y-76869500D01*
X228695684Y-76869500D01*
X228695679Y-76869500D01*
X228646827Y-76875931D01*
X228605143Y-76895368D01*
X228557353Y-76897453D01*
X228524934Y-76870538D01*
X228490734Y-76812708D01*
X228377288Y-76699262D01*
X228239195Y-76617595D01*
X228239194Y-76617594D01*
X228100000Y-76577153D01*
X228100000Y-78202844D01*
X228239194Y-78162405D01*
X228239195Y-78162404D01*
X228377288Y-78080737D01*
X228377290Y-78080736D01*
X228490734Y-77967291D01*
X228524934Y-77909461D01*
X228563187Y-77880739D01*
X228605144Y-77884630D01*
X228646827Y-77904068D01*
X228695684Y-77910500D01*
X228695690Y-77910500D01*
X229044310Y-77910500D01*
X229044316Y-77910500D01*
X229093173Y-77904068D01*
X229200404Y-77854065D01*
X229284065Y-77770404D01*
X229310135Y-77714494D01*
X229345401Y-77682178D01*
X229350584Y-77680543D01*
X229389855Y-77670021D01*
X229458377Y-77630460D01*
X229514326Y-77574511D01*
X230337019Y-76751817D01*
X230381210Y-76733513D01*
X230425404Y-76751819D01*
X230441228Y-76778576D01*
X230457968Y-76836196D01*
X230457969Y-76836197D01*
X230540279Y-76975377D01*
X230654622Y-77089720D01*
X230793802Y-77172030D01*
X230793803Y-77172031D01*
X230939999Y-77214505D01*
X230940000Y-77214504D01*
X230940000Y-76222500D01*
X230958306Y-76178306D01*
X231002500Y-76160000D01*
X231377500Y-76160000D01*
X231421694Y-76178306D01*
X231440000Y-76222500D01*
X231440000Y-77045993D01*
X231421694Y-77090187D01*
X231405875Y-77101680D01*
X231336659Y-77136948D01*
X231246950Y-77226657D01*
X231189354Y-77339694D01*
X231189352Y-77339701D01*
X231174501Y-77433467D01*
X231174500Y-77433483D01*
X231174500Y-77896514D01*
X231174501Y-77896519D01*
X231189354Y-77990304D01*
X231189354Y-77990305D01*
X231246950Y-78103342D01*
X231336658Y-78193050D01*
X231343061Y-78196313D01*
X231374126Y-78232688D01*
X231370372Y-78280376D01*
X231333997Y-78311441D01*
X231314685Y-78314500D01*
X228574390Y-78314500D01*
X228497971Y-78334978D01*
X228497969Y-78334978D01*
X228429445Y-78374541D01*
X227453313Y-79350673D01*
X227409119Y-79368979D01*
X227287516Y-79368979D01*
X227149429Y-79409524D01*
X227028350Y-79487336D01*
X226934102Y-79596104D01*
X226934102Y-79596106D01*
X226874313Y-79727023D01*
X226853832Y-79869479D01*
X226874313Y-80011934D01*
X226874314Y-80011936D01*
X226925721Y-80124501D01*
X226934102Y-80142851D01*
X226934102Y-80142853D01*
X226981149Y-80197148D01*
X227028351Y-80251622D01*
X227149426Y-80329432D01*
X227149428Y-80329432D01*
X227149429Y-80329433D01*
X227287515Y-80369978D01*
X227287517Y-80369979D01*
X227397201Y-80369979D01*
X227441395Y-80388285D01*
X227459701Y-80432479D01*
X227459065Y-80441366D01*
X227458975Y-80441998D01*
X227454874Y-80470521D01*
X227475355Y-80612976D01*
X227475356Y-80612978D01*
X227508246Y-80684997D01*
X227535144Y-80743893D01*
X227535144Y-80743895D01*
X227606746Y-80826528D01*
X227629393Y-80852664D01*
X227750468Y-80930474D01*
X227750470Y-80930474D01*
X227750471Y-80930475D01*
X227888557Y-80971020D01*
X227888559Y-80971021D01*
X227888560Y-80971021D01*
X228032483Y-80971021D01*
X228032483Y-80971020D01*
X228170574Y-80930474D01*
X228291649Y-80852664D01*
X228385898Y-80743894D01*
X228445686Y-80612978D01*
X228466168Y-80470521D01*
X228445686Y-80328064D01*
X228400827Y-80229839D01*
X228399121Y-80182036D01*
X228413484Y-80159685D01*
X228939365Y-79633806D01*
X228983559Y-79615500D01*
X231138416Y-79615500D01*
X231182610Y-79633806D01*
X231194104Y-79649626D01*
X231233539Y-79727023D01*
X231246950Y-79753342D01*
X231336658Y-79843050D01*
X231449696Y-79900646D01*
X231449699Y-79900646D01*
X231449701Y-79900647D01*
X231543467Y-79915498D01*
X231543469Y-79915498D01*
X231543481Y-79915500D01*
X232156518Y-79915499D01*
X232250304Y-79900646D01*
X232363342Y-79843050D01*
X232453050Y-79753342D01*
X232510646Y-79640304D01*
X232525500Y-79546519D01*
X232525499Y-79086357D01*
X232543805Y-79042164D01*
X232587999Y-79023858D01*
X232632193Y-79042164D01*
X232636194Y-79046165D01*
X232654500Y-79090359D01*
X232654500Y-79546514D01*
X232654501Y-79546519D01*
X232669354Y-79640304D01*
X232669354Y-79640305D01*
X232713539Y-79727022D01*
X232726950Y-79753342D01*
X232816658Y-79843050D01*
X232929696Y-79900646D01*
X232929699Y-79900646D01*
X232929701Y-79900647D01*
X233023467Y-79915498D01*
X233023469Y-79915498D01*
X233023481Y-79915500D01*
X233636518Y-79915499D01*
X233730304Y-79900646D01*
X233843342Y-79843050D01*
X233933050Y-79753342D01*
X233990646Y-79640304D01*
X234005500Y-79546519D01*
X234005499Y-79083482D01*
X233990646Y-78989696D01*
X233933050Y-78876658D01*
X233843342Y-78786950D01*
X233827123Y-78778686D01*
X233730305Y-78729354D01*
X233730298Y-78729352D01*
X233636532Y-78714501D01*
X233636520Y-78714500D01*
X233636519Y-78714500D01*
X233636517Y-78714500D01*
X233180359Y-78714500D01*
X233136165Y-78696194D01*
X232814516Y-78374544D01*
X232814512Y-78374541D01*
X232814511Y-78374540D01*
X232745989Y-78334979D01*
X232745988Y-78334978D01*
X232745987Y-78334978D01*
X232669567Y-78314500D01*
X232669562Y-78314500D01*
X232385315Y-78314500D01*
X232341121Y-78296194D01*
X232322815Y-78252000D01*
X232341121Y-78207806D01*
X232356939Y-78196313D01*
X232360089Y-78194707D01*
X232363342Y-78193050D01*
X232453050Y-78103342D01*
X232510646Y-77990304D01*
X232514291Y-77967288D01*
X232525498Y-77896532D01*
X232525498Y-77896531D01*
X232525500Y-77896519D01*
X232525499Y-77433482D01*
X232510646Y-77339696D01*
X232453050Y-77226658D01*
X232363342Y-77136950D01*
X232363341Y-77136949D01*
X232259255Y-77083915D01*
X232228188Y-77047541D01*
X232231941Y-76999853D01*
X232243432Y-76984036D01*
X232288729Y-76938739D01*
X232327902Y-76920994D01*
X232327872Y-76920765D01*
X232328628Y-76920665D01*
X232328846Y-76920567D01*
X232329884Y-76920499D01*
X232329900Y-76920499D01*
X232379487Y-76913972D01*
X232488316Y-76863224D01*
X232535806Y-76815733D01*
X232579999Y-76797428D01*
X232624192Y-76815732D01*
X232671684Y-76863224D01*
X232780513Y-76913972D01*
X232830099Y-76920500D01*
X232847139Y-76920499D01*
X232891333Y-76938803D01*
X232936563Y-76984033D01*
X232954869Y-77028227D01*
X232936563Y-77072421D01*
X232920744Y-77083915D01*
X232816657Y-77136950D01*
X232726950Y-77226657D01*
X232669354Y-77339694D01*
X232669352Y-77339701D01*
X232654501Y-77433467D01*
X232654500Y-77433483D01*
X232654500Y-77896514D01*
X232654501Y-77896519D01*
X232669354Y-77990304D01*
X232669354Y-77990305D01*
X232714397Y-78078705D01*
X232726950Y-78103342D01*
X232816658Y-78193050D01*
X232929696Y-78250646D01*
X232929699Y-78250646D01*
X232929701Y-78250647D01*
X233023467Y-78265498D01*
X233023469Y-78265498D01*
X233023481Y-78265500D01*
X233636518Y-78265499D01*
X233730304Y-78250646D01*
X233843342Y-78193050D01*
X233933050Y-78103342D01*
X233990646Y-77990304D01*
X233994291Y-77967288D01*
X234005498Y-77896532D01*
X234005498Y-77896531D01*
X234005500Y-77896519D01*
X234005499Y-77433482D01*
X233990646Y-77339696D01*
X233975959Y-77310873D01*
X233972207Y-77263186D01*
X234003273Y-77226811D01*
X234031648Y-77219999D01*
X234174644Y-77219999D01*
X234174647Y-77219998D01*
X234210911Y-77217145D01*
X234366196Y-77172031D01*
X234366197Y-77172030D01*
X234505377Y-77089720D01*
X234505379Y-77089719D01*
X234619719Y-76975379D01*
X234619720Y-76975377D01*
X234702030Y-76836197D01*
X234702031Y-76836196D01*
X234747145Y-76680913D01*
X234747145Y-76680908D01*
X234748791Y-76660000D01*
X233782500Y-76660000D01*
X233738306Y-76641694D01*
X233720000Y-76597500D01*
X233720000Y-76222500D01*
X233738306Y-76178306D01*
X233782500Y-76160000D01*
X234599141Y-76160000D01*
X234643335Y-76178306D01*
X235701194Y-77236165D01*
X235719500Y-77280358D01*
X235719500Y-77329891D01*
X235719500Y-77329892D01*
X235719501Y-77329900D01*
X235726028Y-77379487D01*
X235751206Y-77433480D01*
X235776777Y-77488318D01*
X235861681Y-77573222D01*
X235861682Y-77573222D01*
X235861684Y-77573224D01*
X235970513Y-77623972D01*
X236020099Y-77630500D01*
X236379900Y-77630499D01*
X236429487Y-77623972D01*
X236429489Y-77623971D01*
X236429816Y-77623928D01*
X236476021Y-77636309D01*
X236491769Y-77654078D01*
X236510279Y-77685377D01*
X236624622Y-77799720D01*
X236763802Y-77882030D01*
X236763803Y-77882031D01*
X236909999Y-77924505D01*
X237410000Y-77924505D01*
X237556196Y-77882031D01*
X237556197Y-77882030D01*
X237695377Y-77799720D01*
X237695379Y-77799719D01*
X237809719Y-77685379D01*
X237809720Y-77685377D01*
X237892030Y-77546197D01*
X237892031Y-77546196D01*
X237937145Y-77390913D01*
X237937145Y-77390908D01*
X237938791Y-77370000D01*
X237410000Y-77370000D01*
X237410000Y-77924505D01*
X236909999Y-77924505D01*
X236910000Y-77924504D01*
X236910000Y-76870000D01*
X237410000Y-76870000D01*
X237938789Y-76870000D01*
X237937143Y-76849078D01*
X237892031Y-76693803D01*
X237892030Y-76693802D01*
X237809720Y-76554622D01*
X237695377Y-76440279D01*
X237556197Y-76357969D01*
X237556196Y-76357968D01*
X237410000Y-76315493D01*
X237410000Y-76870000D01*
X236910000Y-76870000D01*
X236910000Y-76315494D01*
X236909999Y-76315493D01*
X236763803Y-76357968D01*
X236763802Y-76357969D01*
X236624622Y-76440279D01*
X236624621Y-76440281D01*
X236510283Y-76554618D01*
X236491770Y-76585922D01*
X236453516Y-76614643D01*
X236429817Y-76616071D01*
X236379901Y-76609500D01*
X236020108Y-76609500D01*
X236020103Y-76609500D01*
X236020100Y-76609501D01*
X235988979Y-76613597D01*
X235966150Y-76616602D01*
X235919945Y-76604219D01*
X235913801Y-76598830D01*
X234892627Y-75577656D01*
X234874321Y-75533462D01*
X234874956Y-75524577D01*
X234880647Y-75485000D01*
X234860165Y-75342543D01*
X234800377Y-75211627D01*
X234800376Y-75211625D01*
X234706126Y-75102855D01*
X234659637Y-75072979D01*
X234633693Y-75056306D01*
X234606411Y-75017014D01*
X234614904Y-74969939D01*
X234654197Y-74942656D01*
X234679676Y-74942429D01*
X234683097Y-74943109D01*
X234720252Y-74950500D01*
X234737741Y-74950500D01*
X234781935Y-74968806D01*
X234794409Y-74988216D01*
X234794504Y-74988165D01*
X234795229Y-74989493D01*
X234796301Y-74991161D01*
X234796646Y-74992087D01*
X234882813Y-75107191D01*
X234997905Y-75193350D01*
X234997908Y-75193352D01*
X235132622Y-75243597D01*
X235192164Y-75249999D01*
X235192178Y-75250000D01*
X235240000Y-75250000D01*
X235240000Y-74777896D01*
X235240301Y-74771770D01*
X235240500Y-74769749D01*
X235240500Y-74435190D01*
X235258806Y-74390996D01*
X235303000Y-74372690D01*
X235347194Y-74390996D01*
X235354967Y-74400468D01*
X235368207Y-74420284D01*
X235368212Y-74420290D01*
X235479709Y-74531787D01*
X235479715Y-74531792D01*
X235512222Y-74553512D01*
X235538799Y-74593285D01*
X235540000Y-74605479D01*
X235540000Y-75250000D01*
X235587822Y-75250000D01*
X235587835Y-75249999D01*
X235647377Y-75243597D01*
X235782091Y-75193352D01*
X235782094Y-75193350D01*
X235897186Y-75107191D01*
X235897191Y-75107186D01*
X235983350Y-74992094D01*
X235983352Y-74992091D01*
X236033597Y-74857377D01*
X236039999Y-74797835D01*
X236040000Y-74797822D01*
X236040000Y-74773000D01*
X236058306Y-74728806D01*
X236102500Y-74710500D01*
X237118842Y-74710500D01*
X237273497Y-74679737D01*
X237419179Y-74619394D01*
X237550289Y-74531789D01*
X237661789Y-74420289D01*
X237749394Y-74289179D01*
X237809737Y-74143497D01*
X237840500Y-73988842D01*
X237840500Y-73910000D01*
X237840500Y-73844108D01*
X237840500Y-72773000D01*
X237858806Y-72728806D01*
X237903000Y-72710500D01*
X244077000Y-72710500D01*
X244121194Y-72728806D01*
G37*
%TD.AperFunction*%
%TA.AperFunction,Conductor*%
G36*
X231831768Y-99358866D02*
G01*
X231831769Y-99358867D01*
X231890252Y-99370500D01*
X232068717Y-99370500D01*
X232112911Y-99388806D01*
X232131217Y-99433000D01*
X232112911Y-99477194D01*
X229075489Y-102514616D01*
X229047515Y-102542590D01*
X229019541Y-102570563D01*
X228979978Y-102639087D01*
X228979978Y-102639089D01*
X228959500Y-102715508D01*
X228959500Y-104693829D01*
X228941194Y-104738023D01*
X228922422Y-104750925D01*
X228827177Y-104793332D01*
X228827174Y-104793333D01*
X228680771Y-104899701D01*
X228680771Y-104899702D01*
X228559680Y-105034188D01*
X228519666Y-105103495D01*
X228470044Y-105189445D01*
X228469195Y-105190915D01*
X228413274Y-105363019D01*
X228394358Y-105542999D01*
X228413274Y-105722978D01*
X228416343Y-105732421D01*
X228412590Y-105780109D01*
X228376216Y-105811176D01*
X228328528Y-105807423D01*
X228320166Y-105802299D01*
X228307825Y-105793333D01*
X228212580Y-105750926D01*
X228179653Y-105716227D01*
X228175502Y-105693830D01*
X228175502Y-104075440D01*
X228175501Y-104075434D01*
X228164618Y-104034824D01*
X228155023Y-103999013D01*
X228115462Y-103930491D01*
X228059513Y-103874542D01*
X227268806Y-103083835D01*
X227250500Y-103039641D01*
X227250500Y-101670574D01*
X227268806Y-101626380D01*
X227313000Y-101608074D01*
X227357194Y-101626380D01*
X227366796Y-101638759D01*
X227400279Y-101695377D01*
X227514622Y-101809720D01*
X227653802Y-101892030D01*
X227653803Y-101892031D01*
X227799999Y-101934505D01*
X227800000Y-101934504D01*
X227800000Y-100942500D01*
X227818306Y-100898306D01*
X227862500Y-100880000D01*
X228237500Y-100880000D01*
X228281694Y-100898306D01*
X228300000Y-100942500D01*
X228300000Y-101934505D01*
X228446196Y-101892031D01*
X228446197Y-101892030D01*
X228585377Y-101809720D01*
X228585379Y-101809719D01*
X228699719Y-101695379D01*
X228699720Y-101695377D01*
X228718228Y-101664080D01*
X228756480Y-101635357D01*
X228780183Y-101633928D01*
X228780511Y-101633971D01*
X228780513Y-101633972D01*
X228830099Y-101640500D01*
X229189900Y-101640499D01*
X229239487Y-101633972D01*
X229348316Y-101583224D01*
X229433224Y-101498316D01*
X229483972Y-101389487D01*
X229490500Y-101339901D01*
X229490499Y-100920100D01*
X229483972Y-100870513D01*
X229476356Y-100854180D01*
X229470500Y-100827767D01*
X229470500Y-99630438D01*
X229470499Y-99630432D01*
X229454174Y-99569511D01*
X229450021Y-99554011D01*
X229410460Y-99485489D01*
X229410458Y-99485487D01*
X229410455Y-99485483D01*
X229402166Y-99477194D01*
X229383860Y-99433000D01*
X229402166Y-99388806D01*
X229446360Y-99370500D01*
X229779748Y-99370500D01*
X229838231Y-99358867D01*
X229838231Y-99358866D01*
X229844269Y-99357666D01*
X229844685Y-99359758D01*
X229875315Y-99359754D01*
X229875731Y-99357666D01*
X229881768Y-99358866D01*
X229881769Y-99358867D01*
X229940252Y-99370500D01*
X230429748Y-99370500D01*
X230488231Y-99358867D01*
X230488231Y-99358866D01*
X230494269Y-99357666D01*
X230494685Y-99359758D01*
X230525315Y-99359754D01*
X230525731Y-99357666D01*
X230531768Y-99358866D01*
X230531769Y-99358867D01*
X230590252Y-99370500D01*
X231079748Y-99370500D01*
X231138231Y-99358867D01*
X231138231Y-99358866D01*
X231144269Y-99357666D01*
X231144685Y-99359758D01*
X231175315Y-99359754D01*
X231175731Y-99357666D01*
X231181768Y-99358866D01*
X231181769Y-99358867D01*
X231240252Y-99370500D01*
X231729748Y-99370500D01*
X231788231Y-99358867D01*
X231788231Y-99358866D01*
X231794269Y-99357666D01*
X231794685Y-99359758D01*
X231825315Y-99359754D01*
X231825731Y-99357666D01*
X231831768Y-99358866D01*
G37*
%TD.AperFunction*%
%TA.AperFunction,Conductor*%
G36*
X225404168Y-83284712D02*
G01*
X225422399Y-83297370D01*
X227314540Y-85189511D01*
X227370489Y-85245460D01*
X227439011Y-85285021D01*
X227449289Y-85287775D01*
X227515432Y-85305499D01*
X227515438Y-85305500D01*
X227594562Y-85305500D01*
X228021334Y-85305500D01*
X228065528Y-85323806D01*
X228083834Y-85368000D01*
X228078186Y-85393964D01*
X228024031Y-85512544D01*
X228003550Y-85655000D01*
X228024031Y-85797455D01*
X228024032Y-85797457D01*
X228081263Y-85922775D01*
X228083820Y-85928372D01*
X228083820Y-85928374D01*
X228178068Y-86037142D01*
X228178069Y-86037143D01*
X228299144Y-86114953D01*
X228299146Y-86114953D01*
X228299147Y-86114954D01*
X228437233Y-86155499D01*
X228437235Y-86155500D01*
X228585628Y-86155500D01*
X228585628Y-86157866D01*
X228624429Y-86167748D01*
X228648859Y-86208875D01*
X228649500Y-86217802D01*
X228649500Y-86494748D01*
X228661132Y-86553230D01*
X228661133Y-86553232D01*
X228705447Y-86619552D01*
X228771767Y-86663866D01*
X228771769Y-86663867D01*
X228830252Y-86675500D01*
X229087000Y-86675500D01*
X229131194Y-86693806D01*
X229149500Y-86738000D01*
X229149500Y-86779567D01*
X229169978Y-86855986D01*
X229169980Y-86855992D01*
X229197990Y-86904507D01*
X229209539Y-86924510D01*
X229209544Y-86924516D01*
X229502371Y-87217343D01*
X229520677Y-87261537D01*
X229520041Y-87270430D01*
X229514353Y-87309998D01*
X229514353Y-87309999D01*
X229534834Y-87452455D01*
X229534835Y-87452457D01*
X229575660Y-87541851D01*
X229594623Y-87583372D01*
X229594623Y-87583374D01*
X229688874Y-87692145D01*
X229711288Y-87706549D01*
X229738571Y-87745841D01*
X229740000Y-87759128D01*
X229740000Y-88280000D01*
X230268789Y-88280000D01*
X230267143Y-88259078D01*
X230222031Y-88103803D01*
X230222030Y-88103802D01*
X230139720Y-87964622D01*
X230084225Y-87909127D01*
X230065919Y-87864933D01*
X230084225Y-87820739D01*
X230110810Y-87804965D01*
X230230053Y-87769953D01*
X230351128Y-87692143D01*
X230445377Y-87583373D01*
X230505165Y-87452457D01*
X230525647Y-87310000D01*
X230505165Y-87167543D01*
X230445377Y-87036627D01*
X230445376Y-87036625D01*
X230351128Y-86927857D01*
X230345929Y-86924516D01*
X230230053Y-86850047D01*
X230230051Y-86850046D01*
X230230049Y-86850045D01*
X230091963Y-86809500D01*
X230091961Y-86809500D01*
X229970359Y-86809500D01*
X229926165Y-86791194D01*
X229917165Y-86782194D01*
X229898859Y-86738000D01*
X229917165Y-86693806D01*
X229961359Y-86675500D01*
X230069748Y-86675500D01*
X230128231Y-86663867D01*
X230194552Y-86619552D01*
X230238867Y-86553231D01*
X230250500Y-86494748D01*
X230250500Y-86055252D01*
X230238867Y-85996769D01*
X230235829Y-85992223D01*
X230226497Y-85945309D01*
X230235828Y-85922777D01*
X230238867Y-85918231D01*
X230250500Y-85859748D01*
X230250500Y-85420252D01*
X230238867Y-85361769D01*
X230235829Y-85357223D01*
X230226497Y-85310309D01*
X230235828Y-85287777D01*
X230238867Y-85283231D01*
X230250500Y-85224748D01*
X230250500Y-84785252D01*
X230242532Y-84745193D01*
X230251864Y-84698277D01*
X230291638Y-84671701D01*
X230303831Y-84670500D01*
X230973414Y-84670500D01*
X231017608Y-84688806D01*
X231035278Y-84724105D01*
X231045633Y-84796131D01*
X231045634Y-84796133D01*
X231103049Y-84921854D01*
X231105422Y-84927048D01*
X231105422Y-84927050D01*
X231197561Y-85033384D01*
X231199671Y-85035819D01*
X231320746Y-85113629D01*
X231320748Y-85113629D01*
X231320749Y-85113630D01*
X231458835Y-85154175D01*
X231458837Y-85154176D01*
X231458838Y-85154176D01*
X231602761Y-85154176D01*
X231602761Y-85154175D01*
X231740852Y-85113629D01*
X231861927Y-85035819D01*
X231956176Y-84927049D01*
X231987692Y-84858038D01*
X232022702Y-84825443D01*
X232070507Y-84827150D01*
X232103103Y-84862160D01*
X232107044Y-84884002D01*
X232107044Y-87515962D01*
X232088738Y-87560156D01*
X230933988Y-88714905D01*
X230889794Y-88733211D01*
X230857978Y-88724507D01*
X230796195Y-88687967D01*
X230650000Y-88645493D01*
X230650000Y-90007000D01*
X230631694Y-90051194D01*
X230593108Y-90067176D01*
X230593308Y-90069199D01*
X230590251Y-90069500D01*
X230531769Y-90081132D01*
X230531767Y-90081133D01*
X230465447Y-90125447D01*
X230421133Y-90191767D01*
X230421132Y-90191769D01*
X230409500Y-90250251D01*
X230409500Y-91332500D01*
X230391194Y-91376694D01*
X230347000Y-91395000D01*
X230023000Y-91395000D01*
X229978806Y-91376694D01*
X229960500Y-91332500D01*
X229960500Y-90250253D01*
X229960301Y-90248233D01*
X229960000Y-90242106D01*
X229960000Y-89789500D01*
X229978306Y-89745306D01*
X230022500Y-89727000D01*
X230150000Y-89727000D01*
X230150000Y-88780000D01*
X229302500Y-88780000D01*
X229258306Y-88761694D01*
X229240000Y-88717500D01*
X229240000Y-87725494D01*
X229239999Y-87725493D01*
X229093803Y-87767968D01*
X229093802Y-87767969D01*
X228954622Y-87850279D01*
X228954621Y-87850281D01*
X228840283Y-87964618D01*
X228821770Y-87995922D01*
X228783516Y-88024643D01*
X228759817Y-88026071D01*
X228709901Y-88019500D01*
X228350108Y-88019500D01*
X228350106Y-88019500D01*
X228350100Y-88019501D01*
X228300513Y-88026028D01*
X228300511Y-88026028D01*
X228300510Y-88026029D01*
X228191681Y-88076777D01*
X228106777Y-88161681D01*
X228091980Y-88193414D01*
X228056712Y-88225731D01*
X228035336Y-88229500D01*
X225078359Y-88229500D01*
X225034165Y-88211194D01*
X223668806Y-86845835D01*
X223650500Y-86801641D01*
X223650500Y-86738000D01*
X223668806Y-86693806D01*
X223713000Y-86675500D01*
X224288550Y-86675500D01*
X224304726Y-86677629D01*
X224315438Y-86680500D01*
X225019585Y-86680500D01*
X225063779Y-86698806D01*
X225066819Y-86702071D01*
X225118871Y-86762143D01*
X225118873Y-86762144D01*
X225145984Y-86779567D01*
X225239947Y-86839953D01*
X225378036Y-86880499D01*
X225378038Y-86880500D01*
X225378039Y-86880500D01*
X225521962Y-86880500D01*
X225521962Y-86880499D01*
X225660053Y-86839953D01*
X225781128Y-86762143D01*
X225875377Y-86653373D01*
X225935165Y-86522457D01*
X225955647Y-86380000D01*
X225935165Y-86237543D01*
X225875377Y-86106627D01*
X225875376Y-86106625D01*
X225781128Y-85997857D01*
X225718331Y-85957500D01*
X225660053Y-85920047D01*
X225660051Y-85920046D01*
X225660049Y-85920045D01*
X225521963Y-85879500D01*
X225521961Y-85879500D01*
X225378039Y-85879500D01*
X225378037Y-85879500D01*
X225239949Y-85920046D01*
X225239947Y-85920046D01*
X225239947Y-85920047D01*
X225226990Y-85928374D01*
X225132778Y-85988919D01*
X225085703Y-85997412D01*
X225046410Y-85970129D01*
X225037690Y-85924147D01*
X225038867Y-85918229D01*
X225050500Y-85859748D01*
X225050500Y-85420252D01*
X225042532Y-85380193D01*
X225051864Y-85333277D01*
X225091638Y-85306701D01*
X225103831Y-85305500D01*
X225343438Y-85305500D01*
X225365476Y-85305500D01*
X225383084Y-85308032D01*
X225469062Y-85333277D01*
X225480036Y-85336499D01*
X225480038Y-85336500D01*
X225480039Y-85336500D01*
X225623962Y-85336500D01*
X225623962Y-85336499D01*
X225762053Y-85295953D01*
X225883128Y-85218143D01*
X225977377Y-85109373D01*
X226037165Y-84978457D01*
X226057647Y-84836000D01*
X226037165Y-84693543D01*
X225977377Y-84562627D01*
X225977376Y-84562625D01*
X225883128Y-84453857D01*
X225857301Y-84437259D01*
X225762053Y-84376047D01*
X225762051Y-84376046D01*
X225762049Y-84376045D01*
X225623963Y-84335500D01*
X225623961Y-84335500D01*
X225480039Y-84335500D01*
X225480037Y-84335500D01*
X225341950Y-84376045D01*
X225220871Y-84453857D01*
X225160234Y-84523837D01*
X225117459Y-84545249D01*
X225072071Y-84530142D01*
X225050659Y-84487367D01*
X225050500Y-84482908D01*
X225050500Y-84437259D01*
X225068806Y-84393065D01*
X225088216Y-84380592D01*
X225088164Y-84380497D01*
X225089503Y-84379765D01*
X225091168Y-84378696D01*
X225092089Y-84378352D01*
X225207190Y-84292187D01*
X225207191Y-84292186D01*
X225293350Y-84177094D01*
X225293352Y-84177091D01*
X225343597Y-84042377D01*
X225349999Y-83982835D01*
X225350000Y-83982822D01*
X225350000Y-83935000D01*
X224112500Y-83935000D01*
X224068306Y-83916694D01*
X224050000Y-83872500D01*
X224050000Y-83597500D01*
X224068306Y-83553306D01*
X224112500Y-83535000D01*
X225350000Y-83535000D01*
X225350000Y-83487177D01*
X225349999Y-83487164D01*
X225343597Y-83427622D01*
X225319646Y-83363406D01*
X225321353Y-83315601D01*
X225356363Y-83283005D01*
X225404168Y-83284712D01*
G37*
%TD.AperFunction*%
%TD*%
%TA.AperFunction,NonConductor*%
G36*
X233571194Y-74968806D02*
G01*
X233589500Y-75013000D01*
X233589500Y-75039567D01*
X233609978Y-75115986D01*
X233609979Y-75115989D01*
X233627974Y-75147159D01*
X233641149Y-75169978D01*
X233649539Y-75184510D01*
X233649544Y-75184516D01*
X233857371Y-75392343D01*
X233875677Y-75436537D01*
X233875041Y-75445430D01*
X233869353Y-75484998D01*
X233869353Y-75484999D01*
X233875622Y-75528606D01*
X233863791Y-75574956D01*
X233822652Y-75599364D01*
X233813759Y-75600000D01*
X233765356Y-75600000D01*
X233765352Y-75600001D01*
X233729088Y-75602854D01*
X233573803Y-75647968D01*
X233573802Y-75647969D01*
X233434622Y-75730279D01*
X233434621Y-75730281D01*
X233320283Y-75844618D01*
X233306796Y-75867424D01*
X233268542Y-75896145D01*
X233221184Y-75889404D01*
X233192463Y-75851150D01*
X233190500Y-75835608D01*
X233190500Y-75013000D01*
X233208806Y-74968806D01*
X233253000Y-74950500D01*
X233527000Y-74950500D01*
X233571194Y-74968806D01*
G37*
%TD.AperFunction*%
%TA.AperFunction,NonConductor*%
G36*
X232071194Y-75397851D02*
G01*
X232089500Y-75442045D01*
X232089500Y-75837000D01*
X232071194Y-75881194D01*
X232027001Y-75899500D01*
X231970108Y-75899500D01*
X231970105Y-75899500D01*
X231970100Y-75899501D01*
X231920513Y-75906028D01*
X231920511Y-75906028D01*
X231920182Y-75906072D01*
X231873977Y-75893689D01*
X231858230Y-75875921D01*
X231839720Y-75844622D01*
X231732071Y-75736973D01*
X231713765Y-75692779D01*
X231732070Y-75648586D01*
X231746146Y-75634511D01*
X231982806Y-75397851D01*
X232027000Y-75379545D01*
X232071194Y-75397851D01*
G37*
%TD.AperFunction*%
%TA.AperFunction,NonConductor*%
G36*
X223431194Y-81857792D02*
G01*
X223449500Y-81901986D01*
X223449500Y-82049748D01*
X223457468Y-82089807D01*
X223448136Y-82136723D01*
X223408362Y-82163299D01*
X223396169Y-82164500D01*
X223250499Y-82164500D01*
X223206305Y-82146194D01*
X223187999Y-82102000D01*
X223187999Y-82088108D01*
X223187999Y-82088100D01*
X223181472Y-82038513D01*
X223181471Y-82038511D01*
X223181428Y-82038182D01*
X223193809Y-81991977D01*
X223211580Y-81976228D01*
X223242877Y-81957720D01*
X223242879Y-81957719D01*
X223342806Y-81857792D01*
X223387000Y-81839486D01*
X223431194Y-81857792D01*
G37*
%TD.AperFunction*%
%TA.AperFunction,NonConductor*%
G36*
X232814738Y-84877660D02*
G01*
X233116194Y-85179116D01*
X233134500Y-85223310D01*
X233134500Y-90014180D01*
X233116194Y-90058374D01*
X233072000Y-90076680D01*
X233059807Y-90075479D01*
X233029748Y-90069500D01*
X232540252Y-90069500D01*
X232510193Y-90075479D01*
X232463277Y-90066147D01*
X232436701Y-90026373D01*
X232435500Y-90014180D01*
X232435500Y-89825438D01*
X232435499Y-89825432D01*
X232424616Y-89784822D01*
X232415021Y-89749011D01*
X232375460Y-89680489D01*
X232319511Y-89624540D01*
X232127627Y-89432656D01*
X232109321Y-89388462D01*
X232109956Y-89379577D01*
X232115647Y-89340000D01*
X232095165Y-89197543D01*
X232035377Y-89066627D01*
X232035376Y-89066625D01*
X231941128Y-88957857D01*
X231840208Y-88893000D01*
X231820053Y-88880047D01*
X231820051Y-88880046D01*
X231820049Y-88880045D01*
X231765543Y-88864041D01*
X231728296Y-88834026D01*
X231723183Y-88786465D01*
X231738955Y-88759881D01*
X232648004Y-87850833D01*
X232671290Y-87810500D01*
X232687565Y-87782311D01*
X232708044Y-87705884D01*
X232708044Y-84921854D01*
X232726350Y-84877660D01*
X232770544Y-84859354D01*
X232814738Y-84877660D01*
G37*
%TD.AperFunction*%
%TA.AperFunction,NonConductor*%
G36*
X228642194Y-89067165D02*
G01*
X228941194Y-89366165D01*
X228959500Y-89410359D01*
X228959500Y-89659891D01*
X228959500Y-89659892D01*
X228959501Y-89659900D01*
X228966028Y-89709487D01*
X228980043Y-89739541D01*
X229016777Y-89818318D01*
X229101681Y-89903222D01*
X229101683Y-89903223D01*
X229101684Y-89903224D01*
X229198414Y-89948330D01*
X229230731Y-89983597D01*
X229234500Y-90004973D01*
X229234500Y-90014180D01*
X229216194Y-90058374D01*
X229172000Y-90076680D01*
X229159807Y-90075479D01*
X229129748Y-90069500D01*
X228640252Y-90069500D01*
X228610193Y-90075479D01*
X228563277Y-90066147D01*
X228536701Y-90026373D01*
X228535500Y-90014180D01*
X228535500Y-89111359D01*
X228553806Y-89067165D01*
X228598000Y-89048859D01*
X228642194Y-89067165D01*
G37*
%TD.AperFunction*%
%TA.AperFunction,NonConductor*%
G36*
X236567194Y-90402165D02*
G01*
X236721194Y-90556165D01*
X236739500Y-90600359D01*
X236739500Y-91298641D01*
X236721194Y-91342835D01*
X236677000Y-91361141D01*
X236632806Y-91342835D01*
X236478806Y-91188835D01*
X236460500Y-91144641D01*
X236460500Y-90446359D01*
X236478806Y-90402165D01*
X236523000Y-90383859D01*
X236567194Y-90402165D01*
G37*
%TD.AperFunction*%
%TA.AperFunction,NonConductor*%
G36*
X226397193Y-90407164D02*
G01*
X227141194Y-91151165D01*
X227159500Y-91195359D01*
X227159500Y-91723641D01*
X227141194Y-91767835D01*
X227097000Y-91786141D01*
X227052806Y-91767835D01*
X226267369Y-90982398D01*
X226249063Y-90938204D01*
X226254919Y-90911790D01*
X226256806Y-90907744D01*
X226283972Y-90849487D01*
X226290500Y-90799901D01*
X226290499Y-90451357D01*
X226308805Y-90407164D01*
X226352999Y-90388858D01*
X226397193Y-90407164D01*
G37*
%TD.AperFunction*%
%TA.AperFunction,NonConductor*%
G36*
X231240252Y-92270500D02*
G01*
X231313641Y-92270500D01*
X231357835Y-92288806D01*
X231376141Y-92333000D01*
X231357835Y-92377194D01*
X226897195Y-96837834D01*
X226853001Y-96856140D01*
X226808807Y-96837834D01*
X226790501Y-96793640D01*
X226790501Y-96740358D01*
X226808807Y-96696164D01*
X231075455Y-92429516D01*
X231075460Y-92429511D01*
X231115022Y-92360988D01*
X231129227Y-92307970D01*
X231158346Y-92270022D01*
X231201789Y-92262849D01*
X231240252Y-92270500D01*
G37*
%TD.AperFunction*%
%TA.AperFunction,NonConductor*%
G36*
X235731768Y-92258866D02*
G01*
X235731769Y-92258867D01*
X235790252Y-92270500D01*
X236277000Y-92270500D01*
X236321194Y-92288806D01*
X236339500Y-92333000D01*
X236339500Y-97107000D01*
X236321194Y-97151194D01*
X236277000Y-97169500D01*
X235790252Y-97169500D01*
X235731769Y-97181133D01*
X235731768Y-97181133D01*
X235725732Y-97182334D01*
X235725317Y-97180248D01*
X235694683Y-97180248D01*
X235694268Y-97182334D01*
X235688231Y-97181133D01*
X235629748Y-97169500D01*
X235300953Y-97169500D01*
X235256759Y-97151194D01*
X235238453Y-97107000D01*
X235253719Y-97066071D01*
X235286832Y-97027857D01*
X235325377Y-96983373D01*
X235385165Y-96852457D01*
X235405647Y-96710000D01*
X235385165Y-96567543D01*
X235325377Y-96436627D01*
X235325376Y-96436625D01*
X235231128Y-96327857D01*
X235199520Y-96307544D01*
X235110053Y-96250047D01*
X235110051Y-96250046D01*
X235110049Y-96250045D01*
X234971963Y-96209500D01*
X234971961Y-96209500D01*
X234828039Y-96209500D01*
X234828037Y-96209500D01*
X234689950Y-96250045D01*
X234568871Y-96327857D01*
X234495234Y-96412840D01*
X234452459Y-96434252D01*
X234407071Y-96419145D01*
X234385659Y-96376370D01*
X234385500Y-96371911D01*
X234385500Y-95615438D01*
X234385499Y-95615432D01*
X234374616Y-95574822D01*
X234365021Y-95539011D01*
X234325460Y-95470489D01*
X234269511Y-95414540D01*
X234197627Y-95342656D01*
X234179321Y-95298462D01*
X234179956Y-95289577D01*
X234185647Y-95250000D01*
X234165165Y-95107543D01*
X234105377Y-94976627D01*
X234105376Y-94976625D01*
X234011128Y-94867857D01*
X233988855Y-94853543D01*
X233890053Y-94790047D01*
X233890051Y-94790046D01*
X233890049Y-94790045D01*
X233751963Y-94749500D01*
X233751961Y-94749500D01*
X233608039Y-94749500D01*
X233608037Y-94749500D01*
X233469950Y-94790045D01*
X233348871Y-94867857D01*
X233254623Y-94976625D01*
X233254623Y-94976627D01*
X233194834Y-95107544D01*
X233180103Y-95210006D01*
X233155694Y-95251145D01*
X233109344Y-95262975D01*
X233074045Y-95245305D01*
X232584280Y-94755540D01*
X232573818Y-94749500D01*
X232515758Y-94715979D01*
X232515757Y-94715978D01*
X232515756Y-94715978D01*
X232439336Y-94695500D01*
X232439331Y-94695500D01*
X231062415Y-94695500D01*
X231018221Y-94677194D01*
X231015181Y-94673929D01*
X230963128Y-94613856D01*
X230963126Y-94613855D01*
X230842051Y-94536046D01*
X230703963Y-94495500D01*
X230703961Y-94495500D01*
X230560039Y-94495500D01*
X230560037Y-94495500D01*
X230421950Y-94536045D01*
X230300871Y-94613857D01*
X230206623Y-94722625D01*
X230206623Y-94722627D01*
X230146834Y-94853544D01*
X230126353Y-94996000D01*
X230146834Y-95138455D01*
X230146835Y-95138457D01*
X230203701Y-95262975D01*
X230206623Y-95269372D01*
X230206623Y-95269374D01*
X230286596Y-95361668D01*
X230300872Y-95378143D01*
X230421947Y-95455953D01*
X230533164Y-95488609D01*
X230560036Y-95496499D01*
X230560038Y-95496500D01*
X230560039Y-95496500D01*
X230703962Y-95496500D01*
X230703962Y-95496499D01*
X230842053Y-95455953D01*
X230963128Y-95378143D01*
X230993878Y-95342656D01*
X231015181Y-95318071D01*
X231057956Y-95296659D01*
X231062415Y-95296500D01*
X232249410Y-95296500D01*
X232293604Y-95314806D01*
X233116194Y-96137396D01*
X233134500Y-96181590D01*
X233134500Y-97114180D01*
X233116194Y-97158374D01*
X233072000Y-97176680D01*
X233059807Y-97175479D01*
X233029748Y-97169500D01*
X232540252Y-97169500D01*
X232510193Y-97175479D01*
X232463277Y-97166147D01*
X232436701Y-97126373D01*
X232435500Y-97114180D01*
X232435500Y-96965898D01*
X232453806Y-96921704D01*
X232466589Y-96912831D01*
X232466292Y-96912369D01*
X232470050Y-96909953D01*
X232470053Y-96909953D01*
X232591128Y-96832143D01*
X232685377Y-96723373D01*
X232745165Y-96592457D01*
X232765647Y-96450000D01*
X232745165Y-96307543D01*
X232685377Y-96176627D01*
X232685376Y-96176625D01*
X232591128Y-96067857D01*
X232541571Y-96036009D01*
X232470053Y-95990047D01*
X232470051Y-95990046D01*
X232470049Y-95990045D01*
X232331963Y-95949500D01*
X232331961Y-95949500D01*
X232188039Y-95949500D01*
X232188037Y-95949500D01*
X232049950Y-95990045D01*
X231928871Y-96067857D01*
X231834623Y-96176625D01*
X231834622Y-96176627D01*
X231788046Y-96278614D01*
X231753035Y-96311210D01*
X231705230Y-96309502D01*
X231697406Y-96305230D01*
X231675059Y-96290869D01*
X231536972Y-96250324D01*
X231536970Y-96250324D01*
X231393048Y-96250324D01*
X231393046Y-96250324D01*
X231254957Y-96290870D01*
X231205758Y-96322487D01*
X231158682Y-96330979D01*
X231119390Y-96303697D01*
X231115117Y-96295872D01*
X231112832Y-96290869D01*
X231080375Y-96219798D01*
X231080374Y-96219796D01*
X230986126Y-96111028D01*
X230918950Y-96067857D01*
X230865051Y-96033218D01*
X230865049Y-96033217D01*
X230865047Y-96033216D01*
X230726961Y-95992671D01*
X230726959Y-95992671D01*
X230583037Y-95992671D01*
X230583035Y-95992671D01*
X230444948Y-96033216D01*
X230329526Y-96107393D01*
X230282450Y-96115886D01*
X230248718Y-96094491D01*
X230248355Y-96094855D01*
X230246729Y-96093229D01*
X230246153Y-96092864D01*
X230245456Y-96091956D01*
X229913040Y-95759540D01*
X229897382Y-95750500D01*
X229844516Y-95719978D01*
X229768096Y-95699500D01*
X229768091Y-95699500D01*
X229490415Y-95699500D01*
X229446221Y-95681194D01*
X229443181Y-95677929D01*
X229391128Y-95617856D01*
X229391126Y-95617855D01*
X229270051Y-95540046D01*
X229197094Y-95518624D01*
X229159847Y-95488609D01*
X229154734Y-95441048D01*
X229170506Y-95414464D01*
X231896165Y-92688806D01*
X231940359Y-92670500D01*
X233999562Y-92670500D01*
X233999567Y-92670499D01*
X234022271Y-92664414D01*
X234075989Y-92650021D01*
X234144511Y-92610460D01*
X234200460Y-92554511D01*
X234325460Y-92429511D01*
X234365022Y-92360988D01*
X234379227Y-92307970D01*
X234408346Y-92270022D01*
X234451789Y-92262849D01*
X234490252Y-92270500D01*
X234490253Y-92270500D01*
X234979748Y-92270500D01*
X235038231Y-92258867D01*
X235038231Y-92258866D01*
X235044269Y-92257666D01*
X235044685Y-92259758D01*
X235075315Y-92259754D01*
X235075731Y-92257666D01*
X235081768Y-92258866D01*
X235081769Y-92258867D01*
X235140252Y-92270500D01*
X235629748Y-92270500D01*
X235688231Y-92258867D01*
X235688231Y-92258866D01*
X235694269Y-92257666D01*
X235694685Y-92259758D01*
X235725315Y-92259754D01*
X235725731Y-92257666D01*
X235731768Y-92258866D01*
G37*
%TD.AperFunction*%
%TA.AperFunction,NonConductor*%
G36*
X228558703Y-96114654D02*
G01*
X228572827Y-96138459D01*
X228572978Y-96138391D01*
X228573617Y-96139791D01*
X228574477Y-96141240D01*
X228574833Y-96142453D01*
X228634622Y-96273372D01*
X228634623Y-96273374D01*
X228720006Y-96371911D01*
X228728872Y-96382143D01*
X228849947Y-96459953D01*
X228859510Y-96462760D01*
X228896757Y-96492773D01*
X228901873Y-96540334D01*
X228898756Y-96548691D01*
X228869834Y-96612023D01*
X228869832Y-96612029D01*
X228849351Y-96754485D01*
X228869832Y-96896940D01*
X228869833Y-96896942D01*
X228907499Y-96979419D01*
X228929621Y-97027857D01*
X228929621Y-97027858D01*
X228962733Y-97066072D01*
X228977839Y-97111459D01*
X228956426Y-97154235D01*
X228915498Y-97169500D01*
X228640252Y-97169500D01*
X228581769Y-97181133D01*
X228581768Y-97181133D01*
X228575732Y-97182334D01*
X228575317Y-97180248D01*
X228544683Y-97180248D01*
X228544268Y-97182334D01*
X228538231Y-97181133D01*
X228479748Y-97169500D01*
X227990252Y-97169500D01*
X227931769Y-97181133D01*
X227931768Y-97181133D01*
X227925732Y-97182334D01*
X227925317Y-97180248D01*
X227894683Y-97180248D01*
X227894268Y-97182334D01*
X227888231Y-97181133D01*
X227829748Y-97169500D01*
X227566359Y-97169500D01*
X227522165Y-97151194D01*
X227503859Y-97107000D01*
X227522165Y-97062806D01*
X227752829Y-96832142D01*
X228470316Y-96114653D01*
X228514509Y-96096348D01*
X228558703Y-96114654D01*
G37*
%TD.AperFunction*%
%TA.AperFunction,NonConductor*%
G36*
X235716194Y-99552165D02*
G01*
X235734500Y-99596359D01*
X235734500Y-99724640D01*
X235716194Y-99768834D01*
X232899214Y-102585814D01*
X232855020Y-102604120D01*
X232733417Y-102604120D01*
X232595330Y-102644665D01*
X232595327Y-102644667D01*
X232491673Y-102711281D01*
X232444598Y-102719774D01*
X232410651Y-102699632D01*
X232331128Y-102607857D01*
X232329208Y-102606623D01*
X232328459Y-102605544D01*
X232327751Y-102604931D01*
X232327907Y-102604750D01*
X232301928Y-102567329D01*
X232300500Y-102554046D01*
X232300500Y-102410359D01*
X232318806Y-102366165D01*
X234836165Y-99848806D01*
X234880359Y-99830500D01*
X235264562Y-99830500D01*
X235264567Y-99830499D01*
X235287271Y-99824414D01*
X235340989Y-99810021D01*
X235409511Y-99770460D01*
X235465460Y-99714511D01*
X235625460Y-99554511D01*
X235627806Y-99552165D01*
X235672000Y-99533859D01*
X235716194Y-99552165D01*
G37*
%TD.AperFunction*%
%TA.AperFunction,NonConductor*%
G36*
X236321194Y-100102164D02*
G01*
X236339500Y-100146358D01*
X236339500Y-100368880D01*
X236321194Y-100413074D01*
X233370204Y-103364063D01*
X233326010Y-103382369D01*
X233281816Y-103364063D01*
X233263510Y-103319869D01*
X233269156Y-103293909D01*
X233290545Y-103247077D01*
X233311027Y-103104620D01*
X233305337Y-103065050D01*
X233317167Y-103018702D01*
X233323000Y-103011969D01*
X236232807Y-100102163D01*
X236277000Y-100083858D01*
X236321194Y-100102164D01*
G37*
%TD.AperFunction*%
%TA.AperFunction,NonConductor*%
G36*
X236721194Y-100951404D02*
G01*
X236739500Y-100995598D01*
X236739500Y-101316586D01*
X236721194Y-101360780D01*
X232904114Y-105177859D01*
X232859920Y-105196165D01*
X232815726Y-105177859D01*
X232805795Y-105164917D01*
X232763016Y-105090821D01*
X232730322Y-105034191D01*
X232730320Y-105034188D01*
X232666739Y-104963574D01*
X232650772Y-104918483D01*
X232671366Y-104875307D01*
X232689272Y-104864010D01*
X232692623Y-104862621D01*
X232692629Y-104862620D01*
X232761151Y-104823059D01*
X232817100Y-104767110D01*
X236632806Y-100951404D01*
X236677000Y-100933098D01*
X236721194Y-100951404D01*
G37*
%TD.AperFunction*%
%TA.AperFunction,NonConductor*%
G36*
X233094689Y-99359758D02*
G01*
X233125315Y-99359754D01*
X233125731Y-99357666D01*
X233131768Y-99358866D01*
X233131769Y-99358867D01*
X233190252Y-99370500D01*
X233679748Y-99370500D01*
X233738231Y-99358867D01*
X233738231Y-99358866D01*
X233744269Y-99357666D01*
X233744685Y-99359758D01*
X233775315Y-99359754D01*
X233775731Y-99357666D01*
X233781768Y-99358866D01*
X233781769Y-99358867D01*
X233840252Y-99370500D01*
X234313640Y-99370500D01*
X234357834Y-99388806D01*
X234376140Y-99433000D01*
X234357833Y-99477194D01*
X231815489Y-102019540D01*
X231787515Y-102047514D01*
X231759541Y-102075487D01*
X231719978Y-102144011D01*
X231719978Y-102144013D01*
X231699500Y-102220432D01*
X231699500Y-102554046D01*
X231681194Y-102598240D01*
X231670792Y-102606623D01*
X231668872Y-102607856D01*
X231668871Y-102607857D01*
X231574623Y-102716625D01*
X231574623Y-102716627D01*
X231514834Y-102847544D01*
X231494353Y-102990000D01*
X231514834Y-103132455D01*
X231574623Y-103263372D01*
X231574623Y-103263374D01*
X231661871Y-103364063D01*
X231668872Y-103372143D01*
X231789947Y-103449953D01*
X231915308Y-103486762D01*
X231928036Y-103490499D01*
X231928038Y-103490500D01*
X231928039Y-103490500D01*
X232071962Y-103490500D01*
X232071962Y-103490499D01*
X232210053Y-103449953D01*
X232313707Y-103383338D01*
X232360780Y-103374845D01*
X232394729Y-103394988D01*
X232474252Y-103486763D01*
X232595327Y-103564573D01*
X232595329Y-103564573D01*
X232595330Y-103564574D01*
X232733416Y-103605119D01*
X232733418Y-103605120D01*
X232733419Y-103605120D01*
X232877341Y-103605120D01*
X232998866Y-103569437D01*
X233046427Y-103574550D01*
X233076442Y-103611796D01*
X233071329Y-103659358D01*
X233060668Y-103673599D01*
X232470475Y-104263793D01*
X232426281Y-104282099D01*
X231592621Y-104282099D01*
X231516202Y-104302577D01*
X231516200Y-104302577D01*
X231447676Y-104342140D01*
X231447672Y-104342143D01*
X231022707Y-104767110D01*
X230885089Y-104904728D01*
X230860314Y-104929503D01*
X230829141Y-104960675D01*
X230789578Y-105029199D01*
X230789578Y-105029201D01*
X230769100Y-105105620D01*
X230769100Y-105619600D01*
X230750794Y-105663794D01*
X230706600Y-105682100D01*
X230554517Y-105682100D01*
X230377506Y-105719725D01*
X230377499Y-105719727D01*
X230212173Y-105793335D01*
X230212172Y-105793336D01*
X230199830Y-105802303D01*
X230153316Y-105813468D01*
X230112531Y-105788472D01*
X230101366Y-105741958D01*
X230103651Y-105732436D01*
X230106726Y-105722976D01*
X230125642Y-105542999D01*
X230106726Y-105363022D01*
X230050803Y-105190911D01*
X229960319Y-105034187D01*
X229839228Y-104899702D01*
X229839228Y-104899701D01*
X229692825Y-104793333D01*
X229692822Y-104793332D01*
X229692821Y-104793331D01*
X229662004Y-104779610D01*
X229597578Y-104750925D01*
X229564651Y-104716226D01*
X229560500Y-104693829D01*
X229560500Y-102905435D01*
X229578806Y-102861241D01*
X231123461Y-101316586D01*
X233025460Y-99414587D01*
X233039499Y-99390268D01*
X233077447Y-99361148D01*
X233081407Y-99360224D01*
X233088231Y-99358867D01*
X233088232Y-99358866D01*
X233094273Y-99357665D01*
X233094689Y-99359758D01*
G37*
%TD.AperFunction*%
%TA.AperFunction,NonConductor*%
G36*
X226897195Y-103562166D02*
G01*
X227556196Y-104221167D01*
X227574502Y-104265361D01*
X227574502Y-105693830D01*
X227556196Y-105738024D01*
X227537424Y-105750926D01*
X227442179Y-105793333D01*
X227442173Y-105793336D01*
X227429831Y-105802303D01*
X227383317Y-105813468D01*
X227342532Y-105788472D01*
X227331367Y-105741958D01*
X227333652Y-105732436D01*
X227336727Y-105722976D01*
X227355643Y-105542999D01*
X227336727Y-105363022D01*
X227280804Y-105190911D01*
X227190320Y-105034187D01*
X227069229Y-104899702D01*
X227069229Y-104899701D01*
X226922826Y-104793333D01*
X226922823Y-104793332D01*
X226922822Y-104793331D01*
X226892005Y-104779610D01*
X226827579Y-104750925D01*
X226794652Y-104716226D01*
X226790501Y-104693829D01*
X226790501Y-103606360D01*
X226808807Y-103562166D01*
X226853001Y-103543860D01*
X226897195Y-103562166D01*
G37*
%TD.AperFunction*%
%TA.AperFunction,NonConductor*%
G36*
X247527688Y-107701032D02*
G01*
X247534500Y-107729407D01*
X247534500Y-108107032D01*
X247516194Y-108151226D01*
X247472000Y-108169532D01*
X247242123Y-108169532D01*
X247197929Y-108151226D01*
X247179623Y-108107032D01*
X247197929Y-108062838D01*
X247203439Y-108057327D01*
X247203446Y-108057319D01*
X247319094Y-107898145D01*
X247408416Y-107722839D01*
X247408421Y-107722827D01*
X247412559Y-107710094D01*
X247443625Y-107673719D01*
X247491313Y-107669966D01*
X247527688Y-107701032D01*
G37*
%TD.AperFunction*%
%TA.AperFunction,NonConductor*%
G36*
X217852194Y-107730776D02*
G01*
X217863688Y-107746596D01*
X217940905Y-107898145D01*
X218056553Y-108057319D01*
X218056560Y-108057327D01*
X218062071Y-108062838D01*
X218080377Y-108107032D01*
X218062071Y-108151226D01*
X218017877Y-108169532D01*
X217808000Y-108169532D01*
X217763806Y-108151226D01*
X217745500Y-108107032D01*
X217745500Y-107774970D01*
X217763806Y-107730776D01*
X217808000Y-107712470D01*
X217852194Y-107730776D01*
G37*
%TD.AperFunction*%
M02*
