M48
; DRILL file {KiCad 8.0.3} date 2024-07-15T16:50:19+1000
; FORMAT={-:-/ absolute / inch / decimal}
; #@! TF.CreationDate,2024-07-15T16:50:19+10:00
; #@! TF.GenerationSoftware,Kicad,Pcbnew,8.0.3
; #@! TF.FileFunction,Plated,1,2,PTH
FMAT,2
INCH
; #@! TA.AperFunction,Plated,PTH,ViaDrill
T1C0.0118
; #@! TA.AperFunction,Plated,PTH,ComponentDrill
T2C0.0320
; #@! TA.AperFunction,Plated,PTH,ComponentDrill
T3C0.0394
%
G90
G05
T1
X8.77Y-4.18
X8.8686Y-3.1726
X8.876Y-3.4008
X8.88Y-3.34
X8.8923Y-3.1963
X8.93Y-3.4
X8.9512Y-3.1445
X8.9748Y-3.1681
X8.98Y-4.03
X8.9846Y-3.2516
X8.9964Y-3.3722
X9.0181Y-3.7795
X9.0297Y-3.8092
X9.04Y-3.64
X9.0559Y-3.4374
X9.0681Y-2.9717
X9.0694Y-3.2961
X9.08Y-3.74
X9.0809Y-3.7989
X9.1104Y-3.2159
X9.1128Y-3.8091
X9.1154Y-3.3328
X9.1176Y-3.2765
X9.1185Y-3.5173
X9.1339Y-4.0547
X9.1441Y-3.7972
X9.1656Y-4.0592
X9.2Y-3.75
X9.2274Y-2.9719
X9.248Y-3.8075
T2
X8.9169Y-4.1552
X8.9715Y-4.1946
X9.026Y-4.1552
X9.0805Y-4.1946
X9.135Y-4.1552
X9.1896Y-4.1946
X9.2441Y-4.1552
X9.2986Y-4.1946
X9.3531Y-4.1552
T3
G00X8.711Y-4.2222
M15
G01X8.6224Y-4.2222
M16
G05
G00X9.6949Y-4.2222
M15
G01X9.6063Y-4.2222
M16
G05
M30
