%TF.GenerationSoftware,KiCad,Pcbnew,8.0.0*%
%TF.CreationDate,2024-03-16T10:10:18+11:00*%
%TF.ProjectId,DB9 RS232 Adapter,44423920-5253-4323-9332-204164617074,rev?*%
%TF.SameCoordinates,Original*%
%TF.FileFunction,Soldermask,Bot*%
%TF.FilePolarity,Negative*%
%FSLAX46Y46*%
G04 Gerber Fmt 4.6, Leading zero omitted, Abs format (unit mm)*
G04 Created by KiCad (PCBNEW 8.0.0) date 2024-03-16 10:10:18*
%MOMM*%
%LPD*%
G01*
G04 APERTURE LIST*
%ADD10C,2.200000*%
%ADD11C,0.500000*%
%ADD12C,1.448000*%
%ADD13R,0.300000X1.000000*%
%ADD14R,0.700000X1.150000*%
%ADD15C,1.320800*%
%ADD16O,3.750000X1.490600*%
%ADD17R,1.500000X1.500000*%
G04 APERTURE END LIST*
D10*
%TO.C,H1*%
X221340000Y-91710000D03*
%TD*%
%TO.C,H2*%
X243940000Y-91710000D03*
%TD*%
D11*
%TO.C,mouse-bite-2mm-slot*%
X217900000Y-97500000D03*
X219400000Y-97500000D03*
X217900000Y-96750000D03*
X219400000Y-96750000D03*
X217900000Y-96000000D03*
X219400000Y-96000000D03*
%TD*%
D12*
%TO.C,REF\u002A\u002A*%
X208790000Y-68110000D03*
%TD*%
D11*
%TO.C,mouse-bite-2mm-slot*%
X243060000Y-71960000D03*
X243060000Y-70460000D03*
X242310000Y-71960000D03*
X242310000Y-70460000D03*
X241560000Y-71960000D03*
X241560000Y-70460000D03*
%TD*%
%TO.C,mouse-bite-2mm-slot*%
X217900000Y-79200000D03*
X219400000Y-79200000D03*
X217900000Y-78450000D03*
X219400000Y-78450000D03*
X217900000Y-77700000D03*
X219400000Y-77700000D03*
%TD*%
D13*
%TO.C,P1*%
X235390000Y-74250000D03*
X234890000Y-74250000D03*
X234390000Y-74250000D03*
X233890000Y-74250000D03*
X233390000Y-74250000D03*
X231890000Y-74250000D03*
X231390000Y-74250000D03*
X230890000Y-74250000D03*
X230390000Y-74250000D03*
X229890000Y-74250000D03*
D14*
X236060000Y-75090000D03*
%TD*%
D15*
%TO.C,J1*%
X237569999Y-105542999D03*
X234800000Y-105542999D03*
X232030000Y-105542999D03*
X229260000Y-105542999D03*
X226490001Y-105542999D03*
X236185001Y-106543000D03*
X233415001Y-106543000D03*
X230645001Y-106543000D03*
X227875002Y-106543000D03*
D16*
X245125000Y-107243000D03*
X220135000Y-107243000D03*
%TD*%
D11*
%TO.C,mouse-bite-2mm-slot*%
X245900000Y-79200000D03*
X247400000Y-79200000D03*
X245900000Y-78450000D03*
X247400000Y-78450000D03*
X245900000Y-77700000D03*
X247400000Y-77700000D03*
%TD*%
%TO.C,mouse-bite-2mm-slot*%
X223790000Y-71950000D03*
X223790000Y-70450000D03*
X223040000Y-71950000D03*
X223040000Y-70450000D03*
X222290000Y-71950000D03*
X222290000Y-70450000D03*
%TD*%
D12*
%TO.C,REF\u002A\u002A*%
X256710000Y-67960000D03*
%TD*%
%TO.C,REF\u002A\u002A*%
X208710000Y-115920000D03*
%TD*%
D11*
%TO.C,mouse-bite-2mm-slot*%
X245900000Y-97500000D03*
X247400000Y-97500000D03*
X245900000Y-96750000D03*
X247400000Y-96750000D03*
X245900000Y-96000000D03*
X247400000Y-96000000D03*
%TD*%
D17*
%TO.C,TP4*%
X238340000Y-73210000D03*
%TD*%
%TO.C,TP2*%
X226940000Y-73210000D03*
%TD*%
M02*
