%TF.GenerationSoftware,KiCad,Pcbnew,8.0.0*%
%TF.CreationDate,2024-03-16T10:10:18+11:00*%
%TF.ProjectId,DB9 RS232 Adapter,44423920-5253-4323-9332-204164617074,rev?*%
%TF.SameCoordinates,Original*%
%TF.FileFunction,Profile,NP*%
%FSLAX46Y46*%
G04 Gerber Fmt 4.6, Leading zero omitted, Abs format (unit mm)*
G04 Created by KiCad (PCBNEW 8.0.0) date 2024-03-16 10:10:18*
%MOMM*%
%LPD*%
G01*
G04 APERTURE LIST*
%TA.AperFunction,Profile*%
%ADD10C,0.050000*%
%TD*%
G04 APERTURE END LIST*
D10*
X245640000Y-76010000D02*
X245640000Y-104870000D01*
X227640000Y-72210000D02*
G75*
G02*
X227940000Y-72510000I0J-300000D01*
G01*
X227640000Y-72210000D02*
X220940000Y-72210000D01*
X220640000Y-72510000D02*
G75*
G02*
X220940000Y-72210000I300000J0D01*
G01*
X219640000Y-76010000D02*
X219640000Y-104870000D01*
X249280000Y-104010000D02*
X249280000Y-110000000D01*
X247640000Y-70210000D02*
X247640000Y-104010000D01*
X249280000Y-104010000D02*
X247640000Y-104010000D01*
X257640000Y-67030000D02*
X257640000Y-117030000D01*
X216000000Y-104010000D02*
X216000000Y-110000000D01*
X219640000Y-104870000D02*
G75*
G02*
X219340000Y-105170000I-300000J0D01*
G01*
X245340000Y-75710000D02*
G75*
G02*
X245640000Y-76010000I0J-300000D01*
G01*
X207640000Y-67030000D02*
X207640000Y-117030000D01*
X245940000Y-105170000D02*
G75*
G02*
X245640000Y-104870000I0J300000D01*
G01*
X236940000Y-74210000D02*
X237040000Y-74210000D01*
X248035000Y-105470000D02*
X248035000Y-108370032D01*
X219940000Y-75710000D02*
X220340000Y-75710000D01*
X228240000Y-74210000D02*
G75*
G02*
X227940000Y-73910000I0J300000D01*
G01*
X227940000Y-73910000D02*
X227940000Y-72510000D01*
X217640000Y-104010000D02*
X216000000Y-104010000D01*
X237340000Y-73910000D02*
X237340000Y-72510000D01*
X219340000Y-105170000D02*
X217545000Y-105170000D01*
X207640000Y-117030000D02*
X257640000Y-117030000D01*
X219640000Y-76010000D02*
G75*
G02*
X219940000Y-75710000I300000J0D01*
G01*
X220640000Y-75410000D02*
G75*
G02*
X220340000Y-75710000I-300000J0D01*
G01*
X237340000Y-73910000D02*
G75*
G02*
X237040000Y-74210000I-300000J0D01*
G01*
X244340000Y-72210000D02*
G75*
G02*
X244640000Y-72510000I0J-300000D01*
G01*
X248035000Y-108370032D02*
G75*
G02*
X247735000Y-108670100I-300100J32D01*
G01*
X217640000Y-70210000D02*
X217640000Y-104010000D01*
X220640000Y-75410000D02*
X220640000Y-72510000D01*
X217545000Y-108670032D02*
X247735000Y-108670032D01*
X247735000Y-105170000D02*
G75*
G02*
X248035000Y-105470000I0J-300000D01*
G01*
X244640000Y-75410000D02*
X244640000Y-72510000D01*
X244940000Y-75710000D02*
X245340000Y-75710000D01*
X217545000Y-108670032D02*
G75*
G02*
X217245068Y-108370032I0J299932D01*
G01*
X217245000Y-105470000D02*
G75*
G02*
X217545000Y-105170000I300000J0D01*
G01*
X237340000Y-72510000D02*
G75*
G02*
X237640000Y-72210000I300000J0D01*
G01*
X247735000Y-105170000D02*
X245940000Y-105170000D01*
X228240000Y-74210000D02*
X228340000Y-74210000D01*
X207640000Y-67030000D02*
X257640000Y-67030000D01*
X244940000Y-75710000D02*
G75*
G02*
X244640000Y-75410000I0J300000D01*
G01*
X216000000Y-110000000D02*
X249280000Y-110000000D01*
X237640000Y-72210000D02*
X244340000Y-72210000D01*
X217245000Y-105470000D02*
X217245000Y-108370032D01*
X217640000Y-70210000D02*
X247640000Y-70210000D01*
%TO.C,P1*%
X229290000Y-74210000D02*
X228340000Y-74210000D01*
X229590000Y-73550000D02*
X229590000Y-73910000D01*
X229890000Y-73250000D02*
X235390000Y-73250000D01*
X235690000Y-73550000D02*
X235690000Y-73910000D01*
X235990000Y-74210000D02*
X236940000Y-74210000D01*
X229590000Y-73550000D02*
G75*
G02*
X229890000Y-73250000I300000J0D01*
G01*
X229590000Y-73910000D02*
G75*
G02*
X229290000Y-74210000I-300000J0D01*
G01*
X235390000Y-73250000D02*
G75*
G02*
X235690000Y-73550000I0J-300000D01*
G01*
X235990000Y-74210000D02*
G75*
G02*
X235690000Y-73910000I0J300000D01*
G01*
%TD*%
M02*
