%TF.GenerationSoftware,KiCad,Pcbnew,8.0.0*%
%TF.CreationDate,2024-03-16T10:10:18+11:00*%
%TF.ProjectId,DB9 RS232 Adapter,44423920-5253-4323-9332-204164617074,rev?*%
%TF.SameCoordinates,Original*%
%TF.FileFunction,Copper,L1,Top*%
%TF.FilePolarity,Positive*%
%FSLAX46Y46*%
G04 Gerber Fmt 4.6, Leading zero omitted, Abs format (unit mm)*
G04 Created by KiCad (PCBNEW 8.0.0) date 2024-03-16 10:10:18*
%MOMM*%
%LPD*%
G01*
G04 APERTURE LIST*
G04 Aperture macros list*
%AMRoundRect*
0 Rectangle with rounded corners*
0 $1 Rounding radius*
0 $2 $3 $4 $5 $6 $7 $8 $9 X,Y pos of 4 corners*
0 Add a 4 corners polygon primitive as box body*
4,1,4,$2,$3,$4,$5,$6,$7,$8,$9,$2,$3,0*
0 Add four circle primitives for the rounded corners*
1,1,$1+$1,$2,$3*
1,1,$1+$1,$4,$5*
1,1,$1+$1,$6,$7*
1,1,$1+$1,$8,$9*
0 Add four rect primitives between the rounded corners*
20,1,$1+$1,$2,$3,$4,$5,0*
20,1,$1+$1,$4,$5,$6,$7,0*
20,1,$1+$1,$6,$7,$8,$9,0*
20,1,$1+$1,$8,$9,$2,$3,0*%
G04 Aperture macros list end*
%TA.AperFunction,SMDPad,CuDef*%
%ADD10R,0.450000X1.800000*%
%TD*%
%TA.AperFunction,SMDPad,CuDef*%
%ADD11R,1.000000X1.000000*%
%TD*%
%TA.AperFunction,SMDPad,CuDef*%
%ADD12RoundRect,0.218750X0.256250X-0.218750X0.256250X0.218750X-0.256250X0.218750X-0.256250X-0.218750X0*%
%TD*%
%TA.AperFunction,SMDPad,CuDef*%
%ADD13RoundRect,0.140000X0.170000X-0.140000X0.170000X0.140000X-0.170000X0.140000X-0.170000X-0.140000X0*%
%TD*%
%TA.AperFunction,SMDPad,CuDef*%
%ADD14RoundRect,0.140000X0.140000X0.170000X-0.140000X0.170000X-0.140000X-0.170000X0.140000X-0.170000X0*%
%TD*%
%TA.AperFunction,SMDPad,CuDef*%
%ADD15C,1.000000*%
%TD*%
%TA.AperFunction,SMDPad,CuDef*%
%ADD16RoundRect,0.200000X-0.275000X0.200000X-0.275000X-0.200000X0.275000X-0.200000X0.275000X0.200000X0*%
%TD*%
%TA.AperFunction,SMDPad,CuDef*%
%ADD17C,2.000000*%
%TD*%
%TA.AperFunction,SMDPad,CuDef*%
%ADD18RoundRect,0.140000X-0.140000X-0.170000X0.140000X-0.170000X0.140000X0.170000X-0.140000X0.170000X0*%
%TD*%
%TA.AperFunction,SMDPad,CuDef*%
%ADD19RoundRect,0.200000X0.275000X-0.200000X0.275000X0.200000X-0.275000X0.200000X-0.275000X-0.200000X0*%
%TD*%
%TA.AperFunction,SMDPad,CuDef*%
%ADD20R,1.500000X1.500000*%
%TD*%
%TA.AperFunction,SMDPad,CuDef*%
%ADD21RoundRect,0.135000X0.135000X0.185000X-0.135000X0.185000X-0.135000X-0.185000X0.135000X-0.185000X0*%
%TD*%
%TA.AperFunction,SMDPad,CuDef*%
%ADD22R,0.300000X1.000000*%
%TD*%
%TA.AperFunction,SMDPad,CuDef*%
%ADD23R,0.700000X1.150000*%
%TD*%
%TA.AperFunction,ComponentPad*%
%ADD24C,1.320800*%
%TD*%
%TA.AperFunction,ComponentPad*%
%ADD25O,3.750000X1.490600*%
%TD*%
%TA.AperFunction,SMDPad,CuDef*%
%ADD26R,1.200000X0.400000*%
%TD*%
%TA.AperFunction,ViaPad*%
%ADD27C,0.600000*%
%TD*%
%TA.AperFunction,Conductor*%
%ADD28C,0.400000*%
%TD*%
%TA.AperFunction,Conductor*%
%ADD29C,0.127000*%
%TD*%
%TA.AperFunction,Conductor*%
%ADD30C,0.200000*%
%TD*%
G04 APERTURE END LIST*
D10*
%TO.P,IC1,1,T3OUT*%
%TO.N,DTR*%
X239755000Y-93450000D03*
%TO.P,IC1,2,T1OUT*%
%TO.N,RTS*%
X239105000Y-93450000D03*
%TO.P,IC1,3,T2OUT*%
%TO.N,TX*%
X238455000Y-93450000D03*
%TO.P,IC1,4,R2IN*%
%TO.N,CTS*%
X237805000Y-93450000D03*
%TO.P,IC1,5,R2OUT*%
%TO.N,~{CTS}*%
X237155000Y-93450000D03*
%TO.P,IC1,6,T2IN*%
%TO.N,~{DTR}*%
X236505000Y-93450000D03*
%TO.P,IC1,7,T1IN*%
%TO.N,TXD*%
X235855000Y-93450000D03*
%TO.P,IC1,8,R1OUT*%
%TO.N,RXD*%
X235205000Y-93450000D03*
%TO.P,IC1,9,R1IN*%
%TO.N,DCD*%
X234555000Y-93450000D03*
%TO.P,IC1,10,GND*%
%TO.N,Earth*%
X233905000Y-93450000D03*
%TO.P,IC1,11,VCC*%
%TO.N,VCC*%
X233255000Y-93450000D03*
%TO.P,IC1,12,C1+*%
%TO.N,Net-(IC1-C1+)*%
X232605000Y-93450000D03*
%TO.P,IC1,13,V+*%
%TO.N,VCC*%
X231955000Y-93450000D03*
%TO.P,IC1,14,C1-*%
%TO.N,Net-(IC1-C1-)*%
X231305000Y-93450000D03*
%TO.P,IC1,15,C2+*%
%TO.N,Net-(IC1-C2+)*%
X231305000Y-100550000D03*
%TO.P,IC1,16,C2-*%
%TO.N,Net-(IC1-C2-)*%
X231955000Y-100550000D03*
%TO.P,IC1,17,V-*%
%TO.N,Net-(IC1-V-)*%
X232605000Y-100550000D03*
%TO.P,IC1,18,R5IN*%
%TO.N,RI*%
X233255000Y-100550000D03*
%TO.P,IC1,19,R5OUT*%
%TO.N,~{DCD}*%
X233905000Y-100550000D03*
%TO.P,IC1,20,T3IN*%
%TO.N,~{RTS}*%
X234555000Y-100550000D03*
%TO.P,IC1,21,T4IN*%
%TO.N,unconnected-(IC1-T4IN-Pad21)*%
X235205000Y-100550000D03*
%TO.P,IC1,22,R4OUT*%
%TO.N,~{RI}*%
X235855000Y-100550000D03*
%TO.P,IC1,23,R4IN*%
%TO.N,DSR*%
X236505000Y-100550000D03*
%TO.P,IC1,24,EN*%
%TO.N,VCC*%
X237155000Y-100550000D03*
%TO.P,IC1,25,~{SHUTDOWN_(}SD)*%
%TO.N,SLEEP#*%
X237805000Y-100550000D03*
%TO.P,IC1,26,R3OUT*%
%TO.N,~{DSR}*%
X238455000Y-100550000D03*
%TO.P,IC1,27,R3IN*%
%TO.N,RX*%
X239105000Y-100550000D03*
%TO.P,IC1,28,T4OUT*%
%TO.N,unconnected-(IC1-T4OUT-Pad28)*%
X239755000Y-100550000D03*
%TD*%
D11*
%TO.P,TP3,1,1*%
%TO.N,/D+*%
X232220000Y-81590000D03*
%TD*%
D12*
%TO.P,D2,1,K*%
%TO.N,Net-(D2-K)*%
X220907500Y-103937500D03*
%TO.P,D2,2,A*%
%TO.N,Net-(D2-A)*%
X220907500Y-102362500D03*
%TD*%
D11*
%TO.P,TP2,1,1*%
%TO.N,/D-*%
X233520000Y-81590000D03*
%TD*%
D13*
%TO.P,C6,1*%
%TO.N,3V3OUT*%
X223610000Y-85520000D03*
%TO.P,C6,2*%
%TO.N,Earth*%
X223610000Y-84560000D03*
%TD*%
D14*
%TO.P,C4,1*%
%TO.N,/D+*%
X232160000Y-76750000D03*
%TO.P,C4,2*%
%TO.N,Earth*%
X231200000Y-76750000D03*
%TD*%
%TO.P,C7,1*%
%TO.N,VCC*%
X229230000Y-94260000D03*
%TO.P,C7,2*%
%TO.N,Earth*%
X228270000Y-94260000D03*
%TD*%
D15*
%TO.P,REF\u002A\u002A,*%
%TO.N,*%
X209020000Y-71770000D03*
%TD*%
%TO.P,REF\u002A\u002A,*%
%TO.N,*%
X255540000Y-115550000D03*
%TD*%
D16*
%TO.P,R3,1*%
%TO.N,VCC*%
X220900000Y-99325000D03*
%TO.P,R3,2*%
%TO.N,Net-(D2-A)*%
X220900000Y-100975000D03*
%TD*%
D17*
%TO.P,TP4,1,1*%
%TO.N,Earth*%
X223770000Y-78310000D03*
%TD*%
D16*
%TO.P,R4,1*%
%TO.N,/D-*%
X233340000Y-78005000D03*
%TO.P,R4,2*%
X233340000Y-79655000D03*
%TD*%
D18*
%TO.P,C5,1*%
%TO.N,/D-*%
X233020000Y-76750000D03*
%TO.P,C5,2*%
%TO.N,Earth*%
X233980000Y-76750000D03*
%TD*%
D14*
%TO.P,C8,1*%
%TO.N,VCC*%
X229230000Y-93210000D03*
%TO.P,C8,2*%
%TO.N,Earth*%
X228270000Y-93210000D03*
%TD*%
%TO.P,C9,1*%
%TO.N,Net-(IC1-V-)*%
X232680000Y-102670000D03*
%TO.P,C9,2*%
%TO.N,Earth*%
X231720000Y-102670000D03*
%TD*%
D19*
%TO.P,R5,1*%
%TO.N,/D+*%
X231860000Y-79655000D03*
%TO.P,R5,2*%
X231860000Y-78005000D03*
%TD*%
D14*
%TO.P,C11,1*%
%TO.N,Net-(IC1-C2-)*%
X230850000Y-102590000D03*
%TO.P,C11,2*%
%TO.N,Net-(IC1-C2+)*%
X229890000Y-102590000D03*
%TD*%
D16*
%TO.P,R2,1*%
%TO.N,VCC*%
X244400000Y-99325000D03*
%TO.P,R2,2*%
%TO.N,Net-(D1-A)*%
X244400000Y-100975000D03*
%TD*%
D20*
%TO.P,TP3,1*%
%TO.N,Earth*%
X238340000Y-73210000D03*
%TD*%
%TO.P,TP1,1*%
%TO.N,Earth*%
X226940000Y-73210000D03*
%TD*%
D21*
%TO.P,R1,1*%
%TO.N,Net-(P1-CC)*%
X228870000Y-77390000D03*
%TO.P,R1,2*%
%TO.N,Earth*%
X227850000Y-77390000D03*
%TD*%
D22*
%TO.P,P1,A1,GND*%
%TO.N,Earth*%
X229890000Y-74250000D03*
%TO.P,P1,A2*%
%TO.N,N/C*%
X230390000Y-74250000D03*
%TO.P,P1,A3*%
X230890000Y-74250000D03*
%TO.P,P1,A4,VBUS*%
%TO.N,VCC*%
X231390000Y-74250000D03*
%TO.P,P1,A5,CC*%
%TO.N,Net-(P1-CC)*%
X231890000Y-74250000D03*
%TO.P,P1,A6,D+*%
%TO.N,/D+*%
X232390000Y-74250000D03*
%TO.P,P1,A7,D-*%
%TO.N,/D-*%
X232890000Y-74250000D03*
%TO.P,P1,A8*%
%TO.N,N/C*%
X233390000Y-74250000D03*
%TO.P,P1,A9,VBUS*%
%TO.N,VCC*%
X233890000Y-74250000D03*
%TO.P,P1,A10*%
%TO.N,N/C*%
X234390000Y-74250000D03*
%TO.P,P1,A11*%
X234890000Y-74250000D03*
%TO.P,P1,A12,GND*%
%TO.N,Earth*%
X235390000Y-74250000D03*
D23*
%TO.P,P1,S1,SHIELD*%
X229220000Y-75090000D03*
%TD*%
D24*
%TO.P,J1,1,1*%
%TO.N,DCD*%
X237569999Y-105542999D03*
%TO.P,J1,2,2*%
%TO.N,RX*%
X234800000Y-105542999D03*
%TO.P,J1,3,3*%
%TO.N,TX*%
X232030000Y-105542999D03*
%TO.P,J1,4,4*%
%TO.N,DTR*%
X229260000Y-105542999D03*
%TO.P,J1,5,5*%
%TO.N,Earth*%
X226490001Y-105542999D03*
%TO.P,J1,6,6*%
%TO.N,DSR*%
X236185001Y-106543000D03*
%TO.P,J1,7,7*%
%TO.N,RTS*%
X233415001Y-106543000D03*
%TO.P,J1,8,8*%
%TO.N,CTS*%
X230645001Y-106543000D03*
%TO.P,J1,9,9*%
%TO.N,RI*%
X227875002Y-106543000D03*
D25*
%TO.P,J1,10,5*%
%TO.N,Earth*%
X245125000Y-107243000D03*
%TO.P,J1,11,5*%
X220135000Y-107243000D03*
%TD*%
D14*
%TO.P,C10,1*%
%TO.N,Net-(IC1-C1+)*%
X232420000Y-91820000D03*
%TO.P,C10,2*%
%TO.N,Net-(IC1-C1-)*%
X231460000Y-91820000D03*
%TD*%
D26*
%TO.P,U1,1,~{DTR}*%
%TO.N,~{DTR}*%
X230332500Y-89377500D03*
%TO.P,U1,2,~{RTS}*%
%TO.N,~{RTS}*%
X230332500Y-88742500D03*
%TO.P,U1,3,VCCIO*%
%TO.N,3V3OUT*%
X230332500Y-88107500D03*
%TO.P,U1,4,RXD*%
%TO.N,RXD*%
X230332500Y-87472500D03*
%TO.P,U1,5,~{RI}*%
%TO.N,~{RI}*%
X230332500Y-86837500D03*
%TO.P,U1,6,GND*%
%TO.N,Earth*%
X230332500Y-86202500D03*
%TO.P,U1,7,~{DSR}*%
%TO.N,~{DSR}*%
X230332500Y-85567500D03*
%TO.P,U1,8,~{DCD}*%
%TO.N,~{DCD}*%
X230332500Y-84932500D03*
%TO.P,U1,9,~{CTS}*%
%TO.N,~{CTS}*%
X230332500Y-84297500D03*
%TO.P,U1,10,CBUS2*%
%TO.N,Net-(D2-K)*%
X230332500Y-83662500D03*
%TO.P,U1,11,USBDP*%
%TO.N,/D+*%
X225132500Y-83662500D03*
%TO.P,U1,12,USBDM*%
%TO.N,/D-*%
X225132500Y-84297500D03*
%TO.P,U1,13,3V3OUT*%
%TO.N,3V3OUT*%
X225132500Y-84932500D03*
%TO.P,U1,14,~{RESET}*%
X225132500Y-85567500D03*
%TO.P,U1,15,VCC*%
%TO.N,VCC*%
X225132500Y-86202500D03*
%TO.P,U1,16,GND*%
%TO.N,Earth*%
X225132500Y-86837500D03*
%TO.P,U1,17,CBUS1*%
%TO.N,Net-(D1-K)*%
X225132500Y-87472500D03*
%TO.P,U1,18,CBUS0*%
%TO.N,SLEEP#*%
X225132500Y-88107500D03*
%TO.P,U1,19,CBUS3*%
%TO.N,unconnected-(U1-CBUS3-Pad19)*%
X225132500Y-88742500D03*
%TO.P,U1,20,TXD*%
%TO.N,TXD*%
X225132500Y-89377500D03*
%TD*%
D18*
%TO.P,C3,1*%
%TO.N,VCC*%
X236200000Y-77120000D03*
%TO.P,C3,2*%
%TO.N,Earth*%
X237160000Y-77120000D03*
%TD*%
D14*
%TO.P,C2,1*%
%TO.N,VCC*%
X221960000Y-84610000D03*
%TO.P,C2,2*%
%TO.N,Earth*%
X221000000Y-84610000D03*
%TD*%
%TO.P,C1,1*%
%TO.N,VCC*%
X221960000Y-85600000D03*
%TO.P,C1,2*%
%TO.N,Earth*%
X221000000Y-85600000D03*
%TD*%
D12*
%TO.P,D1,1,K*%
%TO.N,Net-(D1-K)*%
X244390000Y-103937500D03*
%TO.P,D1,2,A*%
%TO.N,Net-(D1-A)*%
X244390000Y-102362500D03*
%TD*%
D17*
%TO.P,TP1,1,1*%
%TO.N,VCC*%
X223770000Y-75240000D03*
%TD*%
D15*
%TO.P,REF\u002A\u002A,*%
%TO.N,*%
X255540000Y-71770000D03*
%TD*%
D27*
%TO.N,Earth*%
X223780000Y-78420000D03*
%TO.N,VCC*%
X230860000Y-97450000D03*
X224045000Y-99325000D03*
%TO.N,Earth*%
X229950000Y-103680000D03*
%TO.N,SLEEP#*%
X237855000Y-99000000D03*
%TO.N,VCC*%
X223770000Y-75240000D03*
%TO.N,~{DCD}*%
X229340000Y-85000000D03*
%TO.N,Net-(D2-K)*%
X221800000Y-104110000D03*
%TO.N,Earth*%
X236240000Y-98080000D03*
%TO.N,VCC*%
X244310000Y-97875000D03*
%TO.N,DTR*%
X239695000Y-91715000D03*
%TO.N,CTS*%
X237694679Y-94779937D03*
%TO.N,TX*%
X238411306Y-95135534D03*
%TO.N,VCC*%
X238505000Y-103380000D03*
%TO.N,Earth*%
X242020000Y-107440000D03*
X241820000Y-105120000D03*
X223300000Y-105250000D03*
X223550000Y-107410000D03*
X229350000Y-107590000D03*
X232110000Y-107460000D03*
X235180000Y-103210000D03*
%TO.N,~{DSR}*%
X233240000Y-85650000D03*
%TO.N,Earth*%
X234160000Y-87070000D03*
X226890000Y-79150000D03*
X237520000Y-82670000D03*
X242300000Y-77730000D03*
X226460000Y-75130000D03*
X220970000Y-77900000D03*
X223320000Y-81580000D03*
X220850000Y-87230000D03*
X227680000Y-89050000D03*
X221120000Y-95830000D03*
X225930000Y-94040000D03*
X225760000Y-100910000D03*
%TO.N,VCC*%
X235010000Y-76640000D03*
X229720000Y-76240000D03*
X233665000Y-75925000D03*
%TO.N,~{DSR}*%
X239130000Y-97520000D03*
%TO.N,RTS*%
X236380000Y-98990000D03*
%TO.N,DCD*%
X236860000Y-97310000D03*
%TO.N,~{RI}*%
X233880000Y-95670000D03*
%TO.N,~{RTS}*%
X233140000Y-96570000D03*
%TO.N,~{DCD}*%
X232500000Y-97100000D03*
%TO.N,~{DTR}*%
X235860000Y-90570000D03*
%TO.N,TXD*%
X235855000Y-91810000D03*
X234510735Y-91699265D03*
%TO.N,~{DTR}*%
X234510000Y-90250000D03*
%TO.N,Net-(D2-K)*%
X228302500Y-83662500D03*
%TO.N,Net-(D1-K)*%
X227480000Y-85190000D03*
%TO.N,~{RI}*%
X229040000Y-86780000D03*
%TO.N,~{RTS}*%
X229110000Y-88770000D03*
%TO.N,SLEEP#*%
X222210000Y-87670000D03*
X223432500Y-88790000D03*
%TO.N,Net-(D1-K)*%
X226680000Y-87390000D03*
%TO.N,SLEEP#*%
X226640000Y-88270000D03*
%TD*%
D28*
%TO.N,VCC*%
X230860000Y-94850000D02*
X230860000Y-97450000D01*
X230760000Y-94750000D02*
X230860000Y-94850000D01*
%TO.N,Earth*%
X223770000Y-78410000D02*
X223780000Y-78420000D01*
X223770000Y-78310000D02*
X223770000Y-78410000D01*
%TO.N,VCC*%
X224045000Y-99325000D02*
X220900000Y-99325000D01*
X224132500Y-99237500D02*
X224132500Y-87772500D01*
X224045000Y-99325000D02*
X224132500Y-99237500D01*
X224132500Y-87772500D02*
X222562500Y-86202500D01*
X229720000Y-94750000D02*
X229230000Y-94260000D01*
X231980000Y-94750000D02*
X229720000Y-94750000D01*
D29*
%TO.N,SLEEP#*%
X237805000Y-99050000D02*
X237805000Y-100550000D01*
X237855000Y-99000000D02*
X237805000Y-99050000D01*
X237966500Y-100711500D02*
X237805000Y-100550000D01*
D28*
%TO.N,VCC*%
X244310000Y-97875000D02*
X244400000Y-97965000D01*
X244400000Y-97965000D02*
X244400000Y-99325000D01*
D30*
X233665000Y-75925000D02*
X233890000Y-75700000D01*
X233890000Y-75700000D02*
X233890000Y-74250000D01*
X229720000Y-76240000D02*
X230150000Y-76240000D01*
X230150000Y-76240000D02*
X231390000Y-75000000D01*
X231390000Y-75000000D02*
X231390000Y-74250000D01*
%TO.N,Net-(IC1-V-)*%
X232605000Y-102595000D02*
X232680000Y-102670000D01*
X232605000Y-100550000D02*
X232605000Y-102595000D01*
%TO.N,~{DCD}*%
X230265000Y-85000000D02*
X230332500Y-84932500D01*
X229340000Y-85000000D02*
X230265000Y-85000000D01*
%TO.N,Net-(D2-K)*%
X221080000Y-104110000D02*
X220907500Y-103937500D01*
X221800000Y-104110000D02*
X221080000Y-104110000D01*
X228302500Y-83662500D02*
X230332500Y-83662500D01*
%TO.N,DTR*%
X239755000Y-91775000D02*
X239755000Y-93450000D01*
X239695000Y-91715000D02*
X239755000Y-91775000D01*
%TO.N,~{RI}*%
X235855000Y-99450000D02*
X235855000Y-100550000D01*
X235280000Y-98875000D02*
X235855000Y-99450000D01*
X235280000Y-97070000D02*
X235280000Y-98875000D01*
X233880000Y-95670000D02*
X235280000Y-97070000D01*
%TO.N,~{RTS}*%
X233140000Y-96570000D02*
X234555000Y-97985000D01*
X234555000Y-97985000D02*
X234555000Y-100550000D01*
%TO.N,~{DCD}*%
X233905000Y-98505000D02*
X233905000Y-100550000D01*
X232500000Y-97100000D02*
X233905000Y-98505000D01*
%TO.N,TX*%
X238380000Y-93525000D02*
X238455000Y-93450000D01*
X238380000Y-95104228D02*
X238380000Y-93525000D01*
X238411306Y-95135534D02*
X238380000Y-95104228D01*
%TO.N,CTS*%
X237694679Y-93560321D02*
X237805000Y-93450000D01*
X237694679Y-94779937D02*
X237694679Y-93560321D01*
%TO.N,Earth*%
X229385788Y-75090000D02*
X229801011Y-74674777D01*
X229220000Y-75090000D02*
X229385788Y-75090000D01*
X234080000Y-76750000D02*
X235030000Y-77700000D01*
X233980000Y-76750000D02*
X234080000Y-76750000D01*
%TO.N,~{RTS}*%
X230305000Y-88770000D02*
X230332500Y-88742500D01*
%TO.N,RTS*%
X239110000Y-93455000D02*
X239105000Y-93450000D01*
%TO.N,~{RI}*%
X230275000Y-86780000D02*
X230332500Y-86837500D01*
%TO.N,DSR*%
X236185001Y-106543000D02*
X236505000Y-106223001D01*
%TO.N,/D+*%
X232390000Y-74250000D02*
X232440000Y-74300000D01*
%TO.N,/D-*%
X233520000Y-81590000D02*
X233520000Y-81890000D01*
X232890000Y-76620000D02*
X233020000Y-76750000D01*
X233520000Y-79835000D02*
X233340000Y-79655000D01*
%TO.N,/D+*%
X232320000Y-76750000D02*
X232160000Y-76750000D01*
D28*
%TO.N,3V3OUT*%
X223657500Y-85567500D02*
X223610000Y-85520000D01*
D30*
%TO.N,Net-(D1-K)*%
X225220000Y-87560000D02*
X225132500Y-87472500D01*
D28*
%TO.N,Net-(D2-A)*%
X220907500Y-100982500D02*
X220900000Y-100975000D01*
%TO.N,Net-(D1-A)*%
X244390000Y-100985000D02*
X244400000Y-100975000D01*
D30*
%TO.N,TXD*%
X235805000Y-91760000D02*
X235855000Y-91810000D01*
%TO.N,Net-(D1-K)*%
X227480000Y-85190000D02*
X227490000Y-85180000D01*
%TO.N,VCC*%
X238372500Y-103247500D02*
X238505000Y-103380000D01*
D28*
X237155000Y-102030000D02*
X238372500Y-103247500D01*
D30*
X235110000Y-76640000D02*
X235010000Y-76640000D01*
%TO.N,SLEEP#*%
X222190000Y-87670000D02*
X222210000Y-87670000D01*
D29*
X223410000Y-88790000D02*
X223432500Y-88790000D01*
D28*
%TO.N,VCC*%
X231980000Y-94750000D02*
X233230000Y-94750000D01*
X221960000Y-77050000D02*
X221960000Y-84610000D01*
X221960000Y-85600000D02*
X221960000Y-84610000D01*
X233255000Y-94725000D02*
X233255000Y-93450000D01*
X225132500Y-86202500D02*
X224167500Y-86202500D01*
X225132500Y-86202500D02*
X222562500Y-86202500D01*
D30*
%TO.N,~{DSR}*%
X238455000Y-100550000D02*
X238455000Y-98195000D01*
%TO.N,~{RTS}*%
X229110000Y-88770000D02*
X230305000Y-88770000D01*
%TO.N,DCD*%
X234555000Y-95005000D02*
X234555000Y-93450000D01*
%TO.N,~{DTR}*%
X231187500Y-89377500D02*
X231670000Y-89860000D01*
%TO.N,DSR*%
X236505000Y-106223001D02*
X236505000Y-100550000D01*
%TO.N,~{DTR}*%
X236505000Y-91215000D02*
X235860000Y-90570000D01*
X234120000Y-89860000D02*
X231670000Y-89860000D01*
%TO.N,RTS*%
X236380000Y-98990000D02*
X239110000Y-96260000D01*
%TO.N,DCD*%
X236860000Y-97310000D02*
X234555000Y-95005000D01*
%TO.N,~{DSR}*%
X230332500Y-85567500D02*
X233157500Y-85567500D01*
%TO.N,RXD*%
X235205000Y-89875000D02*
X232802500Y-87472500D01*
%TO.N,~{DTR}*%
X236505000Y-93450000D02*
X236505000Y-91215000D01*
%TO.N,~{DSR}*%
X238455000Y-98195000D02*
X239130000Y-97520000D01*
%TO.N,~{DTR}*%
X234510000Y-90250000D02*
X234120000Y-89860000D01*
%TO.N,RTS*%
X239110000Y-96260000D02*
X239110000Y-93455000D01*
%TO.N,TXD*%
X226275000Y-90520000D02*
X225132500Y-89377500D01*
X233331470Y-90520000D02*
X226275000Y-90520000D01*
X234510735Y-91699265D02*
X233331470Y-90520000D01*
X235855000Y-93450000D02*
X235855000Y-91810000D01*
%TO.N,RI*%
X233255000Y-103435000D02*
X232107401Y-104582599D01*
%TO.N,~{CTS}*%
X237155000Y-85775000D02*
X235677500Y-84297500D01*
X235677500Y-84297500D02*
X230332500Y-84297500D01*
X237155000Y-93450000D02*
X237155000Y-85775000D01*
%TO.N,/D-*%
X227795000Y-82400000D02*
X225897500Y-84297500D01*
D28*
%TO.N,VCC*%
X231955000Y-93450000D02*
X231955000Y-94725000D01*
D30*
%TO.N,/D+*%
X231860000Y-78005000D02*
X231860000Y-77050000D01*
D28*
%TO.N,VCC*%
X237155000Y-100550000D02*
X237155000Y-102030000D01*
D30*
%TO.N,/D+*%
X232220000Y-80015000D02*
X231860000Y-79655000D01*
X225132500Y-83662500D02*
X227205000Y-81590000D01*
D28*
%TO.N,3V3OUT*%
X229367500Y-88107500D02*
X230332500Y-88107500D01*
X223610000Y-85520000D02*
X224545000Y-85520000D01*
D30*
%TO.N,/D+*%
X227205000Y-81590000D02*
X232220000Y-81590000D01*
%TO.N,/D-*%
X225897500Y-84297500D02*
X225132500Y-84297500D01*
D28*
%TO.N,3V3OUT*%
X224545000Y-85520000D02*
X225132500Y-84932500D01*
X226827500Y-85567500D02*
X229367500Y-88107500D01*
D30*
%TO.N,/D-*%
X233520000Y-81590000D02*
X233520000Y-79835000D01*
D28*
%TO.N,Net-(IC1-C1+)*%
X232605000Y-92005000D02*
X232420000Y-91820000D01*
X232605000Y-93450000D02*
X232605000Y-92005000D01*
%TO.N,VCC*%
X231955000Y-94725000D02*
X231980000Y-94750000D01*
X229230000Y-93210000D02*
X229230000Y-94260000D01*
X233230000Y-94750000D02*
X233255000Y-94725000D01*
D30*
%TO.N,/D-*%
X233520000Y-81890000D02*
X233010000Y-82400000D01*
D28*
%TO.N,3V3OUT*%
X225132500Y-85567500D02*
X223657500Y-85567500D01*
X225132500Y-85567500D02*
X226827500Y-85567500D01*
D30*
%TO.N,Net-(D1-K)*%
X244390000Y-103937500D02*
X240400000Y-99947500D01*
%TO.N,Net-(IC1-C2-)*%
X231955000Y-101485000D02*
X230850000Y-102590000D01*
%TO.N,Net-(IC1-C2+)*%
X231305000Y-100550000D02*
X229890000Y-101965000D01*
D28*
%TO.N,Net-(IC1-C1-)*%
X231305000Y-93450000D02*
X231305000Y-91975000D01*
D30*
%TO.N,Net-(D1-K)*%
X227480000Y-83411471D02*
X227480000Y-85230000D01*
X234895685Y-82950000D02*
X227941471Y-82950000D01*
X240400000Y-88454315D02*
X234895685Y-82950000D01*
%TO.N,~{RI}*%
X229040000Y-86780000D02*
X230275000Y-86780000D01*
D28*
%TO.N,Net-(D2-A)*%
X220907500Y-102362500D02*
X220907500Y-100982500D01*
D30*
%TO.N,RX*%
X239105000Y-105415000D02*
X239105000Y-100550000D01*
D28*
%TO.N,Net-(IC1-C1-)*%
X231305000Y-91975000D02*
X231460000Y-91820000D01*
%TO.N,Net-(D1-A)*%
X244390000Y-102362500D02*
X244390000Y-100985000D01*
D30*
%TO.N,Net-(D1-K)*%
X227941471Y-82950000D02*
X227480000Y-83411471D01*
%TO.N,Net-(IC1-C2-)*%
X231955000Y-100550000D02*
X231955000Y-101485000D01*
%TO.N,Net-(IC1-C2+)*%
X229890000Y-101965000D02*
X229890000Y-102590000D01*
D28*
%TO.N,VCC*%
X222562500Y-86202500D02*
X221960000Y-85600000D01*
X235590000Y-77120000D02*
X235110000Y-76640000D01*
X224167500Y-86202500D02*
X224132500Y-86237500D01*
X236200000Y-77120000D02*
X235590000Y-77120000D01*
X223770000Y-75240000D02*
X221960000Y-77050000D01*
D30*
%TO.N,/D+*%
X232220000Y-81590000D02*
X232220000Y-80015000D01*
X231860000Y-77050000D02*
X232160000Y-76750000D01*
X232440000Y-74300000D02*
X232440000Y-76630000D01*
X232440000Y-76630000D02*
X232320000Y-76750000D01*
%TO.N,/D-*%
X233340000Y-77070000D02*
X233020000Y-76750000D01*
X232890000Y-74250000D02*
X232890000Y-76620000D01*
X233340000Y-78005000D02*
X233340000Y-77070000D01*
X233010000Y-82400000D02*
X227795000Y-82400000D01*
%TO.N,Net-(D1-K)*%
X240400000Y-99947500D02*
X240400000Y-88454315D01*
X226680000Y-87390000D02*
X226510000Y-87560000D01*
X226510000Y-87560000D02*
X225220000Y-87560000D01*
X227480000Y-85230000D02*
X227480000Y-85190000D01*
D29*
%TO.N,SLEEP#*%
X226477500Y-88107500D02*
X225132500Y-88107500D01*
X223310000Y-88790000D02*
X223410000Y-88790000D01*
X226640000Y-88270000D02*
X226477500Y-88107500D01*
X222190000Y-87670000D02*
X223310000Y-88790000D01*
D30*
%TO.N,RX*%
X237016600Y-107503400D02*
X239105000Y-105415000D01*
X234800000Y-106516210D02*
X235787190Y-107503400D01*
X235787190Y-107503400D02*
X237016600Y-107503400D01*
X234800000Y-105542999D02*
X234800000Y-106516210D01*
%TO.N,~{DTR}*%
X230332500Y-89377500D02*
X231187500Y-89377500D01*
%TO.N,~{DSR}*%
X233157500Y-85567500D02*
X233240000Y-85650000D01*
%TO.N,RXD*%
X235205000Y-93450000D02*
X235205000Y-89875000D01*
X232802500Y-87472500D02*
X230332500Y-87472500D01*
%TO.N,RI*%
X233255000Y-100550000D02*
X233255000Y-103435000D01*
X228862189Y-104582599D02*
X227875002Y-105569786D01*
X232107401Y-104582599D02*
X228862189Y-104582599D01*
X227875002Y-105569786D02*
X227875002Y-106543000D01*
%TO.N,Net-(P1-CC)*%
X229623866Y-77390000D02*
X228870000Y-77390000D01*
X231890000Y-75123866D02*
X229623866Y-77390000D01*
X231890000Y-74250000D02*
X231890000Y-75123866D01*
%TD*%
%TA.AperFunction,Conductor*%
%TO.N,Earth*%
G36*
X225122381Y-89792352D02*
G01*
X226034540Y-90704511D01*
X226090489Y-90760460D01*
X226159011Y-90800021D01*
X226194478Y-90809524D01*
X226235436Y-90820500D01*
X226235438Y-90820500D01*
X233186703Y-90820500D01*
X233221351Y-90834852D01*
X233997885Y-91611386D01*
X234012237Y-91646034D01*
X234011738Y-91653007D01*
X234005088Y-91699263D01*
X234005088Y-91699267D01*
X234025568Y-91841719D01*
X234032756Y-91857457D01*
X234085358Y-91972638D01*
X234085359Y-91972639D01*
X234085360Y-91972641D01*
X234118032Y-92010346D01*
X234130000Y-92042434D01*
X234130000Y-92522913D01*
X234129516Y-92527836D01*
X234129736Y-92527858D01*
X234129500Y-92530253D01*
X234129500Y-94369749D01*
X234129736Y-94372145D01*
X234129512Y-94372167D01*
X234130000Y-94377088D01*
X234130000Y-94850000D01*
X234177833Y-94850000D01*
X234200261Y-94847588D01*
X234236245Y-94858153D01*
X234254219Y-94891068D01*
X234254500Y-94896307D01*
X234254500Y-95044563D01*
X234274978Y-95120987D01*
X234274979Y-95120991D01*
X234283373Y-95135529D01*
X234283376Y-95135533D01*
X234283377Y-95135534D01*
X234292018Y-95150501D01*
X234314537Y-95189507D01*
X234314542Y-95189513D01*
X236347150Y-97222121D01*
X236361502Y-97256769D01*
X236361003Y-97263742D01*
X236354353Y-97309998D01*
X236354353Y-97310002D01*
X236374833Y-97452454D01*
X236388392Y-97482143D01*
X236434623Y-97583373D01*
X236434624Y-97583374D01*
X236434625Y-97583376D01*
X236503149Y-97662457D01*
X236528872Y-97692143D01*
X236649947Y-97769953D01*
X236699126Y-97784393D01*
X236788034Y-97810499D01*
X236788037Y-97810499D01*
X236788039Y-97810500D01*
X236788040Y-97810500D01*
X236931960Y-97810500D01*
X236931961Y-97810500D01*
X236931963Y-97810499D01*
X236931965Y-97810499D01*
X237034528Y-97780384D01*
X237071816Y-97784393D01*
X237095348Y-97813594D01*
X237091339Y-97850882D01*
X237082981Y-97862047D01*
X236469880Y-98475148D01*
X236435232Y-98489500D01*
X236308034Y-98489500D01*
X236169949Y-98530046D01*
X236048871Y-98607857D01*
X235954625Y-98716623D01*
X235954624Y-98716625D01*
X235954623Y-98716626D01*
X235954623Y-98716627D01*
X235951027Y-98724501D01*
X235894834Y-98847544D01*
X235881447Y-98940653D01*
X235862311Y-98972906D01*
X235825972Y-98982180D01*
X235798298Y-98968327D01*
X235594852Y-98764881D01*
X235580500Y-98730233D01*
X235580500Y-97030436D01*
X235571843Y-96998134D01*
X235560021Y-96954011D01*
X235560020Y-96954009D01*
X235560020Y-96954008D01*
X235520459Y-96885488D01*
X234392848Y-95757877D01*
X234378496Y-95723229D01*
X234378993Y-95716270D01*
X234385647Y-95670000D01*
X234385647Y-95669997D01*
X234365166Y-95527545D01*
X234360091Y-95516433D01*
X234305377Y-95396627D01*
X234211128Y-95287857D01*
X234090053Y-95210047D01*
X234090050Y-95210046D01*
X233951965Y-95169500D01*
X233951961Y-95169500D01*
X233808039Y-95169500D01*
X233808034Y-95169500D01*
X233669949Y-95210046D01*
X233548871Y-95287857D01*
X233454625Y-95396623D01*
X233454624Y-95396625D01*
X233394833Y-95527545D01*
X233374353Y-95669997D01*
X233374353Y-95670002D01*
X233394833Y-95812454D01*
X233426935Y-95882746D01*
X233454623Y-95943373D01*
X233454624Y-95943374D01*
X233454625Y-95943376D01*
X233548871Y-96052142D01*
X233548872Y-96052143D01*
X233669947Y-96129953D01*
X233737813Y-96149880D01*
X233808034Y-96170499D01*
X233808037Y-96170499D01*
X233808039Y-96170500D01*
X233808040Y-96170500D01*
X233935233Y-96170500D01*
X233969881Y-96184852D01*
X234965148Y-97180119D01*
X234979500Y-97214767D01*
X234979500Y-98914563D01*
X234999979Y-98990989D01*
X234999979Y-98990991D01*
X235022249Y-99029562D01*
X235039540Y-99059511D01*
X235345881Y-99365852D01*
X235360233Y-99400500D01*
X235345881Y-99435148D01*
X235311233Y-99449500D01*
X234960252Y-99449500D01*
X234941151Y-99453299D01*
X234914058Y-99458688D01*
X234877276Y-99451370D01*
X234856441Y-99420187D01*
X234855500Y-99410629D01*
X234855500Y-97945436D01*
X234843899Y-97902143D01*
X234835021Y-97869011D01*
X234835020Y-97869009D01*
X234835020Y-97869008D01*
X234795459Y-97800488D01*
X233652848Y-96657877D01*
X233638496Y-96623229D01*
X233638993Y-96616270D01*
X233645647Y-96570000D01*
X233625165Y-96427543D01*
X233565377Y-96296627D01*
X233471128Y-96187857D01*
X233350053Y-96110047D01*
X233350050Y-96110046D01*
X233211965Y-96069500D01*
X233211961Y-96069500D01*
X233068039Y-96069500D01*
X233068034Y-96069500D01*
X232929949Y-96110046D01*
X232808871Y-96187857D01*
X232714625Y-96296623D01*
X232714624Y-96296625D01*
X232654835Y-96427543D01*
X232654833Y-96427544D01*
X232635803Y-96559908D01*
X232616667Y-96592162D01*
X232580329Y-96601436D01*
X232573501Y-96599951D01*
X232571968Y-96599501D01*
X232571961Y-96599500D01*
X232428039Y-96599500D01*
X232428034Y-96599500D01*
X232289949Y-96640046D01*
X232289947Y-96640046D01*
X232289947Y-96640047D01*
X232262203Y-96657877D01*
X232168871Y-96717857D01*
X232074625Y-96826623D01*
X232074624Y-96826625D01*
X232014833Y-96957545D01*
X231994353Y-97099997D01*
X231994353Y-97100002D01*
X232014833Y-97242454D01*
X232044226Y-97306814D01*
X232074623Y-97373373D01*
X232074624Y-97373374D01*
X232074625Y-97373376D01*
X232143149Y-97452457D01*
X232168872Y-97482143D01*
X232289947Y-97559953D01*
X232366785Y-97582514D01*
X232428034Y-97600499D01*
X232428037Y-97600499D01*
X232428039Y-97600500D01*
X232428040Y-97600500D01*
X232555233Y-97600500D01*
X232589881Y-97614852D01*
X233590148Y-98615119D01*
X233604500Y-98649767D01*
X233604500Y-99410629D01*
X233590148Y-99445277D01*
X233555500Y-99459629D01*
X233545942Y-99458688D01*
X233518848Y-99453299D01*
X233499748Y-99449500D01*
X233010252Y-99449500D01*
X232986146Y-99454295D01*
X232951766Y-99461133D01*
X232948748Y-99462384D01*
X232911252Y-99462384D01*
X232908233Y-99461133D01*
X232884837Y-99456479D01*
X232849748Y-99449500D01*
X232360252Y-99449500D01*
X232336146Y-99454295D01*
X232301766Y-99461133D01*
X232298748Y-99462384D01*
X232261252Y-99462384D01*
X232258233Y-99461133D01*
X232234837Y-99456479D01*
X232199748Y-99449500D01*
X231710252Y-99449500D01*
X231686146Y-99454295D01*
X231651766Y-99461133D01*
X231648748Y-99462384D01*
X231611252Y-99462384D01*
X231608233Y-99461133D01*
X231584837Y-99456479D01*
X231549748Y-99449500D01*
X231060252Y-99449500D01*
X231005499Y-99460391D01*
X231001769Y-99461133D01*
X230935447Y-99505447D01*
X230901323Y-99556519D01*
X230891133Y-99571769D01*
X230879500Y-99630252D01*
X230879500Y-99630255D01*
X230879500Y-100530233D01*
X230865148Y-100564881D01*
X229649541Y-101780488D01*
X229649540Y-101780488D01*
X229609979Y-101849008D01*
X229609979Y-101849010D01*
X229589500Y-101925436D01*
X229589500Y-102087925D01*
X229575148Y-102122573D01*
X229561211Y-102132333D01*
X229551682Y-102136776D01*
X229466777Y-102221681D01*
X229466776Y-102221683D01*
X229416029Y-102330510D01*
X229416028Y-102330511D01*
X229416028Y-102330513D01*
X229410000Y-102376305D01*
X229409500Y-102380102D01*
X229409500Y-102799896D01*
X229409501Y-102799901D01*
X229416027Y-102849487D01*
X229466776Y-102958316D01*
X229466777Y-102958318D01*
X229551681Y-103043222D01*
X229551683Y-103043223D01*
X229551684Y-103043224D01*
X229660513Y-103093972D01*
X229710099Y-103100500D01*
X230069900Y-103100499D01*
X230119487Y-103093972D01*
X230228316Y-103043224D01*
X230313224Y-102958316D01*
X230325591Y-102931795D01*
X230353241Y-102906458D01*
X230390708Y-102908094D01*
X230414409Y-102931795D01*
X230426776Y-102958316D01*
X230426777Y-102958318D01*
X230511681Y-103043222D01*
X230511683Y-103043223D01*
X230511684Y-103043224D01*
X230620513Y-103093972D01*
X230670099Y-103100500D01*
X230962564Y-103100499D01*
X230997212Y-103114851D01*
X231004740Y-103124556D01*
X231070277Y-103235373D01*
X231070281Y-103235378D01*
X231184621Y-103349718D01*
X231184626Y-103349722D01*
X231323802Y-103432031D01*
X231469999Y-103474505D01*
X231470000Y-103474504D01*
X231470000Y-102469000D01*
X231484352Y-102434352D01*
X231519000Y-102420000D01*
X231921000Y-102420000D01*
X231955648Y-102434352D01*
X231970000Y-102469000D01*
X231970000Y-103474505D01*
X232116197Y-103432031D01*
X232255373Y-103349722D01*
X232255378Y-103349718D01*
X232369718Y-103235378D01*
X232393207Y-103195659D01*
X232423197Y-103173141D01*
X232446790Y-103173520D01*
X232446796Y-103173482D01*
X232447133Y-103173526D01*
X232449095Y-103173558D01*
X232450507Y-103173969D01*
X232450513Y-103173972D01*
X232500099Y-103180500D01*
X232859900Y-103180499D01*
X232899106Y-103175338D01*
X232935330Y-103185045D01*
X232954081Y-103217524D01*
X232954500Y-103223919D01*
X232954500Y-103290233D01*
X232940148Y-103324881D01*
X231997282Y-104267747D01*
X231962634Y-104282099D01*
X228822625Y-104282099D01*
X228746199Y-104302578D01*
X228746197Y-104302578D01*
X228677677Y-104342139D01*
X228677677Y-104342140D01*
X227634543Y-105385274D01*
X227634542Y-105385274D01*
X227594981Y-105453794D01*
X227594981Y-105453796D01*
X227574502Y-105530222D01*
X227574502Y-105702597D01*
X227560150Y-105737245D01*
X227545433Y-105747361D01*
X227506950Y-105764494D01*
X227442181Y-105793332D01*
X227442180Y-105793333D01*
X227295768Y-105899707D01*
X227174686Y-106034184D01*
X227174680Y-106034192D01*
X227084201Y-106190908D01*
X227084199Y-106190911D01*
X227028276Y-106363022D01*
X227026134Y-106383400D01*
X227009360Y-106543000D01*
X227028276Y-106722977D01*
X227084199Y-106895088D01*
X227174683Y-107051812D01*
X227174686Y-107051815D01*
X227295768Y-107186292D01*
X227295772Y-107186295D01*
X227295774Y-107186297D01*
X227442181Y-107292668D01*
X227607504Y-107366274D01*
X227784518Y-107403900D01*
X227965486Y-107403900D01*
X228142500Y-107366274D01*
X228307823Y-107292668D01*
X228454230Y-107186297D01*
X228575321Y-107051812D01*
X228665805Y-106895088D01*
X228721728Y-106722977D01*
X228740644Y-106543000D01*
X228721728Y-106363023D01*
X228705818Y-106314058D01*
X228708760Y-106276673D01*
X228737278Y-106252316D01*
X228774665Y-106255258D01*
X228781210Y-106259269D01*
X228827179Y-106292667D01*
X228992502Y-106366273D01*
X229169516Y-106403899D01*
X229350484Y-106403899D01*
X229527498Y-106366273D01*
X229692821Y-106292667D01*
X229738783Y-106259273D01*
X229775247Y-106250518D01*
X229807224Y-106270113D01*
X229815980Y-106306579D01*
X229814185Y-106314056D01*
X229798275Y-106363020D01*
X229796133Y-106383400D01*
X229779359Y-106543000D01*
X229798275Y-106722977D01*
X229854198Y-106895088D01*
X229944682Y-107051812D01*
X229944685Y-107051815D01*
X230065767Y-107186292D01*
X230065771Y-107186295D01*
X230065773Y-107186297D01*
X230212180Y-107292668D01*
X230377503Y-107366274D01*
X230554517Y-107403900D01*
X230735485Y-107403900D01*
X230912499Y-107366274D01*
X231077822Y-107292668D01*
X231224229Y-107186297D01*
X231345320Y-107051812D01*
X231435804Y-106895088D01*
X231491727Y-106722977D01*
X231510643Y-106543000D01*
X231491727Y-106363023D01*
X231475817Y-106314057D01*
X231478760Y-106276672D01*
X231507277Y-106252315D01*
X231544664Y-106255258D01*
X231551207Y-106259266D01*
X231597179Y-106292667D01*
X231762502Y-106366273D01*
X231939516Y-106403899D01*
X232120484Y-106403899D01*
X232297498Y-106366273D01*
X232462821Y-106292667D01*
X232508783Y-106259273D01*
X232545247Y-106250518D01*
X232577224Y-106270113D01*
X232585980Y-106306579D01*
X232584185Y-106314056D01*
X232568275Y-106363020D01*
X232566133Y-106383400D01*
X232549359Y-106543000D01*
X232568275Y-106722977D01*
X232624198Y-106895088D01*
X232714682Y-107051812D01*
X232714685Y-107051815D01*
X232835767Y-107186292D01*
X232835771Y-107186295D01*
X232835773Y-107186297D01*
X232982180Y-107292668D01*
X233147503Y-107366274D01*
X233324517Y-107403900D01*
X233505485Y-107403900D01*
X233682499Y-107366274D01*
X233847822Y-107292668D01*
X233994229Y-107186297D01*
X234115320Y-107051812D01*
X234205804Y-106895088D01*
X234261727Y-106722977D01*
X234280643Y-106543000D01*
X234261727Y-106363023D01*
X234245817Y-106314057D01*
X234248760Y-106276672D01*
X234277277Y-106252315D01*
X234314664Y-106255258D01*
X234321207Y-106259266D01*
X234367179Y-106292667D01*
X234470430Y-106338636D01*
X234496245Y-106365840D01*
X234499500Y-106383400D01*
X234499500Y-106555772D01*
X234519979Y-106632199D01*
X234535446Y-106658988D01*
X234535447Y-106658989D01*
X234559537Y-106700717D01*
X234559539Y-106700719D01*
X234559540Y-106700721D01*
X235546730Y-107687911D01*
X235602679Y-107743860D01*
X235671201Y-107783421D01*
X235706668Y-107792924D01*
X235747626Y-107803900D01*
X235747628Y-107803900D01*
X237056164Y-107803900D01*
X237082830Y-107796754D01*
X237132589Y-107783421D01*
X237201111Y-107743860D01*
X237257060Y-107687911D01*
X238285416Y-106659553D01*
X238320063Y-106645202D01*
X238354711Y-106659554D01*
X238369063Y-106694202D01*
X238366665Y-106709342D01*
X238357518Y-106737496D01*
X238357515Y-106737507D01*
X238325392Y-106940326D01*
X238325392Y-107145673D01*
X238357515Y-107348492D01*
X238357516Y-107348495D01*
X238420972Y-107543793D01*
X238514198Y-107726759D01*
X238610316Y-107859054D01*
X238634900Y-107892891D01*
X238634904Y-107892896D01*
X238780095Y-108038087D01*
X238780098Y-108038089D01*
X238780102Y-108038093D01*
X238839008Y-108080891D01*
X238858603Y-108112867D01*
X238849848Y-108149334D01*
X238817871Y-108168929D01*
X238810206Y-108169532D01*
X225849236Y-108169532D01*
X225814588Y-108155180D01*
X225800236Y-108120532D01*
X225814588Y-108085884D01*
X225839677Y-108072474D01*
X225892340Y-108061998D01*
X225936441Y-108053226D01*
X226127638Y-107974029D01*
X226299710Y-107859054D01*
X226446046Y-107712718D01*
X226561021Y-107540646D01*
X226640218Y-107349449D01*
X226680592Y-107146475D01*
X226680592Y-106939525D01*
X226640218Y-106736551D01*
X226561021Y-106545354D01*
X226446046Y-106373282D01*
X226299710Y-106226946D01*
X226127638Y-106111971D01*
X226127635Y-106111969D01*
X226127634Y-106111969D01*
X225936444Y-106032775D01*
X225936442Y-106032774D01*
X225936441Y-106032774D01*
X225936438Y-106032773D01*
X225936429Y-106032771D01*
X225733472Y-105992400D01*
X225733467Y-105992400D01*
X225526517Y-105992400D01*
X225526511Y-105992400D01*
X225323554Y-106032771D01*
X225323539Y-106032775D01*
X225132349Y-106111969D01*
X224960274Y-106226945D01*
X224813937Y-106373282D01*
X224698961Y-106545357D01*
X224619767Y-106736547D01*
X224619763Y-106736562D01*
X224579392Y-106939519D01*
X224579392Y-107146480D01*
X224619763Y-107349437D01*
X224619767Y-107349452D01*
X224642320Y-107403900D01*
X224698963Y-107540646D01*
X224813938Y-107712718D01*
X224960274Y-107859054D01*
X225132346Y-107974029D01*
X225323543Y-108053226D01*
X225351532Y-108058793D01*
X225420307Y-108072474D01*
X225451490Y-108093309D01*
X225458806Y-108130091D01*
X225437971Y-108161274D01*
X225410748Y-108169532D01*
X217794500Y-108169532D01*
X217759852Y-108155180D01*
X217745500Y-108120532D01*
X217745500Y-105719500D01*
X217759852Y-105684852D01*
X217794500Y-105670500D01*
X219418842Y-105670500D01*
X219573497Y-105639737D01*
X219719179Y-105579394D01*
X219850289Y-105491789D01*
X219961789Y-105380289D01*
X220049394Y-105249179D01*
X220109737Y-105103497D01*
X220140500Y-104948842D01*
X220140500Y-104870000D01*
X220140500Y-104804108D01*
X220140500Y-104234141D01*
X220154852Y-104199493D01*
X220189500Y-104185141D01*
X220224148Y-104199493D01*
X220237896Y-104226474D01*
X220247549Y-104287420D01*
X220247549Y-104287421D01*
X220247550Y-104287422D01*
X220307838Y-104405746D01*
X220307842Y-104405751D01*
X220401748Y-104499657D01*
X220401753Y-104499661D01*
X220481160Y-104540120D01*
X220520080Y-104559951D01*
X220618254Y-104575500D01*
X220618255Y-104575500D01*
X221196745Y-104575500D01*
X221196746Y-104575500D01*
X221294920Y-104559951D01*
X221413251Y-104499658D01*
X221413257Y-104499651D01*
X221416374Y-104497389D01*
X221417440Y-104498857D01*
X221446292Y-104486892D01*
X221472804Y-104494670D01*
X221589947Y-104569953D01*
X221666785Y-104592514D01*
X221728034Y-104610499D01*
X221728037Y-104610499D01*
X221728039Y-104610500D01*
X221728040Y-104610500D01*
X221871960Y-104610500D01*
X221871961Y-104610500D01*
X221871963Y-104610499D01*
X221871965Y-104610499D01*
X221894795Y-104603795D01*
X222010053Y-104569953D01*
X222131128Y-104492143D01*
X222225377Y-104383373D01*
X222285165Y-104252457D01*
X222285165Y-104252455D01*
X222285166Y-104252454D01*
X222305647Y-104110002D01*
X222305647Y-104109997D01*
X222285166Y-103967545D01*
X222245413Y-103880500D01*
X222225377Y-103836627D01*
X222220487Y-103830984D01*
X222131128Y-103727857D01*
X222091961Y-103702686D01*
X222010053Y-103650047D01*
X222010050Y-103650046D01*
X221871965Y-103609500D01*
X221871961Y-103609500D01*
X221728039Y-103609500D01*
X221728034Y-103609500D01*
X221631387Y-103637879D01*
X221594099Y-103633870D01*
X221570567Y-103604669D01*
X221569185Y-103598528D01*
X221567451Y-103587580D01*
X221507162Y-103469255D01*
X221507157Y-103469248D01*
X221413251Y-103375342D01*
X221413246Y-103375338D01*
X221294922Y-103315050D01*
X221294921Y-103315049D01*
X221294920Y-103315049D01*
X221196746Y-103299500D01*
X220618254Y-103299500D01*
X220520080Y-103315049D01*
X220520078Y-103315049D01*
X220520077Y-103315050D01*
X220401753Y-103375338D01*
X220401748Y-103375342D01*
X220307842Y-103469248D01*
X220307838Y-103469253D01*
X220247550Y-103587576D01*
X220247549Y-103587578D01*
X220247549Y-103587580D01*
X220240218Y-103633870D01*
X220237897Y-103648524D01*
X220218301Y-103680500D01*
X220181834Y-103689255D01*
X220149858Y-103669659D01*
X220140500Y-103640858D01*
X220140500Y-102659141D01*
X220154852Y-102624493D01*
X220189500Y-102610141D01*
X220224148Y-102624493D01*
X220237896Y-102651474D01*
X220247549Y-102712420D01*
X220247549Y-102712421D01*
X220247550Y-102712422D01*
X220307838Y-102830746D01*
X220307842Y-102830751D01*
X220401748Y-102924657D01*
X220401753Y-102924661D01*
X220467806Y-102958316D01*
X220520080Y-102984951D01*
X220618254Y-103000500D01*
X220618255Y-103000500D01*
X221196745Y-103000500D01*
X221196746Y-103000500D01*
X221294920Y-102984951D01*
X221403774Y-102929487D01*
X221413246Y-102924661D01*
X221413247Y-102924659D01*
X221413251Y-102924658D01*
X221507158Y-102830751D01*
X221522878Y-102799900D01*
X221543251Y-102759914D01*
X221567451Y-102712420D01*
X221583000Y-102614246D01*
X221583000Y-102110754D01*
X221567451Y-102012580D01*
X221523049Y-101925436D01*
X221507161Y-101894253D01*
X221507157Y-101894248D01*
X221413254Y-101800345D01*
X221413251Y-101800342D01*
X221413249Y-101800341D01*
X221413248Y-101800340D01*
X221334754Y-101760345D01*
X221310398Y-101731827D01*
X221308000Y-101716686D01*
X221308000Y-101586750D01*
X221322352Y-101552102D01*
X221334746Y-101543095D01*
X221413342Y-101503050D01*
X221503050Y-101413342D01*
X221503054Y-101413335D01*
X221560644Y-101300309D01*
X221560644Y-101300307D01*
X221560646Y-101300304D01*
X221575500Y-101206519D01*
X221575499Y-100743482D01*
X221560646Y-100649696D01*
X221553160Y-100635004D01*
X221503054Y-100536664D01*
X221503049Y-100536657D01*
X221413342Y-100446950D01*
X221413335Y-100446945D01*
X221300308Y-100389355D01*
X221300305Y-100389354D01*
X221300304Y-100389354D01*
X221206519Y-100374500D01*
X221206517Y-100374500D01*
X220593482Y-100374500D01*
X220499696Y-100389353D01*
X220386664Y-100446945D01*
X220386657Y-100446950D01*
X220296950Y-100536657D01*
X220296945Y-100536664D01*
X220239355Y-100649690D01*
X220239355Y-100649692D01*
X220239354Y-100649694D01*
X220239354Y-100649696D01*
X220237895Y-100658901D01*
X220218301Y-100690876D01*
X220181834Y-100699631D01*
X220149858Y-100680035D01*
X220140500Y-100651234D01*
X220140500Y-99648770D01*
X220154852Y-99614122D01*
X220189500Y-99599770D01*
X220224148Y-99614122D01*
X220237897Y-99641106D01*
X220239353Y-99650303D01*
X220296945Y-99763335D01*
X220296950Y-99763342D01*
X220386657Y-99853049D01*
X220386664Y-99853054D01*
X220499691Y-99910644D01*
X220499692Y-99910644D01*
X220499696Y-99910646D01*
X220593481Y-99925500D01*
X221206518Y-99925499D01*
X221300304Y-99910646D01*
X221361387Y-99879522D01*
X221413335Y-99853054D01*
X221413337Y-99853052D01*
X221413342Y-99853050D01*
X221503050Y-99763342D01*
X221508700Y-99752252D01*
X221537219Y-99727898D01*
X221552359Y-99725500D01*
X223728049Y-99725500D01*
X223754540Y-99733279D01*
X223834947Y-99784953D01*
X223895501Y-99802733D01*
X223973034Y-99825499D01*
X223973037Y-99825499D01*
X223973039Y-99825500D01*
X223973040Y-99825500D01*
X224116960Y-99825500D01*
X224116961Y-99825500D01*
X224116963Y-99825499D01*
X224116965Y-99825499D01*
X224139795Y-99818795D01*
X224255053Y-99784953D01*
X224376128Y-99707143D01*
X224470377Y-99598373D01*
X224530165Y-99467457D01*
X224530165Y-99467455D01*
X224530166Y-99467454D01*
X224537590Y-99415811D01*
X224550647Y-99325000D01*
X224533500Y-99205738D01*
X224533001Y-99198765D01*
X224533001Y-99181777D01*
X224533000Y-99181759D01*
X224533000Y-94510000D01*
X227491210Y-94510000D01*
X227492854Y-94530913D01*
X227537969Y-94686198D01*
X227620277Y-94825373D01*
X227620281Y-94825378D01*
X227734621Y-94939718D01*
X227734626Y-94939722D01*
X227873802Y-95022031D01*
X228019999Y-95064505D01*
X228520000Y-95064505D01*
X228666197Y-95022031D01*
X228805373Y-94939722D01*
X228805378Y-94939718D01*
X228919718Y-94825378D01*
X228943207Y-94785659D01*
X228973197Y-94763141D01*
X228996790Y-94763520D01*
X228996796Y-94763482D01*
X228997133Y-94763526D01*
X228999095Y-94763558D01*
X229000507Y-94763969D01*
X229000513Y-94763972D01*
X229050099Y-94770500D01*
X229153811Y-94770499D01*
X229188457Y-94784849D01*
X229188459Y-94784851D01*
X229397804Y-94994196D01*
X229397809Y-94994202D01*
X229399520Y-94995913D01*
X229474087Y-95070480D01*
X229518137Y-95095912D01*
X229565410Y-95123206D01*
X229565412Y-95123206D01*
X229565413Y-95123207D01*
X229599366Y-95132305D01*
X229667271Y-95150501D01*
X229667273Y-95150501D01*
X229775724Y-95150501D01*
X229775740Y-95150500D01*
X230410500Y-95150500D01*
X230445148Y-95164852D01*
X230459500Y-95199500D01*
X230459500Y-97129641D01*
X230447532Y-97161728D01*
X230434626Y-97176622D01*
X230434623Y-97176626D01*
X230374833Y-97307545D01*
X230354353Y-97449997D01*
X230354353Y-97450002D01*
X230374833Y-97592454D01*
X230406802Y-97662454D01*
X230434623Y-97723373D01*
X230434624Y-97723374D01*
X230434625Y-97723376D01*
X230510118Y-97810500D01*
X230528872Y-97832143D01*
X230649947Y-97909953D01*
X230709803Y-97927528D01*
X230788034Y-97950499D01*
X230788037Y-97950499D01*
X230788039Y-97950500D01*
X230788040Y-97950500D01*
X230931960Y-97950500D01*
X230931961Y-97950500D01*
X230931963Y-97950499D01*
X230931965Y-97950499D01*
X230970871Y-97939075D01*
X231070053Y-97909953D01*
X231191128Y-97832143D01*
X231285377Y-97723373D01*
X231345165Y-97592457D01*
X231345165Y-97592455D01*
X231345166Y-97592454D01*
X231365647Y-97450002D01*
X231365647Y-97449997D01*
X231345166Y-97307545D01*
X231336944Y-97289542D01*
X231285377Y-97176627D01*
X231285373Y-97176622D01*
X231272468Y-97161728D01*
X231260500Y-97129641D01*
X231260500Y-95199500D01*
X231274852Y-95164852D01*
X231309500Y-95150500D01*
X233282730Y-95150500D01*
X233282730Y-95150499D01*
X233384588Y-95123207D01*
X233475913Y-95070480D01*
X233575480Y-94970913D01*
X233605038Y-94919717D01*
X233619377Y-94894881D01*
X233629813Y-94876806D01*
X233630804Y-94877378D01*
X233654449Y-94853731D01*
X233673203Y-94850000D01*
X233680000Y-94850000D01*
X233680000Y-94377088D01*
X233680487Y-94372167D01*
X233680264Y-94372145D01*
X233680500Y-94369749D01*
X233680500Y-92530253D01*
X233680264Y-92527858D01*
X233680483Y-92527836D01*
X233680000Y-92522913D01*
X233680000Y-92050000D01*
X233632166Y-92050000D01*
X233572627Y-92056401D01*
X233572626Y-92056401D01*
X233437908Y-92106648D01*
X233322811Y-92192811D01*
X233236647Y-92307909D01*
X233233025Y-92317623D01*
X233207470Y-92345072D01*
X233187114Y-92349500D01*
X233054500Y-92349500D01*
X233019852Y-92335148D01*
X233005500Y-92300500D01*
X233005500Y-92061683D01*
X233005501Y-92061670D01*
X233005501Y-91952272D01*
X232980094Y-91857457D01*
X232978207Y-91850413D01*
X232963286Y-91824569D01*
X232925480Y-91759087D01*
X232914851Y-91748458D01*
X232900499Y-91713810D01*
X232900499Y-91610103D01*
X232900499Y-91610102D01*
X232900499Y-91610100D01*
X232893972Y-91560513D01*
X232893971Y-91560511D01*
X232867405Y-91503541D01*
X232843224Y-91451684D01*
X232843223Y-91451683D01*
X232843222Y-91451681D01*
X232758318Y-91366777D01*
X232758316Y-91366776D01*
X232722441Y-91350047D01*
X232649488Y-91316028D01*
X232639569Y-91314722D01*
X232599901Y-91309500D01*
X232599897Y-91309500D01*
X232240103Y-91309500D01*
X232240098Y-91309501D01*
X232190512Y-91316027D01*
X232081683Y-91366776D01*
X232081681Y-91366777D01*
X231996777Y-91451681D01*
X231984409Y-91478205D01*
X231956758Y-91503541D01*
X231919291Y-91501905D01*
X231895591Y-91478205D01*
X231895490Y-91477989D01*
X231883224Y-91451684D01*
X231883222Y-91451682D01*
X231883222Y-91451681D01*
X231798318Y-91366777D01*
X231798316Y-91366776D01*
X231762441Y-91350047D01*
X231689488Y-91316028D01*
X231679569Y-91314722D01*
X231639901Y-91309500D01*
X231639897Y-91309500D01*
X231280103Y-91309500D01*
X231280098Y-91309501D01*
X231230512Y-91316027D01*
X231121683Y-91366776D01*
X231121681Y-91366777D01*
X231036777Y-91451681D01*
X231036776Y-91451683D01*
X230986029Y-91560510D01*
X230986028Y-91560511D01*
X230986028Y-91560512D01*
X230986028Y-91560513D01*
X230979501Y-91610098D01*
X230979500Y-91610102D01*
X230979500Y-91724651D01*
X230972935Y-91749151D01*
X230931793Y-91820409D01*
X230931792Y-91820412D01*
X230921867Y-91857457D01*
X230904500Y-91922270D01*
X230904500Y-92436900D01*
X230896242Y-92464122D01*
X230891133Y-92471767D01*
X230886479Y-92495162D01*
X230879500Y-92530252D01*
X230879500Y-92530253D01*
X230879500Y-92530255D01*
X230879500Y-94300500D01*
X230865148Y-94335148D01*
X230830500Y-94349500D01*
X229906188Y-94349500D01*
X229871540Y-94335148D01*
X229724851Y-94188458D01*
X229710499Y-94153810D01*
X229710499Y-94050103D01*
X229710499Y-94050100D01*
X229703972Y-94000513D01*
X229698643Y-93989086D01*
X229680307Y-93949764D01*
X229653224Y-93891684D01*
X229653223Y-93891683D01*
X229653222Y-93891681D01*
X229644852Y-93883311D01*
X229630500Y-93848663D01*
X229630500Y-93621336D01*
X229644852Y-93586688D01*
X229653224Y-93578316D01*
X229703972Y-93469487D01*
X229710500Y-93419901D01*
X229710499Y-93000100D01*
X229703972Y-92950513D01*
X229698643Y-92939086D01*
X229680307Y-92899764D01*
X229653224Y-92841684D01*
X229653223Y-92841683D01*
X229653222Y-92841681D01*
X229568318Y-92756777D01*
X229568316Y-92756776D01*
X229459489Y-92706029D01*
X229459488Y-92706028D01*
X229449569Y-92704722D01*
X229409901Y-92699500D01*
X229409897Y-92699500D01*
X229050103Y-92699500D01*
X229050098Y-92699501D01*
X229000508Y-92706028D01*
X228999088Y-92706442D01*
X228998148Y-92706338D01*
X228996795Y-92706517D01*
X228996751Y-92706185D01*
X228961808Y-92702352D01*
X228943209Y-92684340D01*
X228919722Y-92644626D01*
X228919718Y-92644621D01*
X228805378Y-92530281D01*
X228805373Y-92530277D01*
X228666198Y-92447969D01*
X228520000Y-92405493D01*
X228520000Y-95064505D01*
X228019999Y-95064505D01*
X228020000Y-95064504D01*
X228020000Y-94510000D01*
X227491210Y-94510000D01*
X224533000Y-94510000D01*
X224533000Y-94009999D01*
X227491208Y-94009999D01*
X227491209Y-94010000D01*
X228020000Y-94010000D01*
X228020000Y-93460000D01*
X227491210Y-93460000D01*
X227492854Y-93480913D01*
X227537968Y-93636196D01*
X227581649Y-93710057D01*
X227586934Y-93747186D01*
X227581649Y-93759943D01*
X227537968Y-93833803D01*
X227492854Y-93989085D01*
X227492854Y-93989086D01*
X227491208Y-94009999D01*
X224533000Y-94009999D01*
X224533000Y-92959999D01*
X227491208Y-92959999D01*
X227491209Y-92960000D01*
X228020000Y-92960000D01*
X228020000Y-92405494D01*
X228019999Y-92405493D01*
X227873801Y-92447969D01*
X227734626Y-92530277D01*
X227734621Y-92530281D01*
X227620281Y-92644621D01*
X227620277Y-92644626D01*
X227537969Y-92783801D01*
X227492854Y-92939085D01*
X227492854Y-92939086D01*
X227491208Y-92959999D01*
X224533000Y-92959999D01*
X224533000Y-89827000D01*
X224547352Y-89792352D01*
X224582000Y-89778000D01*
X225087733Y-89778000D01*
X225122381Y-89792352D01*
G37*
%TD.AperFunction*%
%TA.AperFunction,Conductor*%
G36*
X240264148Y-100236619D02*
G01*
X243700148Y-103672619D01*
X243714500Y-103707267D01*
X243714500Y-104189246D01*
X243730049Y-104287420D01*
X243730049Y-104287421D01*
X243730050Y-104287422D01*
X243790338Y-104405746D01*
X243790342Y-104405751D01*
X243884248Y-104499657D01*
X243884253Y-104499661D01*
X243963660Y-104540120D01*
X244002580Y-104559951D01*
X244100754Y-104575500D01*
X244100755Y-104575500D01*
X244679245Y-104575500D01*
X244679246Y-104575500D01*
X244777420Y-104559951D01*
X244858402Y-104518688D01*
X244895746Y-104499661D01*
X244895747Y-104499659D01*
X244895751Y-104499658D01*
X244989658Y-104405751D01*
X245001060Y-104383374D01*
X245046841Y-104293525D01*
X245075358Y-104269168D01*
X245112745Y-104272111D01*
X245137102Y-104300628D01*
X245139500Y-104315770D01*
X245139500Y-104948847D01*
X245170260Y-105103487D01*
X245170263Y-105103498D01*
X245225355Y-105236503D01*
X245230606Y-105249179D01*
X245284159Y-105329326D01*
X245314969Y-105375438D01*
X245318211Y-105380289D01*
X245429711Y-105491789D01*
X245560821Y-105579394D01*
X245706503Y-105639737D01*
X245706509Y-105639738D01*
X245706512Y-105639739D01*
X245861152Y-105670499D01*
X245861158Y-105670500D01*
X245874108Y-105670500D01*
X247485500Y-105670500D01*
X247520148Y-105684852D01*
X247534500Y-105719500D01*
X247534500Y-108120532D01*
X247520148Y-108155180D01*
X247485500Y-108169532D01*
X240449778Y-108169532D01*
X240415130Y-108155180D01*
X240400778Y-108120532D01*
X240415130Y-108085884D01*
X240420971Y-108080894D01*
X240479882Y-108038093D01*
X240543946Y-107974029D01*
X240625080Y-107892896D01*
X240625081Y-107892893D01*
X240625085Y-107892890D01*
X240745786Y-107726759D01*
X240839012Y-107543793D01*
X240902468Y-107348495D01*
X240934592Y-107145674D01*
X240934592Y-106940326D01*
X240902468Y-106737505D01*
X240839012Y-106542207D01*
X240745786Y-106359241D01*
X240625085Y-106193110D01*
X240625083Y-106193108D01*
X240625080Y-106193104D01*
X240479888Y-106047912D01*
X240479883Y-106047908D01*
X240479882Y-106047907D01*
X240313751Y-105927206D01*
X240130785Y-105833980D01*
X240130784Y-105833979D01*
X240130783Y-105833979D01*
X239935487Y-105770524D01*
X239935484Y-105770523D01*
X239779682Y-105745846D01*
X239732666Y-105738400D01*
X239527318Y-105738400D01*
X239489149Y-105744445D01*
X239324499Y-105770523D01*
X239324488Y-105770526D01*
X239296334Y-105779673D01*
X239258947Y-105776730D01*
X239234592Y-105748211D01*
X239237535Y-105710824D01*
X239246539Y-105698431D01*
X239345460Y-105599511D01*
X239385022Y-105530988D01*
X239405499Y-105454565D01*
X239405500Y-105454565D01*
X239405500Y-101689370D01*
X239419852Y-101654722D01*
X239454500Y-101640370D01*
X239464059Y-101641312D01*
X239510246Y-101650499D01*
X239510249Y-101650499D01*
X239510252Y-101650500D01*
X239510253Y-101650500D01*
X239999745Y-101650500D01*
X239999748Y-101650500D01*
X240058231Y-101638867D01*
X240124552Y-101594552D01*
X240168867Y-101528231D01*
X240180500Y-101469748D01*
X240180500Y-100271267D01*
X240194852Y-100236619D01*
X240229500Y-100222267D01*
X240264148Y-100236619D01*
G37*
%TD.AperFunction*%
%TA.AperFunction,Conductor*%
G36*
X227425148Y-72724852D02*
G01*
X227439500Y-72759500D01*
X227439500Y-73988847D01*
X227470260Y-74143487D01*
X227470263Y-74143498D01*
X227525924Y-74277876D01*
X227530606Y-74289179D01*
X227580242Y-74363464D01*
X227598431Y-74390687D01*
X227618211Y-74420289D01*
X227729711Y-74531789D01*
X227860821Y-74619394D01*
X228006503Y-74679737D01*
X228006509Y-74679738D01*
X228006512Y-74679739D01*
X228161152Y-74710499D01*
X228161158Y-74710500D01*
X228321000Y-74710500D01*
X228355648Y-74724852D01*
X228370000Y-74759500D01*
X228370000Y-74840000D01*
X229421000Y-74840000D01*
X229455648Y-74854352D01*
X229470000Y-74889000D01*
X229470000Y-75291000D01*
X229455648Y-75325648D01*
X229421000Y-75340000D01*
X228370000Y-75340000D01*
X228370000Y-75712834D01*
X228376401Y-75772372D01*
X228376401Y-75772373D01*
X228426648Y-75907091D01*
X228512811Y-76022188D01*
X228627908Y-76108351D01*
X228762626Y-76158598D01*
X228822166Y-76165000D01*
X229168587Y-76165000D01*
X229203235Y-76179352D01*
X229217587Y-76214000D01*
X229217088Y-76220973D01*
X229214353Y-76239997D01*
X229214353Y-76240002D01*
X229234833Y-76382454D01*
X229261241Y-76440277D01*
X229294623Y-76513373D01*
X229294624Y-76513374D01*
X229294625Y-76513376D01*
X229349889Y-76577154D01*
X229388872Y-76622143D01*
X229509947Y-76699953D01*
X229576519Y-76719500D01*
X229648034Y-76740499D01*
X229648037Y-76740499D01*
X229648039Y-76740500D01*
X229648040Y-76740500D01*
X229730098Y-76740500D01*
X229764746Y-76754852D01*
X229779098Y-76789500D01*
X229764746Y-76824148D01*
X229513747Y-77075148D01*
X229479099Y-77089500D01*
X229352541Y-77089500D01*
X229317893Y-77075148D01*
X229308132Y-77061208D01*
X229302878Y-77049940D01*
X229284065Y-77009596D01*
X229284064Y-77009595D01*
X229284063Y-77009593D01*
X229200406Y-76925936D01*
X229200404Y-76925935D01*
X229093175Y-76875933D01*
X229093174Y-76875932D01*
X229083401Y-76874645D01*
X229044316Y-76869500D01*
X228695684Y-76869500D01*
X228691894Y-76869999D01*
X228646826Y-76875931D01*
X228594050Y-76900541D01*
X228556582Y-76902177D01*
X228531166Y-76881075D01*
X228490737Y-76812713D01*
X228490733Y-76812708D01*
X228377289Y-76699264D01*
X228377284Y-76699260D01*
X228239196Y-76617595D01*
X228100000Y-76577154D01*
X228100000Y-78202845D01*
X228239196Y-78162404D01*
X228377284Y-78080739D01*
X228377289Y-78080735D01*
X228490733Y-77967291D01*
X228490735Y-77967288D01*
X228531165Y-77898924D01*
X228561155Y-77876406D01*
X228594048Y-77879456D01*
X228646827Y-77904068D01*
X228695684Y-77910500D01*
X228695688Y-77910500D01*
X229044312Y-77910500D01*
X229044316Y-77910500D01*
X229093173Y-77904068D01*
X229200404Y-77854065D01*
X229284065Y-77770404D01*
X229308132Y-77718791D01*
X229335782Y-77693455D01*
X229352541Y-77690500D01*
X229663430Y-77690500D01*
X229690096Y-77683354D01*
X229739855Y-77670021D01*
X229808377Y-77630460D01*
X229864326Y-77574511D01*
X230363160Y-77075676D01*
X230397805Y-77061326D01*
X230432453Y-77075678D01*
X230444859Y-77096655D01*
X230467969Y-77176198D01*
X230550277Y-77315373D01*
X230550281Y-77315378D01*
X230664621Y-77429718D01*
X230664626Y-77429722D01*
X230803802Y-77512031D01*
X230949999Y-77554505D01*
X230950000Y-77554504D01*
X230950000Y-76549000D01*
X230964352Y-76514352D01*
X230999000Y-76500000D01*
X231401000Y-76500000D01*
X231435648Y-76514352D01*
X231450000Y-76549000D01*
X231450000Y-77394267D01*
X231435648Y-77428915D01*
X231423246Y-77437926D01*
X231346660Y-77476948D01*
X231346654Y-77476953D01*
X231256950Y-77566657D01*
X231256945Y-77566664D01*
X231199355Y-77679690D01*
X231199355Y-77679692D01*
X231199354Y-77679694D01*
X231199354Y-77679696D01*
X231184987Y-77770406D01*
X231184500Y-77773482D01*
X231184500Y-78236517D01*
X231199353Y-78330303D01*
X231256945Y-78443335D01*
X231256950Y-78443342D01*
X231346657Y-78533049D01*
X231346664Y-78533054D01*
X231459691Y-78590644D01*
X231459692Y-78590644D01*
X231459696Y-78590646D01*
X231553481Y-78605500D01*
X232166518Y-78605499D01*
X232260304Y-78590646D01*
X232324889Y-78557738D01*
X232373335Y-78533054D01*
X232373337Y-78533052D01*
X232373342Y-78533050D01*
X232463050Y-78443342D01*
X232463054Y-78443335D01*
X232520644Y-78330309D01*
X232520644Y-78330307D01*
X232520646Y-78330304D01*
X232535500Y-78236519D01*
X232535499Y-77773482D01*
X232520646Y-77679696D01*
X232497418Y-77634108D01*
X232463054Y-77566664D01*
X232463049Y-77566657D01*
X232373342Y-77476950D01*
X232373335Y-77476945D01*
X232260308Y-77419355D01*
X232260305Y-77419354D01*
X232260304Y-77419354D01*
X232228844Y-77414371D01*
X232201834Y-77410093D01*
X232169858Y-77390497D01*
X232160500Y-77361696D01*
X232160500Y-77309499D01*
X232174852Y-77274851D01*
X232209500Y-77260499D01*
X232339896Y-77260499D01*
X232339900Y-77260499D01*
X232389487Y-77253972D01*
X232498316Y-77203224D01*
X232525343Y-77176197D01*
X232555352Y-77146189D01*
X232590000Y-77131837D01*
X232624648Y-77146189D01*
X232681681Y-77203222D01*
X232681683Y-77203223D01*
X232681684Y-77203224D01*
X232790513Y-77253972D01*
X232840099Y-77260500D01*
X232990500Y-77260499D01*
X233025148Y-77274851D01*
X233039500Y-77309499D01*
X233039500Y-77361697D01*
X233025148Y-77396345D01*
X232998165Y-77410094D01*
X232939695Y-77419353D01*
X232826664Y-77476945D01*
X232826657Y-77476950D01*
X232736950Y-77566657D01*
X232736945Y-77566664D01*
X232679355Y-77679690D01*
X232679355Y-77679692D01*
X232679354Y-77679694D01*
X232679354Y-77679696D01*
X232664987Y-77770406D01*
X232664500Y-77773482D01*
X232664500Y-78236517D01*
X232679353Y-78330303D01*
X232736945Y-78443335D01*
X232736950Y-78443342D01*
X232826657Y-78533049D01*
X232826664Y-78533054D01*
X232939691Y-78590644D01*
X232939692Y-78590644D01*
X232939696Y-78590646D01*
X233033481Y-78605500D01*
X233646518Y-78605499D01*
X233740304Y-78590646D01*
X233804889Y-78557738D01*
X233853335Y-78533054D01*
X233853337Y-78533052D01*
X233853342Y-78533050D01*
X233943050Y-78443342D01*
X233943054Y-78443335D01*
X234000644Y-78330309D01*
X234000644Y-78330307D01*
X234000646Y-78330304D01*
X234015500Y-78236519D01*
X234015499Y-77773482D01*
X234000646Y-77679696D01*
X233977418Y-77634108D01*
X233943054Y-77566664D01*
X233943049Y-77566657D01*
X233853342Y-77476950D01*
X233853337Y-77476946D01*
X233756754Y-77427735D01*
X233732398Y-77399218D01*
X233730000Y-77384076D01*
X233730000Y-76549000D01*
X233744352Y-76514352D01*
X233779000Y-76500000D01*
X234181000Y-76500000D01*
X234215648Y-76514352D01*
X234230000Y-76549000D01*
X234230000Y-77554505D01*
X234376197Y-77512031D01*
X234515373Y-77429722D01*
X234515378Y-77429718D01*
X234629718Y-77315378D01*
X234629722Y-77315373D01*
X234712031Y-77176197D01*
X234726213Y-77127383D01*
X234749661Y-77098114D01*
X234786937Y-77093999D01*
X234799755Y-77099829D01*
X234799947Y-77099953D01*
X234876785Y-77122514D01*
X234938034Y-77140499D01*
X234938037Y-77140499D01*
X234938039Y-77140500D01*
X235023811Y-77140500D01*
X235058459Y-77154852D01*
X235267804Y-77364196D01*
X235267809Y-77364202D01*
X235269520Y-77365913D01*
X235344087Y-77440480D01*
X235407246Y-77476945D01*
X235407255Y-77476950D01*
X235426941Y-77488316D01*
X235435413Y-77493207D01*
X235482684Y-77505873D01*
X235537272Y-77520501D01*
X235537274Y-77520501D01*
X235645724Y-77520501D01*
X235645740Y-77520500D01*
X235788664Y-77520500D01*
X235823312Y-77534852D01*
X235861684Y-77573224D01*
X235970513Y-77623972D01*
X236020099Y-77630500D01*
X236379900Y-77630499D01*
X236429487Y-77623972D01*
X236429495Y-77623968D01*
X236430891Y-77623562D01*
X236431827Y-77623664D01*
X236433205Y-77623483D01*
X236433249Y-77623819D01*
X236468172Y-77627636D01*
X236486790Y-77645658D01*
X236510277Y-77685373D01*
X236510281Y-77685378D01*
X236624621Y-77799718D01*
X236624626Y-77799722D01*
X236763802Y-77882031D01*
X236909999Y-77924505D01*
X236910000Y-77924504D01*
X236910000Y-77370000D01*
X237410000Y-77370000D01*
X237410000Y-77924505D01*
X237556197Y-77882031D01*
X237695373Y-77799722D01*
X237695378Y-77799718D01*
X237809718Y-77685378D01*
X237809722Y-77685373D01*
X237892030Y-77546198D01*
X237937145Y-77390914D01*
X237937145Y-77390913D01*
X237938791Y-77370000D01*
X237410000Y-77370000D01*
X236910000Y-77370000D01*
X236910000Y-76315494D01*
X236909999Y-76315493D01*
X237410000Y-76315493D01*
X237410000Y-76870000D01*
X237938790Y-76870000D01*
X237938790Y-76869999D01*
X237937145Y-76849086D01*
X237892030Y-76693801D01*
X237809722Y-76554626D01*
X237809718Y-76554621D01*
X237695378Y-76440281D01*
X237695373Y-76440277D01*
X237556198Y-76357969D01*
X237410000Y-76315493D01*
X236909999Y-76315493D01*
X236763801Y-76357969D01*
X236624626Y-76440277D01*
X236624621Y-76440281D01*
X236510279Y-76554623D01*
X236486789Y-76594342D01*
X236456797Y-76616859D01*
X236433208Y-76616479D01*
X236433203Y-76616518D01*
X236432865Y-76616473D01*
X236430905Y-76616442D01*
X236429488Y-76616028D01*
X236429487Y-76616028D01*
X236379901Y-76609500D01*
X236379897Y-76609500D01*
X236020103Y-76609500D01*
X236020098Y-76609501D01*
X235970512Y-76616027D01*
X235861684Y-76666775D01*
X235842498Y-76685961D01*
X235823311Y-76705148D01*
X235788665Y-76719500D01*
X235776188Y-76719500D01*
X235741540Y-76705148D01*
X235468826Y-76432433D01*
X235458902Y-76418140D01*
X235450443Y-76399618D01*
X235435377Y-76366627D01*
X235419823Y-76348677D01*
X235341128Y-76257857D01*
X235220053Y-76180047D01*
X235219004Y-76179739D01*
X235081965Y-76139500D01*
X235081961Y-76139500D01*
X234938039Y-76139500D01*
X234938034Y-76139500D01*
X234799948Y-76180046D01*
X234717419Y-76233084D01*
X234680512Y-76239742D01*
X234649706Y-76218353D01*
X234648752Y-76216805D01*
X234629720Y-76184624D01*
X234629716Y-76184619D01*
X234515378Y-76070281D01*
X234515373Y-76070277D01*
X234376198Y-75987969D01*
X234220913Y-75942854D01*
X234211745Y-75942133D01*
X234178330Y-75925107D01*
X234167089Y-75900258D01*
X234160386Y-75853639D01*
X234166454Y-75822165D01*
X234170021Y-75815989D01*
X234190500Y-75739562D01*
X234190500Y-74999500D01*
X234204852Y-74964852D01*
X234239500Y-74950500D01*
X234559745Y-74950500D01*
X234559748Y-74950500D01*
X234618231Y-74938867D01*
X234618234Y-74938865D01*
X234621247Y-74937618D01*
X234658750Y-74937616D01*
X234658753Y-74937618D01*
X234661765Y-74938865D01*
X234661766Y-74938865D01*
X234661769Y-74938867D01*
X234720252Y-74950500D01*
X234720255Y-74950500D01*
X234747114Y-74950500D01*
X234781762Y-74964852D01*
X234793025Y-74982377D01*
X234796647Y-74992090D01*
X234882811Y-75107188D01*
X234997908Y-75193351D01*
X235132626Y-75243598D01*
X235192166Y-75250000D01*
X235240000Y-75250000D01*
X235240000Y-74777088D01*
X235240487Y-74772167D01*
X235240264Y-74772145D01*
X235240500Y-74769749D01*
X235240500Y-74390687D01*
X235254852Y-74356039D01*
X235289500Y-74341687D01*
X235324148Y-74356039D01*
X235330242Y-74363464D01*
X235368210Y-74420288D01*
X235479714Y-74531792D01*
X235518222Y-74557521D01*
X235539058Y-74588703D01*
X235540000Y-74598263D01*
X235540000Y-75250000D01*
X235587834Y-75250000D01*
X235647372Y-75243598D01*
X235647373Y-75243598D01*
X235782091Y-75193351D01*
X235897188Y-75107188D01*
X235983351Y-74992091D01*
X236033598Y-74857373D01*
X236033598Y-74857372D01*
X236040000Y-74797834D01*
X236040000Y-74759500D01*
X236054352Y-74724852D01*
X236089000Y-74710500D01*
X237118842Y-74710500D01*
X237273497Y-74679737D01*
X237419179Y-74619394D01*
X237550289Y-74531789D01*
X237661789Y-74420289D01*
X237749394Y-74289179D01*
X237809737Y-74143497D01*
X237840500Y-73988842D01*
X237840500Y-73910000D01*
X237840500Y-73844108D01*
X237840500Y-72759500D01*
X237854852Y-72724852D01*
X237889500Y-72710500D01*
X244090500Y-72710500D01*
X244125148Y-72724852D01*
X244139500Y-72759500D01*
X244139500Y-75488847D01*
X244170260Y-75643487D01*
X244170263Y-75643498D01*
X244230604Y-75789175D01*
X244230606Y-75789179D01*
X244318211Y-75920289D01*
X244429711Y-76031789D01*
X244560821Y-76119394D01*
X244706503Y-76179737D01*
X244706509Y-76179738D01*
X244706512Y-76179739D01*
X244861152Y-76210499D01*
X244861158Y-76210500D01*
X244874108Y-76210500D01*
X245090500Y-76210500D01*
X245125148Y-76224852D01*
X245139500Y-76259500D01*
X245139500Y-90912555D01*
X245125148Y-90947203D01*
X245090500Y-90961555D01*
X245055852Y-90947203D01*
X245050858Y-90941357D01*
X245029932Y-90912555D01*
X244970104Y-90830208D01*
X244970100Y-90830204D01*
X244970098Y-90830201D01*
X244819798Y-90679901D01*
X244819793Y-90679897D01*
X244647821Y-90554952D01*
X244647813Y-90554947D01*
X244458413Y-90458443D01*
X244256243Y-90392754D01*
X244256240Y-90392753D01*
X244094957Y-90367208D01*
X244046287Y-90359500D01*
X243833713Y-90359500D01*
X243794202Y-90365757D01*
X243623759Y-90392753D01*
X243623756Y-90392754D01*
X243421586Y-90458443D01*
X243232186Y-90554947D01*
X243232178Y-90554952D01*
X243060206Y-90679897D01*
X242909897Y-90830206D01*
X242784952Y-91002178D01*
X242784947Y-91002186D01*
X242688443Y-91191586D01*
X242622754Y-91393756D01*
X242622753Y-91393759D01*
X242589500Y-91603713D01*
X242589500Y-91816286D01*
X242622753Y-92026240D01*
X242622754Y-92026243D01*
X242688443Y-92228413D01*
X242784947Y-92417813D01*
X242784952Y-92417821D01*
X242909897Y-92589793D01*
X242909901Y-92589798D01*
X243060202Y-92740099D01*
X243060206Y-92740102D01*
X243060208Y-92740104D01*
X243083157Y-92756777D01*
X243200017Y-92841681D01*
X243232184Y-92865051D01*
X243421588Y-92961557D01*
X243623757Y-93027246D01*
X243833713Y-93060500D01*
X243833714Y-93060500D01*
X244046286Y-93060500D01*
X244046287Y-93060500D01*
X244256243Y-93027246D01*
X244458412Y-92961557D01*
X244647816Y-92865051D01*
X244819792Y-92740104D01*
X244819795Y-92740100D01*
X244819798Y-92740099D01*
X244970099Y-92589798D01*
X244970100Y-92589795D01*
X244970104Y-92589792D01*
X245050858Y-92478643D01*
X245082835Y-92459047D01*
X245119301Y-92467802D01*
X245138897Y-92499779D01*
X245139500Y-92507444D01*
X245139500Y-98950356D01*
X245125148Y-98985004D01*
X245090500Y-98999356D01*
X245055852Y-98985004D01*
X245046841Y-98972601D01*
X245003054Y-98886664D01*
X245003050Y-98886659D01*
X245003050Y-98886658D01*
X244913342Y-98796950D01*
X244913340Y-98796949D01*
X244913339Y-98796948D01*
X244827254Y-98753085D01*
X244802898Y-98724567D01*
X244800500Y-98709426D01*
X244800500Y-97983852D01*
X244800999Y-97976878D01*
X244805520Y-97945438D01*
X244815647Y-97875000D01*
X244814786Y-97869010D01*
X244795166Y-97732545D01*
X244777191Y-97693186D01*
X244735377Y-97601627D01*
X244734400Y-97600500D01*
X244641128Y-97492857D01*
X244520053Y-97415047D01*
X244520050Y-97415046D01*
X244381965Y-97374500D01*
X244381961Y-97374500D01*
X244238039Y-97374500D01*
X244238034Y-97374500D01*
X244099949Y-97415046D01*
X244099947Y-97415046D01*
X244099947Y-97415047D01*
X244062722Y-97438969D01*
X243978871Y-97492857D01*
X243884625Y-97601623D01*
X243884624Y-97601625D01*
X243824833Y-97732545D01*
X243804353Y-97874997D01*
X243804353Y-97875002D01*
X243824833Y-98017454D01*
X243832779Y-98034852D01*
X243884623Y-98148373D01*
X243884624Y-98148374D01*
X243884625Y-98148376D01*
X243978872Y-98257144D01*
X243981518Y-98259436D01*
X243980351Y-98260782D01*
X243998375Y-98286716D01*
X243999500Y-98297155D01*
X243999500Y-98709426D01*
X243985148Y-98744074D01*
X243972746Y-98753085D01*
X243886660Y-98796948D01*
X243886654Y-98796953D01*
X243796950Y-98886657D01*
X243796945Y-98886664D01*
X243739355Y-98999690D01*
X243739355Y-98999692D01*
X243739354Y-98999694D01*
X243739354Y-98999696D01*
X243724500Y-99093481D01*
X243724500Y-99093482D01*
X243724500Y-99556517D01*
X243739353Y-99650303D01*
X243796945Y-99763335D01*
X243796950Y-99763342D01*
X243886657Y-99853049D01*
X243886664Y-99853054D01*
X243999691Y-99910644D01*
X243999692Y-99910644D01*
X243999696Y-99910646D01*
X244093481Y-99925500D01*
X244706518Y-99925499D01*
X244800304Y-99910646D01*
X244861387Y-99879522D01*
X244913335Y-99853054D01*
X244913337Y-99853052D01*
X244913342Y-99853050D01*
X245003050Y-99763342D01*
X245003054Y-99763335D01*
X245046841Y-99677399D01*
X245075358Y-99653042D01*
X245112745Y-99655985D01*
X245137102Y-99684502D01*
X245139500Y-99699644D01*
X245139500Y-100600356D01*
X245125148Y-100635004D01*
X245090500Y-100649356D01*
X245055852Y-100635004D01*
X245046841Y-100622601D01*
X245003054Y-100536664D01*
X245003049Y-100536657D01*
X244913342Y-100446950D01*
X244913335Y-100446945D01*
X244800308Y-100389355D01*
X244800305Y-100389354D01*
X244800304Y-100389354D01*
X244706519Y-100374500D01*
X244706517Y-100374500D01*
X244093482Y-100374500D01*
X243999696Y-100389353D01*
X243886664Y-100446945D01*
X243886657Y-100446950D01*
X243796950Y-100536657D01*
X243796945Y-100536664D01*
X243739355Y-100649690D01*
X243739355Y-100649692D01*
X243739354Y-100649694D01*
X243739354Y-100649696D01*
X243734549Y-100680035D01*
X243724500Y-100743482D01*
X243724500Y-101206517D01*
X243739353Y-101300303D01*
X243796945Y-101413335D01*
X243796950Y-101413342D01*
X243886658Y-101503050D01*
X243962747Y-101541819D01*
X243987101Y-101570333D01*
X243989500Y-101585476D01*
X243989500Y-101716686D01*
X243975148Y-101751334D01*
X243962746Y-101760345D01*
X243884251Y-101800340D01*
X243884245Y-101800345D01*
X243790342Y-101894248D01*
X243790338Y-101894253D01*
X243730050Y-102012577D01*
X243730049Y-102012578D01*
X243730049Y-102012580D01*
X243714500Y-102110754D01*
X243714500Y-102614246D01*
X243730049Y-102712420D01*
X243730049Y-102712421D01*
X243730050Y-102712422D01*
X243730050Y-102712423D01*
X243735198Y-102722527D01*
X243738139Y-102759914D01*
X243713782Y-102788431D01*
X243676395Y-102791372D01*
X243656890Y-102779419D01*
X240714852Y-99837381D01*
X240700500Y-99802733D01*
X240700500Y-88414751D01*
X240688910Y-88371500D01*
X240680021Y-88338326D01*
X240680020Y-88338324D01*
X240680020Y-88338323D01*
X240640459Y-88269803D01*
X235080198Y-82709542D01*
X235080192Y-82709537D01*
X235048477Y-82691227D01*
X235029067Y-82680021D01*
X235011674Y-82669979D01*
X235011673Y-82669978D01*
X235011672Y-82669978D01*
X234935249Y-82649500D01*
X234935247Y-82649500D01*
X233303767Y-82649500D01*
X233269119Y-82635148D01*
X233254767Y-82600500D01*
X233269119Y-82565852D01*
X233530119Y-82304852D01*
X233564767Y-82290500D01*
X234039745Y-82290500D01*
X234039748Y-82290500D01*
X234098231Y-82278867D01*
X234164552Y-82234552D01*
X234208867Y-82168231D01*
X234220500Y-82109748D01*
X234220500Y-81070252D01*
X234208867Y-81011769D01*
X234170000Y-80953601D01*
X234164552Y-80945447D01*
X234124795Y-80918882D01*
X234098231Y-80901133D01*
X234039748Y-80889500D01*
X234039745Y-80889500D01*
X233869500Y-80889500D01*
X233834852Y-80875148D01*
X233820500Y-80840500D01*
X233820500Y-80229811D01*
X233834852Y-80195163D01*
X233847253Y-80186152D01*
X233853342Y-80183050D01*
X233943050Y-80093342D01*
X233943054Y-80093335D01*
X234000644Y-79980309D01*
X234000644Y-79980307D01*
X234000646Y-79980304D01*
X234015500Y-79886519D01*
X234015499Y-79423482D01*
X234000646Y-79329696D01*
X234000643Y-79329690D01*
X233943054Y-79216664D01*
X233943049Y-79216657D01*
X233853342Y-79126950D01*
X233853335Y-79126945D01*
X233740308Y-79069355D01*
X233740305Y-79069354D01*
X233740304Y-79069354D01*
X233646519Y-79054500D01*
X233646517Y-79054500D01*
X233033482Y-79054500D01*
X232939696Y-79069353D01*
X232826664Y-79126945D01*
X232826657Y-79126950D01*
X232736950Y-79216657D01*
X232736945Y-79216664D01*
X232679355Y-79329690D01*
X232679355Y-79329692D01*
X232664500Y-79423482D01*
X232664500Y-79886517D01*
X232679353Y-79980303D01*
X232736945Y-80093335D01*
X232736950Y-80093342D01*
X232826657Y-80183049D01*
X232826664Y-80183054D01*
X232939691Y-80240644D01*
X232939692Y-80240644D01*
X232939696Y-80240646D01*
X233033481Y-80255500D01*
X233170500Y-80255499D01*
X233205148Y-80269851D01*
X233219500Y-80304499D01*
X233219500Y-80840500D01*
X233205148Y-80875148D01*
X233170500Y-80889500D01*
X233000252Y-80889500D01*
X232941769Y-80901133D01*
X232897223Y-80930898D01*
X232860441Y-80938214D01*
X232842777Y-80930898D01*
X232833646Y-80924797D01*
X232798231Y-80901133D01*
X232739748Y-80889500D01*
X232739745Y-80889500D01*
X232569500Y-80889500D01*
X232534852Y-80875148D01*
X232520500Y-80840500D01*
X232520500Y-79985081D01*
X232521103Y-79977416D01*
X232535500Y-79886519D01*
X232535499Y-79423482D01*
X232520646Y-79329696D01*
X232520643Y-79329690D01*
X232463054Y-79216664D01*
X232463049Y-79216657D01*
X232373342Y-79126950D01*
X232373335Y-79126945D01*
X232260308Y-79069355D01*
X232260305Y-79069354D01*
X232260304Y-79069354D01*
X232166519Y-79054500D01*
X232166517Y-79054500D01*
X231553482Y-79054500D01*
X231459696Y-79069353D01*
X231346664Y-79126945D01*
X231346657Y-79126950D01*
X231256950Y-79216657D01*
X231256945Y-79216664D01*
X231199355Y-79329690D01*
X231199355Y-79329692D01*
X231184500Y-79423482D01*
X231184500Y-79886517D01*
X231199353Y-79980303D01*
X231256945Y-80093335D01*
X231256950Y-80093342D01*
X231346657Y-80183049D01*
X231346664Y-80183054D01*
X231459691Y-80240644D01*
X231459692Y-80240644D01*
X231459696Y-80240646D01*
X231553481Y-80255500D01*
X231870500Y-80255499D01*
X231905148Y-80269851D01*
X231919500Y-80304499D01*
X231919500Y-80840500D01*
X231905148Y-80875148D01*
X231870500Y-80889500D01*
X231700252Y-80889500D01*
X231641769Y-80901133D01*
X231575447Y-80945447D01*
X231531133Y-81011769D01*
X231519500Y-81070252D01*
X231519500Y-81070255D01*
X231519500Y-81240500D01*
X231505148Y-81275148D01*
X231470500Y-81289500D01*
X227165435Y-81289500D01*
X227089013Y-81309977D01*
X227089010Y-81309978D01*
X227020488Y-81349540D01*
X227020488Y-81349541D01*
X225122381Y-83247648D01*
X225087733Y-83262000D01*
X224512752Y-83262000D01*
X224454269Y-83273633D01*
X224387947Y-83317947D01*
X224355605Y-83366352D01*
X224343633Y-83384269D01*
X224332000Y-83442752D01*
X224332000Y-83882248D01*
X224343633Y-83940731D01*
X224344730Y-83942373D01*
X224345115Y-83944310D01*
X224345479Y-83945188D01*
X224345304Y-83945260D01*
X224352045Y-83979155D01*
X224331209Y-84010337D01*
X224294426Y-84017652D01*
X224269339Y-84004242D01*
X224175378Y-83910281D01*
X224175373Y-83910277D01*
X224036198Y-83827969D01*
X223880913Y-83782854D01*
X223860000Y-83781208D01*
X223860000Y-84761000D01*
X223845648Y-84795648D01*
X223811000Y-84810000D01*
X222805495Y-84810000D01*
X222847968Y-84956197D01*
X222930277Y-85095373D01*
X222930281Y-85095378D01*
X223044621Y-85209718D01*
X223044626Y-85209722D01*
X223084340Y-85233209D01*
X223106858Y-85263199D01*
X223106478Y-85286790D01*
X223106517Y-85286796D01*
X223106473Y-85287126D01*
X223106442Y-85289088D01*
X223106028Y-85290508D01*
X223099500Y-85340100D01*
X223099500Y-85699896D01*
X223099501Y-85699901D01*
X223105648Y-85746606D01*
X223095940Y-85782831D01*
X223063461Y-85801581D01*
X223057067Y-85802000D01*
X222748688Y-85802000D01*
X222714040Y-85787648D01*
X222454851Y-85528458D01*
X222440499Y-85493810D01*
X222440499Y-85390103D01*
X222440499Y-85390100D01*
X222433972Y-85340513D01*
X222433779Y-85340100D01*
X222397920Y-85263199D01*
X222383224Y-85231684D01*
X222383223Y-85231683D01*
X222383222Y-85231681D01*
X222374852Y-85223311D01*
X222360500Y-85188663D01*
X222360500Y-85021336D01*
X222374852Y-84986688D01*
X222383224Y-84978316D01*
X222433972Y-84869487D01*
X222440500Y-84819901D01*
X222440499Y-84400100D01*
X222433972Y-84350513D01*
X222415080Y-84309999D01*
X222805494Y-84309999D01*
X222805495Y-84310000D01*
X223360000Y-84310000D01*
X223360000Y-83781209D01*
X223359999Y-83781208D01*
X223339086Y-83782854D01*
X223339085Y-83782854D01*
X223183801Y-83827969D01*
X223044626Y-83910277D01*
X223044621Y-83910281D01*
X222930281Y-84024621D01*
X222930277Y-84024626D01*
X222847968Y-84163802D01*
X222805494Y-84309999D01*
X222415080Y-84309999D01*
X222383224Y-84241684D01*
X222383223Y-84241683D01*
X222383222Y-84241681D01*
X222374852Y-84233311D01*
X222360500Y-84198663D01*
X222360500Y-79533610D01*
X222899942Y-79533610D01*
X222946761Y-79570050D01*
X222946775Y-79570059D01*
X223165384Y-79688364D01*
X223165394Y-79688368D01*
X223400508Y-79769083D01*
X223645709Y-79810000D01*
X223894291Y-79810000D01*
X224139491Y-79769083D01*
X224374605Y-79688368D01*
X224374615Y-79688364D01*
X224593224Y-79570059D01*
X224593232Y-79570054D01*
X224640056Y-79533609D01*
X223770000Y-78663553D01*
X222899942Y-79533609D01*
X222899942Y-79533610D01*
X222360500Y-79533610D01*
X222360500Y-79059679D01*
X222374852Y-79025031D01*
X222409500Y-79010679D01*
X222444148Y-79025031D01*
X222450521Y-79032878D01*
X222546563Y-79179881D01*
X222546564Y-79179881D01*
X223416447Y-78310000D01*
X224123553Y-78310000D01*
X224993434Y-79179881D01*
X225093729Y-79026371D01*
X225093733Y-79026365D01*
X225193586Y-78798720D01*
X225254612Y-78557738D01*
X225275140Y-78310000D01*
X225254612Y-78062261D01*
X225193586Y-77821279D01*
X225114071Y-77640000D01*
X227080069Y-77640000D01*
X227082832Y-77675123D01*
X227082832Y-77675125D01*
X227127595Y-77829196D01*
X227209260Y-77967284D01*
X227209264Y-77967289D01*
X227322710Y-78080735D01*
X227322715Y-78080739D01*
X227460803Y-78162404D01*
X227599999Y-78202845D01*
X227600000Y-78202844D01*
X227600000Y-77640000D01*
X227080069Y-77640000D01*
X225114071Y-77640000D01*
X225093733Y-77593634D01*
X225093729Y-77593628D01*
X224993435Y-77440117D01*
X224993434Y-77440117D01*
X224123553Y-78309999D01*
X224123553Y-78310000D01*
X223416447Y-78310000D01*
X222546564Y-77440117D01*
X222546563Y-77440117D01*
X222450521Y-77587121D01*
X222419556Y-77608277D01*
X222382699Y-77601341D01*
X222361543Y-77570376D01*
X222360500Y-77560320D01*
X222360500Y-77236188D01*
X222374852Y-77201540D01*
X222490003Y-77086389D01*
X222899942Y-77086389D01*
X223769999Y-77956446D01*
X224586445Y-77140000D01*
X227080069Y-77140000D01*
X227600000Y-77140000D01*
X227600000Y-76577154D01*
X227599999Y-76577154D01*
X227460803Y-76617595D01*
X227322715Y-76699260D01*
X227322710Y-76699264D01*
X227209264Y-76812710D01*
X227209260Y-76812715D01*
X227127595Y-76950803D01*
X227082832Y-77104874D01*
X227082832Y-77104876D01*
X227080069Y-77139999D01*
X227080069Y-77140000D01*
X224586445Y-77140000D01*
X224640056Y-77086389D01*
X224640056Y-77086388D01*
X224593238Y-77049949D01*
X224593224Y-77049940D01*
X224374615Y-76931635D01*
X224374605Y-76931631D01*
X224139491Y-76850916D01*
X223894291Y-76810000D01*
X223645709Y-76810000D01*
X223400508Y-76850916D01*
X223165394Y-76931631D01*
X223165384Y-76931635D01*
X222946771Y-77049941D01*
X222899942Y-77086388D01*
X222899942Y-77086389D01*
X222490003Y-77086389D01*
X222793935Y-76782457D01*
X223227715Y-76348676D01*
X223262362Y-76334325D01*
X223280059Y-76337633D01*
X223440060Y-76399618D01*
X223658757Y-76440500D01*
X223658759Y-76440500D01*
X223881241Y-76440500D01*
X223881243Y-76440500D01*
X224099940Y-76399618D01*
X224307401Y-76319247D01*
X224496562Y-76202124D01*
X224660981Y-76052236D01*
X224795058Y-75874689D01*
X224894229Y-75675528D01*
X224955115Y-75461536D01*
X224975643Y-75240000D01*
X224955115Y-75018464D01*
X224894229Y-74804472D01*
X224795058Y-74605311D01*
X224660981Y-74427764D01*
X224620310Y-74390687D01*
X224496566Y-74277879D01*
X224496563Y-74277877D01*
X224496562Y-74277876D01*
X224307401Y-74160753D01*
X224307398Y-74160752D01*
X224307397Y-74160751D01*
X224203670Y-74120567D01*
X224099940Y-74080382D01*
X223881243Y-74039500D01*
X223658757Y-74039500D01*
X223440060Y-74080382D01*
X223440055Y-74080384D01*
X223232602Y-74160751D01*
X223043433Y-74277879D01*
X222879019Y-74427763D01*
X222879016Y-74427766D01*
X222744943Y-74605309D01*
X222744940Y-74605313D01*
X222645773Y-74804466D01*
X222645770Y-74804473D01*
X222584885Y-75018461D01*
X222584884Y-75018467D01*
X222564357Y-75240000D01*
X222584884Y-75461532D01*
X222584885Y-75461538D01*
X222645770Y-75675526D01*
X222645773Y-75675533D01*
X222670713Y-75725618D01*
X222673310Y-75763031D01*
X222661498Y-75782107D01*
X221639521Y-76804085D01*
X221639520Y-76804086D01*
X221586793Y-76895410D01*
X221586792Y-76895412D01*
X221559500Y-76997269D01*
X221559500Y-83858640D01*
X221545148Y-83893288D01*
X221510500Y-83907640D01*
X221485557Y-83900816D01*
X221396198Y-83847969D01*
X221250000Y-83805493D01*
X221250000Y-86404505D01*
X221396197Y-86362031D01*
X221535373Y-86279722D01*
X221535378Y-86279718D01*
X221649718Y-86165378D01*
X221673207Y-86125659D01*
X221703197Y-86103141D01*
X221726790Y-86103520D01*
X221726796Y-86103482D01*
X221727133Y-86103526D01*
X221729095Y-86103558D01*
X221730507Y-86103969D01*
X221730513Y-86103972D01*
X221780099Y-86110500D01*
X221883811Y-86110499D01*
X221918457Y-86124849D01*
X221918459Y-86124851D01*
X222240304Y-86446696D01*
X222240309Y-86446702D01*
X223717648Y-87924041D01*
X223732000Y-87958689D01*
X223732000Y-88297794D01*
X223717648Y-88332442D01*
X223683000Y-88346794D01*
X223656510Y-88339016D01*
X223642553Y-88330046D01*
X223504465Y-88289500D01*
X223504461Y-88289500D01*
X223360539Y-88289500D01*
X223360532Y-88289500D01*
X223251076Y-88321639D01*
X223213788Y-88317630D01*
X223202624Y-88309272D01*
X222713845Y-87820493D01*
X222699493Y-87785845D01*
X222699991Y-87778884D01*
X222715647Y-87670000D01*
X222714695Y-87663376D01*
X222695166Y-87527545D01*
X222690751Y-87517879D01*
X222635377Y-87396627D01*
X222629636Y-87390002D01*
X222541128Y-87287857D01*
X222514510Y-87270751D01*
X222420053Y-87210047D01*
X222420050Y-87210046D01*
X222281965Y-87169500D01*
X222281961Y-87169500D01*
X222138039Y-87169500D01*
X222138034Y-87169500D01*
X221999949Y-87210046D01*
X221878871Y-87287857D01*
X221784625Y-87396623D01*
X221784624Y-87396625D01*
X221724833Y-87527545D01*
X221704353Y-87669997D01*
X221704353Y-87670002D01*
X221724833Y-87812454D01*
X221743474Y-87853270D01*
X221784623Y-87943373D01*
X221784624Y-87943374D01*
X221784625Y-87943376D01*
X221830767Y-87996627D01*
X221878872Y-88052143D01*
X221999947Y-88129953D01*
X222076785Y-88152514D01*
X222138034Y-88170499D01*
X222138037Y-88170499D01*
X222138039Y-88170500D01*
X222138040Y-88170500D01*
X222281958Y-88170500D01*
X222281961Y-88170500D01*
X222281963Y-88170499D01*
X222285427Y-88170001D01*
X222285595Y-88171174D01*
X222318536Y-88174702D01*
X222329718Y-88183070D01*
X222913675Y-88767027D01*
X222927528Y-88794702D01*
X222947333Y-88932454D01*
X222979435Y-89002746D01*
X223007123Y-89063373D01*
X223007124Y-89063374D01*
X223007125Y-89063376D01*
X223084041Y-89152142D01*
X223101372Y-89172143D01*
X223222447Y-89249953D01*
X223299285Y-89272514D01*
X223360534Y-89290499D01*
X223360537Y-89290499D01*
X223360539Y-89290500D01*
X223360540Y-89290500D01*
X223504460Y-89290500D01*
X223504461Y-89290500D01*
X223504463Y-89290499D01*
X223504465Y-89290499D01*
X223536096Y-89281211D01*
X223642553Y-89249953D01*
X223656509Y-89240983D01*
X223693415Y-89234325D01*
X223724221Y-89255713D01*
X223732000Y-89282205D01*
X223732000Y-98875500D01*
X223717648Y-98910148D01*
X223683000Y-98924500D01*
X221552359Y-98924500D01*
X221517711Y-98910148D01*
X221508700Y-98897747D01*
X221503050Y-98886658D01*
X221413342Y-98796950D01*
X221413335Y-98796945D01*
X221300308Y-98739355D01*
X221300305Y-98739354D01*
X221300304Y-98739354D01*
X221206519Y-98724500D01*
X221206517Y-98724500D01*
X220593482Y-98724500D01*
X220499696Y-98739353D01*
X220386664Y-98796945D01*
X220386657Y-98796950D01*
X220296950Y-98886657D01*
X220296945Y-98886664D01*
X220239355Y-98999690D01*
X220239355Y-98999692D01*
X220239354Y-98999694D01*
X220239354Y-98999696D01*
X220237895Y-99008901D01*
X220218301Y-99040876D01*
X220181834Y-99049631D01*
X220149858Y-99030035D01*
X220140500Y-99001234D01*
X220140500Y-92507444D01*
X220154852Y-92472796D01*
X220189500Y-92458444D01*
X220224148Y-92472796D01*
X220229142Y-92478643D01*
X220309897Y-92589793D01*
X220309901Y-92589798D01*
X220460202Y-92740099D01*
X220460206Y-92740102D01*
X220460208Y-92740104D01*
X220483157Y-92756777D01*
X220600017Y-92841681D01*
X220632184Y-92865051D01*
X220821588Y-92961557D01*
X221023757Y-93027246D01*
X221233713Y-93060500D01*
X221233714Y-93060500D01*
X221446286Y-93060500D01*
X221446287Y-93060500D01*
X221656243Y-93027246D01*
X221858412Y-92961557D01*
X222047816Y-92865051D01*
X222219792Y-92740104D01*
X222219795Y-92740100D01*
X222219798Y-92740099D01*
X222370099Y-92589798D01*
X222370100Y-92589795D01*
X222370104Y-92589792D01*
X222495051Y-92417816D01*
X222591557Y-92228412D01*
X222657246Y-92026243D01*
X222690500Y-91816287D01*
X222690500Y-91603713D01*
X222657246Y-91393757D01*
X222591557Y-91191588D01*
X222495051Y-91002184D01*
X222487805Y-90992211D01*
X222373478Y-90834852D01*
X222370104Y-90830208D01*
X222370102Y-90830206D01*
X222370099Y-90830202D01*
X222219798Y-90679901D01*
X222219793Y-90679897D01*
X222047821Y-90554952D01*
X222047813Y-90554947D01*
X221858413Y-90458443D01*
X221656243Y-90392754D01*
X221656240Y-90392753D01*
X221494957Y-90367208D01*
X221446287Y-90359500D01*
X221233713Y-90359500D01*
X221194202Y-90365757D01*
X221023759Y-90392753D01*
X221023756Y-90392754D01*
X220821586Y-90458443D01*
X220632186Y-90554947D01*
X220632178Y-90554952D01*
X220460206Y-90679897D01*
X220460202Y-90679901D01*
X220309901Y-90830201D01*
X220229142Y-90941357D01*
X220197165Y-90960952D01*
X220160698Y-90952197D01*
X220141103Y-90920220D01*
X220140500Y-90912555D01*
X220140500Y-85931738D01*
X220154852Y-85897090D01*
X220189500Y-85882738D01*
X220224148Y-85897090D01*
X220236554Y-85918067D01*
X220267969Y-86026198D01*
X220350277Y-86165373D01*
X220350281Y-86165378D01*
X220464621Y-86279718D01*
X220464626Y-86279722D01*
X220603802Y-86362031D01*
X220749999Y-86404505D01*
X220750000Y-86404504D01*
X220750000Y-83805494D01*
X220749999Y-83805493D01*
X220603801Y-83847969D01*
X220464626Y-83930277D01*
X220464621Y-83930281D01*
X220350281Y-84044621D01*
X220350277Y-84044626D01*
X220267969Y-84183801D01*
X220236554Y-84291932D01*
X220213106Y-84321200D01*
X220175829Y-84325315D01*
X220146561Y-84301867D01*
X220140500Y-84278261D01*
X220140500Y-76259500D01*
X220154852Y-76224852D01*
X220189500Y-76210500D01*
X220418842Y-76210500D01*
X220573497Y-76179737D01*
X220719179Y-76119394D01*
X220850289Y-76031789D01*
X220961789Y-75920289D01*
X221049394Y-75789179D01*
X221109737Y-75643497D01*
X221122281Y-75580437D01*
X221140499Y-75488847D01*
X221140500Y-75488842D01*
X221140500Y-72759500D01*
X221154852Y-72724852D01*
X221189500Y-72710500D01*
X227390500Y-72710500D01*
X227425148Y-72724852D01*
G37*
%TD.AperFunction*%
%TA.AperFunction,Conductor*%
G36*
X227864148Y-83914899D02*
G01*
X227874072Y-83929192D01*
X227877122Y-83935872D01*
X227877125Y-83935876D01*
X227941646Y-84010337D01*
X227971372Y-84044643D01*
X228092447Y-84122453D01*
X228169285Y-84145014D01*
X228230534Y-84162999D01*
X228230537Y-84162999D01*
X228230539Y-84163000D01*
X228230540Y-84163000D01*
X228374460Y-84163000D01*
X228374461Y-84163000D01*
X228374463Y-84162999D01*
X228374465Y-84162999D01*
X228397295Y-84156295D01*
X228512553Y-84122453D01*
X228633628Y-84044643D01*
X228687347Y-83982648D01*
X228689718Y-83979912D01*
X228723254Y-83963125D01*
X228726750Y-83963000D01*
X229495119Y-83963000D01*
X229529767Y-83977352D01*
X229544119Y-84012000D01*
X229543177Y-84021559D01*
X229532000Y-84077746D01*
X229532000Y-84469289D01*
X229517648Y-84503937D01*
X229483000Y-84518289D01*
X229469196Y-84516304D01*
X229411967Y-84499500D01*
X229411961Y-84499500D01*
X229268039Y-84499500D01*
X229268034Y-84499500D01*
X229129949Y-84540046D01*
X229008871Y-84617857D01*
X228914625Y-84726623D01*
X228914624Y-84726625D01*
X228854833Y-84857545D01*
X228834353Y-84999997D01*
X228834353Y-85000002D01*
X228854833Y-85142454D01*
X228875937Y-85188663D01*
X228914623Y-85273373D01*
X228914624Y-85273374D01*
X228914625Y-85273376D01*
X229004089Y-85376623D01*
X229008872Y-85382143D01*
X229129947Y-85459953D01*
X229206785Y-85482514D01*
X229268034Y-85500499D01*
X229268037Y-85500499D01*
X229268039Y-85500500D01*
X229268040Y-85500500D01*
X229411956Y-85500500D01*
X229411961Y-85500500D01*
X229411965Y-85500498D01*
X229415425Y-85500001D01*
X229415705Y-85501948D01*
X229446635Y-85505264D01*
X229470176Y-85534459D01*
X229466179Y-85571748D01*
X229452530Y-85587504D01*
X229375311Y-85645311D01*
X229289148Y-85760408D01*
X229238901Y-85895126D01*
X229238901Y-85895127D01*
X229232500Y-85954665D01*
X229232500Y-86002500D01*
X231432500Y-86002500D01*
X231432500Y-85954664D01*
X231429014Y-85922237D01*
X231439580Y-85886254D01*
X231472496Y-85868281D01*
X231477733Y-85868000D01*
X232757845Y-85868000D01*
X232792493Y-85882352D01*
X232802416Y-85896643D01*
X232814623Y-85923373D01*
X232908872Y-86032143D01*
X233029947Y-86109953D01*
X233106785Y-86132514D01*
X233168034Y-86150499D01*
X233168037Y-86150499D01*
X233168039Y-86150500D01*
X233168040Y-86150500D01*
X233311960Y-86150500D01*
X233311961Y-86150500D01*
X233311963Y-86150499D01*
X233311965Y-86150499D01*
X233334795Y-86143795D01*
X233450053Y-86109953D01*
X233571128Y-86032143D01*
X233665377Y-85923373D01*
X233725165Y-85792457D01*
X233725165Y-85792455D01*
X233725166Y-85792454D01*
X233745647Y-85650002D01*
X233745647Y-85649997D01*
X233725166Y-85507545D01*
X233718893Y-85493810D01*
X233665377Y-85376627D01*
X233634084Y-85340513D01*
X233571128Y-85267857D01*
X233543342Y-85250000D01*
X233450053Y-85190047D01*
X233449883Y-85189997D01*
X233311965Y-85149500D01*
X233311961Y-85149500D01*
X233168039Y-85149500D01*
X233168034Y-85149500D01*
X233029946Y-85190047D01*
X232922310Y-85259221D01*
X232895819Y-85267000D01*
X231169881Y-85267000D01*
X231135233Y-85252648D01*
X231120881Y-85218000D01*
X231121823Y-85208441D01*
X231132999Y-85152253D01*
X231133000Y-85152246D01*
X231133000Y-84712753D01*
X231132999Y-84712746D01*
X231121823Y-84656559D01*
X231129139Y-84619777D01*
X231160322Y-84598942D01*
X231169881Y-84598000D01*
X235532733Y-84598000D01*
X235567381Y-84612352D01*
X236840148Y-85885119D01*
X236854500Y-85919767D01*
X236854500Y-91036481D01*
X236840148Y-91071129D01*
X236805500Y-91085481D01*
X236770852Y-91071129D01*
X236763065Y-91060982D01*
X236745460Y-91030489D01*
X236372848Y-90657877D01*
X236358496Y-90623229D01*
X236358993Y-90616270D01*
X236365647Y-90570000D01*
X236365647Y-90569998D01*
X236345166Y-90427545D01*
X236329277Y-90392753D01*
X236285377Y-90296627D01*
X236270571Y-90279540D01*
X236191128Y-90187857D01*
X236151158Y-90162170D01*
X236070053Y-90110047D01*
X236070050Y-90110046D01*
X235931965Y-90069500D01*
X235931961Y-90069500D01*
X235788039Y-90069500D01*
X235788034Y-90069500D01*
X235649948Y-90110046D01*
X235580991Y-90154362D01*
X235544084Y-90161020D01*
X235513278Y-90139631D01*
X235505500Y-90113140D01*
X235505500Y-89835436D01*
X235490109Y-89778000D01*
X235485021Y-89759011D01*
X235485020Y-89759009D01*
X235485020Y-89759008D01*
X235459939Y-89715568D01*
X235445460Y-89690489D01*
X235389511Y-89634540D01*
X232987011Y-87232040D01*
X232987008Y-87232038D01*
X232987004Y-87232035D01*
X232977187Y-87226368D01*
X232977185Y-87226367D01*
X232918490Y-87192479D01*
X232842064Y-87172000D01*
X232842062Y-87172000D01*
X231169881Y-87172000D01*
X231135233Y-87157648D01*
X231120881Y-87123000D01*
X231121823Y-87113441D01*
X231132999Y-87057253D01*
X231133000Y-87057246D01*
X231133000Y-86895386D01*
X231147352Y-86860738D01*
X231164877Y-86849475D01*
X231174590Y-86845852D01*
X231289688Y-86759688D01*
X231375851Y-86644591D01*
X231426098Y-86509873D01*
X231426098Y-86509872D01*
X231432500Y-86450334D01*
X231432500Y-86402500D01*
X229392741Y-86402500D01*
X229366250Y-86394722D01*
X229354245Y-86387007D01*
X229250053Y-86320047D01*
X229250050Y-86320046D01*
X229111965Y-86279500D01*
X229111961Y-86279500D01*
X228968039Y-86279500D01*
X228968034Y-86279500D01*
X228829949Y-86320046D01*
X228708871Y-86397857D01*
X228614625Y-86506623D01*
X228614624Y-86506625D01*
X228555654Y-86635749D01*
X228528205Y-86661304D01*
X228490726Y-86659965D01*
X228476434Y-86650041D01*
X227583249Y-85756856D01*
X227568897Y-85722208D01*
X227583249Y-85687560D01*
X227604092Y-85675193D01*
X227690053Y-85649953D01*
X227811128Y-85572143D01*
X227905377Y-85463373D01*
X227965165Y-85332457D01*
X227965165Y-85332455D01*
X227965166Y-85332454D01*
X227985647Y-85190002D01*
X227985647Y-85189997D01*
X227965166Y-85047545D01*
X227959982Y-85036193D01*
X227905377Y-84916627D01*
X227897113Y-84907090D01*
X227811131Y-84807860D01*
X227811129Y-84807859D01*
X227811128Y-84807857D01*
X227803006Y-84802637D01*
X227781619Y-84771830D01*
X227780500Y-84761417D01*
X227780500Y-83949547D01*
X227794852Y-83914899D01*
X227829500Y-83900547D01*
X227864148Y-83914899D01*
G37*
%TD.AperFunction*%
%TA.AperFunction,Conductor*%
G36*
X226675959Y-85982352D02*
G01*
X228921718Y-88228111D01*
X228936070Y-88262759D01*
X228921718Y-88297407D01*
X228903081Y-88308464D01*
X228903138Y-88308589D01*
X228901982Y-88309116D01*
X228900875Y-88309774D01*
X228899949Y-88310045D01*
X228778871Y-88387857D01*
X228684625Y-88496623D01*
X228684624Y-88496625D01*
X228624833Y-88627545D01*
X228604353Y-88769997D01*
X228604353Y-88770001D01*
X228624833Y-88912454D01*
X228647572Y-88962244D01*
X228684623Y-89043373D01*
X228684624Y-89043374D01*
X228684625Y-89043376D01*
X228765785Y-89137040D01*
X228778872Y-89152143D01*
X228899947Y-89229953D01*
X228968062Y-89249953D01*
X229038034Y-89270499D01*
X229038037Y-89270499D01*
X229038039Y-89270500D01*
X229038040Y-89270500D01*
X229181960Y-89270500D01*
X229181961Y-89270500D01*
X229181963Y-89270499D01*
X229181965Y-89270499D01*
X229232321Y-89255713D01*
X229320053Y-89229953D01*
X229441128Y-89152143D01*
X229445967Y-89146559D01*
X229479502Y-89129770D01*
X229515086Y-89141612D01*
X229531875Y-89175147D01*
X229532000Y-89178645D01*
X229532000Y-89597248D01*
X229543633Y-89655731D01*
X229543634Y-89655732D01*
X229587947Y-89722052D01*
X229603382Y-89732365D01*
X229654269Y-89766367D01*
X229712752Y-89778000D01*
X229712755Y-89778000D01*
X230952245Y-89778000D01*
X230952248Y-89778000D01*
X231010731Y-89766367D01*
X231061618Y-89732364D01*
X231098399Y-89725048D01*
X231123488Y-89738459D01*
X231429540Y-90044511D01*
X231485489Y-90100460D01*
X231507452Y-90113140D01*
X231533302Y-90128065D01*
X231556132Y-90157818D01*
X231551237Y-90195000D01*
X231521484Y-90217830D01*
X231508802Y-90219500D01*
X226419767Y-90219500D01*
X226385119Y-90205148D01*
X225915489Y-89735518D01*
X225901137Y-89700870D01*
X225909396Y-89673646D01*
X225921366Y-89655732D01*
X225921365Y-89655732D01*
X225921367Y-89655731D01*
X225933000Y-89597248D01*
X225933000Y-89157752D01*
X225921367Y-89099269D01*
X225921366Y-89099267D01*
X225921366Y-89099266D01*
X225913319Y-89087225D01*
X225906000Y-89050443D01*
X225913319Y-89032775D01*
X225921366Y-89020733D01*
X225921366Y-89020732D01*
X225921365Y-89020732D01*
X225921367Y-89020731D01*
X225933000Y-88962248D01*
X225933000Y-88522752D01*
X225921367Y-88464269D01*
X225921366Y-88464267D01*
X225921366Y-88464266D01*
X225913319Y-88452225D01*
X225906000Y-88415443D01*
X225913322Y-88397770D01*
X225916330Y-88393270D01*
X225947516Y-88372440D01*
X225957067Y-88371500D01*
X226106488Y-88371500D01*
X226141136Y-88385852D01*
X226152910Y-88409374D01*
X226153849Y-88409099D01*
X226154834Y-88412455D01*
X226156199Y-88415443D01*
X226214623Y-88543373D01*
X226214624Y-88543374D01*
X226214625Y-88543376D01*
X226287556Y-88627543D01*
X226308872Y-88652143D01*
X226429947Y-88729953D01*
X226506785Y-88752514D01*
X226568034Y-88770499D01*
X226568037Y-88770499D01*
X226568039Y-88770500D01*
X226568040Y-88770500D01*
X226711960Y-88770500D01*
X226711961Y-88770500D01*
X226711963Y-88770499D01*
X226711965Y-88770499D01*
X226734795Y-88763795D01*
X226850053Y-88729953D01*
X226971128Y-88652143D01*
X227065377Y-88543373D01*
X227125165Y-88412457D01*
X227125165Y-88412455D01*
X227125166Y-88412454D01*
X227145647Y-88270002D01*
X227145647Y-88269997D01*
X227125166Y-88127545D01*
X227120751Y-88117879D01*
X227065377Y-87996627D01*
X227019233Y-87943374D01*
X226971128Y-87887857D01*
X226965243Y-87884075D01*
X226943854Y-87853270D01*
X226950512Y-87816362D01*
X226965243Y-87801631D01*
X226975908Y-87794777D01*
X227011128Y-87772143D01*
X227105377Y-87663373D01*
X227165165Y-87532457D01*
X227165165Y-87532455D01*
X227165166Y-87532454D01*
X227185647Y-87390002D01*
X227185647Y-87389997D01*
X227165166Y-87247545D01*
X227158083Y-87232035D01*
X227105377Y-87116627D01*
X227102616Y-87113441D01*
X227011128Y-87007857D01*
X226890053Y-86930047D01*
X226890050Y-86930046D01*
X226751965Y-86889500D01*
X226751961Y-86889500D01*
X226608039Y-86889500D01*
X226608034Y-86889500D01*
X226469949Y-86930046D01*
X226348871Y-87007857D01*
X226315551Y-87046311D01*
X226282015Y-87063098D01*
X226246431Y-87051255D01*
X226243871Y-87048871D01*
X226232500Y-87037500D01*
X224032012Y-87037500D01*
X223998194Y-87051507D01*
X223963548Y-87037155D01*
X223613041Y-86686648D01*
X223598689Y-86652000D01*
X223613041Y-86617352D01*
X223647689Y-86603000D01*
X223951434Y-86603000D01*
X223975931Y-86609563D01*
X223977912Y-86610707D01*
X224003200Y-86617482D01*
X224025164Y-86630164D01*
X224032500Y-86637500D01*
X224072761Y-86637500D01*
X224079153Y-86637919D01*
X224079769Y-86638000D01*
X224079773Y-86638000D01*
X224185231Y-86638000D01*
X224185847Y-86637919D01*
X224192239Y-86637500D01*
X226232500Y-86637500D01*
X226232500Y-86589665D01*
X226226098Y-86530127D01*
X226226098Y-86530126D01*
X226175851Y-86395408D01*
X226089688Y-86280311D01*
X225974590Y-86194147D01*
X225964874Y-86190523D01*
X225937427Y-86164966D01*
X225933000Y-86144613D01*
X225933000Y-86017000D01*
X225947352Y-85982352D01*
X225982000Y-85968000D01*
X226641311Y-85968000D01*
X226675959Y-85982352D01*
G37*
%TD.AperFunction*%
%TD*%
%TA.AperFunction,NonConductor*%
G36*
X233575148Y-74964852D02*
G01*
X233589500Y-74999500D01*
X233589500Y-75388858D01*
X233575148Y-75423506D01*
X233554305Y-75435873D01*
X233454949Y-75465046D01*
X233333871Y-75542857D01*
X233276532Y-75609030D01*
X233242995Y-75625817D01*
X233207412Y-75613974D01*
X233190625Y-75580437D01*
X233190500Y-75576942D01*
X233190500Y-74999500D01*
X233204852Y-74964852D01*
X233239500Y-74950500D01*
X233540500Y-74950500D01*
X233575148Y-74964852D01*
G37*
%TD.AperFunction*%
%TA.AperFunction,NonConductor*%
G36*
X230658753Y-74937618D02*
G01*
X230661765Y-74938865D01*
X230661766Y-74938865D01*
X230661769Y-74938867D01*
X230720252Y-74950500D01*
X230896233Y-74950500D01*
X230930881Y-74964852D01*
X230945233Y-74999500D01*
X230930881Y-75034148D01*
X230145684Y-75819343D01*
X230111036Y-75833695D01*
X230076388Y-75819343D01*
X230062036Y-75784695D01*
X230063352Y-75773415D01*
X230063599Y-75772368D01*
X230070000Y-75712834D01*
X230070000Y-75295931D01*
X230084352Y-75261283D01*
X230113763Y-75247212D01*
X230147371Y-75243599D01*
X230147373Y-75243598D01*
X230282091Y-75193351D01*
X230397188Y-75107188D01*
X230483352Y-74992090D01*
X230486975Y-74982377D01*
X230512530Y-74954928D01*
X230532886Y-74950500D01*
X230559745Y-74950500D01*
X230559748Y-74950500D01*
X230618231Y-74938867D01*
X230618234Y-74938865D01*
X230621247Y-74937618D01*
X230658750Y-74937616D01*
X230658753Y-74937618D01*
G37*
%TD.AperFunction*%
%TA.AperFunction,NonConductor*%
G36*
X232125148Y-75382984D02*
G01*
X232139500Y-75417632D01*
X232139500Y-76190500D01*
X232125148Y-76225148D01*
X232090500Y-76239500D01*
X231980103Y-76239500D01*
X231980098Y-76239501D01*
X231930508Y-76246028D01*
X231929088Y-76246442D01*
X231928148Y-76246338D01*
X231926795Y-76246517D01*
X231926751Y-76246185D01*
X231891808Y-76242352D01*
X231873209Y-76224340D01*
X231849722Y-76184626D01*
X231849718Y-76184621D01*
X231735378Y-76070281D01*
X231735373Y-76070277D01*
X231596199Y-75987969D01*
X231563147Y-75978366D01*
X231533879Y-75954917D01*
X231529765Y-75917640D01*
X231542168Y-75896668D01*
X232055853Y-75382983D01*
X232090500Y-75368632D01*
X232125148Y-75382984D01*
G37*
%TD.AperFunction*%
%TA.AperFunction,NonConductor*%
G36*
X229575990Y-83264852D02*
G01*
X229590342Y-83299500D01*
X229582085Y-83326722D01*
X229573065Y-83340222D01*
X229541882Y-83361058D01*
X229532322Y-83362000D01*
X228726750Y-83362000D01*
X228692102Y-83347648D01*
X228689719Y-83345088D01*
X228678021Y-83331588D01*
X228666177Y-83296005D01*
X228682964Y-83262469D01*
X228715052Y-83250500D01*
X229541342Y-83250500D01*
X229575990Y-83264852D01*
G37*
%TD.AperFunction*%
%TA.AperFunction,NonConductor*%
G36*
X231505148Y-81904852D02*
G01*
X231519500Y-81939500D01*
X231519500Y-82050500D01*
X231505148Y-82085148D01*
X231470500Y-82099500D01*
X227755436Y-82099500D01*
X227679010Y-82119979D01*
X227679008Y-82119979D01*
X227610488Y-82159540D01*
X227610488Y-82159541D01*
X226016648Y-83753381D01*
X225982000Y-83767733D01*
X225947352Y-83753381D01*
X225933000Y-83718733D01*
X225933000Y-83442755D01*
X225933000Y-83442752D01*
X225921367Y-83384269D01*
X225909394Y-83366351D01*
X225902079Y-83329569D01*
X225915489Y-83304481D01*
X227315119Y-81904852D01*
X227349767Y-81890500D01*
X231470500Y-81890500D01*
X231505148Y-81904852D01*
G37*
%TD.AperFunction*%
%TA.AperFunction,NonConductor*%
G36*
X234785566Y-83264852D02*
G01*
X235434066Y-83913352D01*
X235448418Y-83948000D01*
X235434066Y-83982648D01*
X235399418Y-83997000D01*
X231169881Y-83997000D01*
X231135233Y-83982648D01*
X231120881Y-83948000D01*
X231121823Y-83938441D01*
X231132999Y-83882253D01*
X231133000Y-83882246D01*
X231133000Y-83442755D01*
X231133000Y-83442752D01*
X231121367Y-83384269D01*
X231095187Y-83345088D01*
X231082916Y-83326723D01*
X231075600Y-83289940D01*
X231096435Y-83258758D01*
X231123658Y-83250500D01*
X234750918Y-83250500D01*
X234785566Y-83264852D01*
G37*
%TD.AperFunction*%
%TA.AperFunction,NonConductor*%
G36*
X227165148Y-83524119D02*
G01*
X227179500Y-83558767D01*
X227179500Y-84761417D01*
X227165148Y-84796065D01*
X227156994Y-84802637D01*
X227148872Y-84807857D01*
X227148868Y-84807860D01*
X227054625Y-84916623D01*
X227054624Y-84916625D01*
X226994833Y-85047545D01*
X226981902Y-85137491D01*
X226962766Y-85169744D01*
X226926428Y-85179019D01*
X226920720Y-85177849D01*
X226880228Y-85167000D01*
X226880227Y-85167000D01*
X225982000Y-85167000D01*
X225947352Y-85152648D01*
X225933000Y-85118000D01*
X225933000Y-84712753D01*
X225932999Y-84712749D01*
X225921367Y-84654269D01*
X225921366Y-84654268D01*
X225920488Y-84649852D01*
X225927804Y-84613069D01*
X225955864Y-84592962D01*
X225964204Y-84590726D01*
X226013489Y-84577521D01*
X226016590Y-84575731D01*
X226022670Y-84572220D01*
X226082011Y-84537960D01*
X226137960Y-84482011D01*
X227095852Y-83524119D01*
X227130500Y-83509767D01*
X227165148Y-83524119D01*
G37*
%TD.AperFunction*%
%TA.AperFunction,NonConductor*%
G36*
X220224148Y-84907090D02*
G01*
X220236554Y-84928067D01*
X220267967Y-85036193D01*
X220293908Y-85080057D01*
X220299191Y-85117186D01*
X220293908Y-85129943D01*
X220267967Y-85173806D01*
X220236554Y-85281932D01*
X220213106Y-85311200D01*
X220175829Y-85315315D01*
X220146561Y-85291867D01*
X220140500Y-85268261D01*
X220140500Y-84941738D01*
X220154852Y-84907090D01*
X220189500Y-84892738D01*
X220224148Y-84907090D01*
G37*
%TD.AperFunction*%
%TA.AperFunction,NonConductor*%
G36*
X229531060Y-87094852D02*
G01*
X229540186Y-87111933D01*
X229541785Y-87111271D01*
X229543632Y-87115730D01*
X229551682Y-87127778D01*
X229558998Y-87164560D01*
X229551682Y-87182222D01*
X229543633Y-87194267D01*
X229538979Y-87217662D01*
X229532000Y-87252752D01*
X229532000Y-87252755D01*
X229532000Y-87587311D01*
X229517648Y-87621959D01*
X229483000Y-87636311D01*
X229448352Y-87621959D01*
X229166440Y-87340047D01*
X229152088Y-87305399D01*
X229166440Y-87270751D01*
X229187283Y-87258384D01*
X229206463Y-87252752D01*
X229250053Y-87239953D01*
X229371128Y-87162143D01*
X229412141Y-87114811D01*
X229427218Y-87097412D01*
X229460754Y-87080625D01*
X229464250Y-87080500D01*
X229496412Y-87080500D01*
X229531060Y-87094852D01*
G37*
%TD.AperFunction*%
%TA.AperFunction,NonConductor*%
G36*
X232692381Y-87787352D02*
G01*
X234570881Y-89665852D01*
X234585233Y-89700500D01*
X234570881Y-89735148D01*
X234536233Y-89749500D01*
X234454767Y-89749500D01*
X234420119Y-89735148D01*
X234304514Y-89619542D01*
X234304511Y-89619540D01*
X234301774Y-89617960D01*
X234301774Y-89617958D01*
X234301771Y-89617958D01*
X234235991Y-89579979D01*
X234235987Y-89579978D01*
X234159564Y-89559500D01*
X234159562Y-89559500D01*
X231814767Y-89559500D01*
X231780119Y-89545148D01*
X231372013Y-89137042D01*
X231372007Y-89137037D01*
X231351605Y-89125259D01*
X231339119Y-89118050D01*
X231303491Y-89097479D01*
X231303487Y-89097478D01*
X231227064Y-89077000D01*
X231227062Y-89077000D01*
X231169881Y-89077000D01*
X231135233Y-89062648D01*
X231120881Y-89028000D01*
X231121823Y-89018441D01*
X231132999Y-88962253D01*
X231133000Y-88962246D01*
X231133000Y-88522755D01*
X231133000Y-88522752D01*
X231121367Y-88464269D01*
X231121366Y-88464267D01*
X231121366Y-88464266D01*
X231113319Y-88452225D01*
X231106000Y-88415443D01*
X231113319Y-88397775D01*
X231121366Y-88385733D01*
X231121366Y-88385732D01*
X231121365Y-88385732D01*
X231121367Y-88385731D01*
X231133000Y-88327248D01*
X231133000Y-87887752D01*
X231121823Y-87831559D01*
X231129139Y-87794777D01*
X231160322Y-87773942D01*
X231169881Y-87773000D01*
X232657733Y-87773000D01*
X232692381Y-87787352D01*
G37*
%TD.AperFunction*%
%TA.AperFunction,NonConductor*%
G36*
X233995320Y-90174852D02*
G01*
X234009672Y-90209500D01*
X234009173Y-90216473D01*
X234004353Y-90249998D01*
X234004353Y-90250002D01*
X234024833Y-90392454D01*
X234040858Y-90427543D01*
X234084623Y-90523373D01*
X234084624Y-90523374D01*
X234084625Y-90523376D01*
X234125023Y-90569998D01*
X234178872Y-90632143D01*
X234299947Y-90709953D01*
X234376785Y-90732514D01*
X234438034Y-90750499D01*
X234438037Y-90750499D01*
X234438039Y-90750500D01*
X234438040Y-90750500D01*
X234581960Y-90750500D01*
X234581961Y-90750500D01*
X234581963Y-90750499D01*
X234581965Y-90750499D01*
X234602480Y-90744475D01*
X234720053Y-90709953D01*
X234806088Y-90654662D01*
X234829009Y-90639932D01*
X234865916Y-90633273D01*
X234896721Y-90654662D01*
X234904500Y-90681153D01*
X234904500Y-91267639D01*
X234890148Y-91302287D01*
X234855500Y-91316639D01*
X234829009Y-91308861D01*
X234800085Y-91290273D01*
X234720788Y-91239312D01*
X234720785Y-91239311D01*
X234582700Y-91198765D01*
X234582696Y-91198765D01*
X234455502Y-91198765D01*
X234420854Y-91184413D01*
X233515983Y-90279542D01*
X233515977Y-90279537D01*
X233505192Y-90273311D01*
X233498591Y-90269500D01*
X233468168Y-90251935D01*
X233445338Y-90222182D01*
X233450233Y-90185000D01*
X233479986Y-90162170D01*
X233492668Y-90160500D01*
X233960672Y-90160500D01*
X233995320Y-90174852D01*
G37*
%TD.AperFunction*%
%TA.AperFunction,NonConductor*%
G36*
X235580991Y-90985638D02*
G01*
X235649947Y-91029953D01*
X235732996Y-91054338D01*
X235788034Y-91070499D01*
X235788037Y-91070499D01*
X235788039Y-91070500D01*
X235788040Y-91070500D01*
X235915233Y-91070500D01*
X235949881Y-91084852D01*
X236162612Y-91297583D01*
X236176964Y-91332231D01*
X236162612Y-91366879D01*
X236127964Y-91381231D01*
X236101473Y-91373453D01*
X236065053Y-91350047D01*
X236065050Y-91350046D01*
X235926965Y-91309500D01*
X235926961Y-91309500D01*
X235783039Y-91309500D01*
X235783034Y-91309500D01*
X235644949Y-91350046D01*
X235644947Y-91350046D01*
X235644947Y-91350047D01*
X235580991Y-91391149D01*
X235544084Y-91397807D01*
X235513278Y-91376418D01*
X235505500Y-91349927D01*
X235505500Y-91026859D01*
X235519852Y-90992211D01*
X235554500Y-90977859D01*
X235580991Y-90985638D01*
G37*
%TD.AperFunction*%
%TA.AperFunction,NonConductor*%
G36*
X234896721Y-92104399D02*
G01*
X234904500Y-92130890D01*
X234904500Y-92310629D01*
X234890148Y-92345277D01*
X234855500Y-92359629D01*
X234845942Y-92358688D01*
X234818848Y-92353299D01*
X234799748Y-92349500D01*
X234622886Y-92349500D01*
X234588238Y-92335148D01*
X234576975Y-92317623D01*
X234573352Y-92307909D01*
X234550662Y-92277600D01*
X234541387Y-92241262D01*
X234560523Y-92209009D01*
X234579454Y-92201167D01*
X234579333Y-92200753D01*
X234629263Y-92186091D01*
X234720788Y-92159218D01*
X234829009Y-92089669D01*
X234865916Y-92083010D01*
X234896721Y-92104399D01*
G37*
%TD.AperFunction*%
%TA.AperFunction,NonConductor*%
G36*
X237539148Y-86018434D02*
G01*
X240085148Y-88564434D01*
X240099500Y-88599082D01*
X240099500Y-91290273D01*
X240085148Y-91324921D01*
X240050500Y-91339273D01*
X240024009Y-91331495D01*
X239999943Y-91316029D01*
X239905053Y-91255047D01*
X239905050Y-91255046D01*
X239766965Y-91214500D01*
X239766961Y-91214500D01*
X239623039Y-91214500D01*
X239623034Y-91214500D01*
X239484949Y-91255046D01*
X239484947Y-91255046D01*
X239484947Y-91255047D01*
X239447722Y-91278969D01*
X239363871Y-91332857D01*
X239269625Y-91441623D01*
X239269624Y-91441625D01*
X239209833Y-91572545D01*
X239189353Y-91714997D01*
X239189353Y-91715002D01*
X239209833Y-91857454D01*
X239239434Y-91922270D01*
X239269623Y-91988373D01*
X239269624Y-91988374D01*
X239269625Y-91988376D01*
X239357396Y-92089669D01*
X239363872Y-92097143D01*
X239431991Y-92140920D01*
X239453380Y-92171725D01*
X239454500Y-92182141D01*
X239454500Y-92310629D01*
X239440148Y-92345277D01*
X239405500Y-92359629D01*
X239395942Y-92358688D01*
X239368848Y-92353299D01*
X239349748Y-92349500D01*
X238860252Y-92349500D01*
X238831010Y-92355316D01*
X238801766Y-92361133D01*
X238798748Y-92362384D01*
X238761252Y-92362384D01*
X238758233Y-92361133D01*
X238734837Y-92356479D01*
X238699748Y-92349500D01*
X238210252Y-92349500D01*
X238181010Y-92355316D01*
X238151766Y-92361133D01*
X238148748Y-92362384D01*
X238111252Y-92362384D01*
X238108233Y-92361133D01*
X238084837Y-92356479D01*
X238049748Y-92349500D01*
X237560252Y-92349500D01*
X237541151Y-92353299D01*
X237514058Y-92358688D01*
X237477276Y-92351370D01*
X237456441Y-92320187D01*
X237455500Y-92310629D01*
X237455500Y-86053082D01*
X237469852Y-86018434D01*
X237504500Y-86004082D01*
X237539148Y-86018434D01*
G37*
%TD.AperFunction*%
%TA.AperFunction,NonConductor*%
G36*
X238787723Y-94547633D02*
G01*
X238808559Y-94578816D01*
X238809500Y-94588375D01*
X238809500Y-94706754D01*
X238795148Y-94741402D01*
X238760500Y-94755754D01*
X238734008Y-94747975D01*
X238703008Y-94728052D01*
X238681620Y-94697246D01*
X238680500Y-94686831D01*
X238680500Y-94594541D01*
X238694852Y-94559893D01*
X238719936Y-94546484D01*
X238750943Y-94540316D01*
X238787723Y-94547633D01*
G37*
%TD.AperFunction*%
%TA.AperFunction,NonConductor*%
G36*
X236848753Y-94537618D02*
G01*
X236851765Y-94538865D01*
X236851766Y-94538865D01*
X236851769Y-94538867D01*
X236910252Y-94550500D01*
X237172991Y-94550500D01*
X237207639Y-94564852D01*
X237221991Y-94599500D01*
X237217563Y-94619856D01*
X237209512Y-94637482D01*
X237189032Y-94779934D01*
X237189032Y-94779939D01*
X237209512Y-94922391D01*
X237241614Y-94992683D01*
X237269302Y-95053310D01*
X237269303Y-95053311D01*
X237269304Y-95053313D01*
X237340549Y-95135534D01*
X237363551Y-95162080D01*
X237484626Y-95239890D01*
X237535484Y-95254823D01*
X237622713Y-95280436D01*
X237622716Y-95280436D01*
X237622718Y-95280437D01*
X237622719Y-95280437D01*
X237766639Y-95280437D01*
X237766640Y-95280437D01*
X237766642Y-95280436D01*
X237766644Y-95280436D01*
X237853874Y-95254823D01*
X237867527Y-95250814D01*
X237904815Y-95254823D01*
X237925904Y-95277473D01*
X237952583Y-95335891D01*
X237985929Y-95408907D01*
X237985930Y-95408908D01*
X237985931Y-95408910D01*
X238079100Y-95516433D01*
X238080178Y-95517677D01*
X238201253Y-95595487D01*
X238278091Y-95618048D01*
X238339340Y-95636033D01*
X238339343Y-95636033D01*
X238339345Y-95636034D01*
X238339346Y-95636034D01*
X238483266Y-95636034D01*
X238483267Y-95636034D01*
X238483269Y-95636033D01*
X238483271Y-95636033D01*
X238503786Y-95630009D01*
X238621359Y-95595487D01*
X238711088Y-95537822D01*
X238734009Y-95523092D01*
X238770916Y-95516433D01*
X238801721Y-95537822D01*
X238809500Y-95564313D01*
X238809500Y-96115232D01*
X238795148Y-96149880D01*
X237413304Y-97531724D01*
X237378656Y-97546076D01*
X237344008Y-97531724D01*
X237329656Y-97497076D01*
X237334084Y-97476720D01*
X237345166Y-97452454D01*
X237365647Y-97310002D01*
X237365647Y-97309997D01*
X237345166Y-97167545D01*
X237336202Y-97147917D01*
X237285377Y-97036627D01*
X237280014Y-97030438D01*
X237191128Y-96927857D01*
X237070053Y-96850047D01*
X237070050Y-96850046D01*
X236931965Y-96809500D01*
X236931961Y-96809500D01*
X236804767Y-96809500D01*
X236770119Y-96795148D01*
X234869852Y-94894881D01*
X234855500Y-94860233D01*
X234855500Y-94589370D01*
X234869852Y-94554722D01*
X234904500Y-94540370D01*
X234914059Y-94541312D01*
X234960246Y-94550499D01*
X234960249Y-94550499D01*
X234960252Y-94550500D01*
X234960253Y-94550500D01*
X235449745Y-94550500D01*
X235449748Y-94550500D01*
X235508231Y-94538867D01*
X235508234Y-94538865D01*
X235511247Y-94537618D01*
X235548750Y-94537616D01*
X235548753Y-94537618D01*
X235551765Y-94538865D01*
X235551766Y-94538865D01*
X235551769Y-94538867D01*
X235610252Y-94550500D01*
X235610255Y-94550500D01*
X236099745Y-94550500D01*
X236099748Y-94550500D01*
X236158231Y-94538867D01*
X236158234Y-94538865D01*
X236161247Y-94537618D01*
X236198750Y-94537616D01*
X236198753Y-94537618D01*
X236201765Y-94538865D01*
X236201766Y-94538865D01*
X236201769Y-94538867D01*
X236260252Y-94550500D01*
X236260255Y-94550500D01*
X236749745Y-94550500D01*
X236749748Y-94550500D01*
X236808231Y-94538867D01*
X236808234Y-94538865D01*
X236811247Y-94537618D01*
X236848750Y-94537616D01*
X236848753Y-94537618D01*
G37*
%TD.AperFunction*%
%TA.AperFunction,NonConductor*%
G36*
X233066487Y-97070044D02*
G01*
X233068039Y-97070500D01*
X233068044Y-97070500D01*
X233195233Y-97070500D01*
X233229881Y-97084852D01*
X234240148Y-98095119D01*
X234254500Y-98129767D01*
X234254500Y-98326481D01*
X234240148Y-98361129D01*
X234205500Y-98375481D01*
X234170852Y-98361129D01*
X234163065Y-98350982D01*
X234145460Y-98320489D01*
X234089511Y-98264540D01*
X233012848Y-97187877D01*
X232998496Y-97153229D01*
X232998993Y-97146270D01*
X233004196Y-97110086D01*
X233023334Y-97077836D01*
X233059672Y-97068562D01*
X233066487Y-97070044D01*
G37*
%TD.AperFunction*%
%TA.AperFunction,NonConductor*%
G36*
X239469056Y-94542305D02*
G01*
X239510252Y-94550500D01*
X239510253Y-94550500D01*
X239999747Y-94550500D01*
X239999748Y-94550500D01*
X240040940Y-94542306D01*
X240077722Y-94549622D01*
X240098558Y-94580804D01*
X240099500Y-94590364D01*
X240099500Y-99409635D01*
X240085148Y-99444283D01*
X240050500Y-99458635D01*
X240040942Y-99457694D01*
X239999748Y-99449500D01*
X239510252Y-99449500D01*
X239486146Y-99454295D01*
X239451766Y-99461133D01*
X239448748Y-99462384D01*
X239411252Y-99462384D01*
X239408233Y-99461133D01*
X239384837Y-99456479D01*
X239349748Y-99449500D01*
X238860252Y-99449500D01*
X238841151Y-99453299D01*
X238814058Y-99458688D01*
X238777276Y-99451370D01*
X238756441Y-99420187D01*
X238755500Y-99410629D01*
X238755500Y-98339766D01*
X238769851Y-98305119D01*
X239040118Y-98034851D01*
X239074766Y-98020500D01*
X239201960Y-98020500D01*
X239201961Y-98020500D01*
X239201963Y-98020499D01*
X239201965Y-98020499D01*
X239224795Y-98013795D01*
X239340053Y-97979953D01*
X239461128Y-97902143D01*
X239555377Y-97793373D01*
X239615165Y-97662457D01*
X239615165Y-97662455D01*
X239615166Y-97662454D01*
X239635647Y-97520002D01*
X239635647Y-97519997D01*
X239615166Y-97377545D01*
X239610751Y-97367879D01*
X239555377Y-97246627D01*
X239551761Y-97242454D01*
X239461128Y-97137857D01*
X239340053Y-97060047D01*
X239340050Y-97060046D01*
X239201965Y-97019500D01*
X239201961Y-97019500D01*
X239058039Y-97019500D01*
X239058034Y-97019500D01*
X238919949Y-97060046D01*
X238919947Y-97060046D01*
X238919947Y-97060047D01*
X238903682Y-97070500D01*
X238798871Y-97137857D01*
X238704625Y-97246623D01*
X238704624Y-97246625D01*
X238644833Y-97377545D01*
X238624353Y-97519997D01*
X238624353Y-97520001D01*
X238631003Y-97566256D01*
X238621728Y-97602594D01*
X238617150Y-97607877D01*
X238270489Y-97954540D01*
X238214541Y-98010488D01*
X238214540Y-98010488D01*
X238174979Y-98079008D01*
X238174979Y-98079010D01*
X238154500Y-98155436D01*
X238154500Y-98507794D01*
X238140148Y-98542442D01*
X238105500Y-98556794D01*
X238079010Y-98549016D01*
X238065053Y-98540046D01*
X237926965Y-98499500D01*
X237926961Y-98499500D01*
X237783039Y-98499500D01*
X237783034Y-98499500D01*
X237644949Y-98540046D01*
X237644947Y-98540046D01*
X237644947Y-98540047D01*
X237630991Y-98549016D01*
X237523871Y-98617857D01*
X237429625Y-98726623D01*
X237429624Y-98726625D01*
X237369833Y-98857545D01*
X237349353Y-98999997D01*
X237349353Y-99000002D01*
X237369833Y-99142454D01*
X237387784Y-99181759D01*
X237429623Y-99273373D01*
X237429624Y-99273374D01*
X237429625Y-99273376D01*
X237523902Y-99382178D01*
X237535745Y-99417762D01*
X237518958Y-99451298D01*
X237505626Y-99459534D01*
X237498757Y-99462380D01*
X237461255Y-99462384D01*
X237458238Y-99461134D01*
X237435033Y-99456518D01*
X237399748Y-99449500D01*
X236910252Y-99449500D01*
X236886146Y-99454295D01*
X236851766Y-99461133D01*
X236848748Y-99462384D01*
X236811252Y-99462384D01*
X236808233Y-99461133D01*
X236749743Y-99449499D01*
X236747351Y-99449264D01*
X236747487Y-99447882D01*
X236716745Y-99435148D01*
X236702393Y-99400500D01*
X236714361Y-99368412D01*
X236805374Y-99263376D01*
X236805377Y-99263373D01*
X236865165Y-99132457D01*
X236865165Y-99132455D01*
X236865166Y-99132454D01*
X236885647Y-98990001D01*
X236885647Y-98990000D01*
X236884929Y-98985004D01*
X236878995Y-98943741D01*
X236888269Y-98907406D01*
X236892841Y-98902128D01*
X239350460Y-96444511D01*
X239360256Y-96427543D01*
X239390021Y-96375989D01*
X239410500Y-96299562D01*
X239410500Y-94590364D01*
X239424852Y-94555716D01*
X239459500Y-94541364D01*
X239469056Y-94542305D01*
G37*
%TD.AperFunction*%
%TA.AperFunction,NonConductor*%
G36*
X245112745Y-101305985D02*
G01*
X245137102Y-101334502D01*
X245139500Y-101349644D01*
X245139500Y-101984229D01*
X245125148Y-102018877D01*
X245090500Y-102033229D01*
X245055852Y-102018877D01*
X245046841Y-102006475D01*
X244989661Y-101894253D01*
X244989657Y-101894248D01*
X244895754Y-101800345D01*
X244895751Y-101800342D01*
X244895749Y-101800341D01*
X244895748Y-101800340D01*
X244817254Y-101760345D01*
X244792898Y-101731827D01*
X244790500Y-101716686D01*
X244790500Y-101595669D01*
X244804852Y-101561021D01*
X244817254Y-101552010D01*
X244913337Y-101503053D01*
X244913338Y-101503051D01*
X244913342Y-101503050D01*
X245003050Y-101413342D01*
X245003054Y-101413335D01*
X245046841Y-101327399D01*
X245075358Y-101303042D01*
X245112745Y-101305985D01*
G37*
%TD.AperFunction*%
%TA.AperFunction,NonConductor*%
G36*
X220224148Y-101264122D02*
G01*
X220237897Y-101291106D01*
X220239353Y-101300303D01*
X220296945Y-101413335D01*
X220296950Y-101413342D01*
X220386657Y-101503049D01*
X220386664Y-101503054D01*
X220480245Y-101550736D01*
X220504602Y-101579253D01*
X220507000Y-101594395D01*
X220507000Y-101716686D01*
X220492648Y-101751334D01*
X220480246Y-101760345D01*
X220401751Y-101800340D01*
X220401745Y-101800345D01*
X220307842Y-101894248D01*
X220307838Y-101894253D01*
X220247550Y-102012576D01*
X220247549Y-102012578D01*
X220247549Y-102012580D01*
X220239224Y-102065148D01*
X220237897Y-102073524D01*
X220218301Y-102105500D01*
X220181834Y-102114255D01*
X220149858Y-102094659D01*
X220140500Y-102065858D01*
X220140500Y-101298770D01*
X220154852Y-101264122D01*
X220189500Y-101249770D01*
X220224148Y-101264122D01*
G37*
%TD.AperFunction*%
%TA.AperFunction,NonConductor*%
G36*
X230872480Y-101476786D02*
G01*
X230885890Y-101501873D01*
X230891133Y-101528231D01*
X230901062Y-101543090D01*
X230935447Y-101594552D01*
X230962012Y-101612301D01*
X231001769Y-101638867D01*
X231060252Y-101650500D01*
X231246233Y-101650500D01*
X231280881Y-101664852D01*
X231295233Y-101699500D01*
X231280881Y-101734148D01*
X230949879Y-102065148D01*
X230915231Y-102079500D01*
X230670103Y-102079500D01*
X230670098Y-102079501D01*
X230620512Y-102086027D01*
X230511683Y-102136776D01*
X230511681Y-102136777D01*
X230426777Y-102221681D01*
X230414409Y-102248205D01*
X230386758Y-102273541D01*
X230349291Y-102271905D01*
X230325591Y-102248205D01*
X230325490Y-102247989D01*
X230313224Y-102221684D01*
X230313222Y-102221682D01*
X230313222Y-102221681D01*
X230228316Y-102136775D01*
X230226084Y-102135212D01*
X230205935Y-102103581D01*
X230214054Y-102066968D01*
X230219537Y-102060433D01*
X230803185Y-101476785D01*
X230837832Y-101462434D01*
X230872480Y-101476786D01*
G37*
%TD.AperFunction*%
%TA.AperFunction,NonConductor*%
G36*
X238148753Y-101637618D02*
G01*
X238151765Y-101638865D01*
X238151766Y-101638865D01*
X238151769Y-101638867D01*
X238210252Y-101650500D01*
X238210255Y-101650500D01*
X238699747Y-101650500D01*
X238699748Y-101650500D01*
X238707304Y-101648997D01*
X238745941Y-101641312D01*
X238782723Y-101648628D01*
X238803558Y-101679811D01*
X238804500Y-101689370D01*
X238804500Y-102887794D01*
X238790148Y-102922442D01*
X238755500Y-102936794D01*
X238729010Y-102929016D01*
X238715052Y-102920046D01*
X238580369Y-102880500D01*
X238559526Y-102868133D01*
X237569852Y-101878459D01*
X237555500Y-101843811D01*
X237555500Y-101699500D01*
X237569852Y-101664852D01*
X237604500Y-101650500D01*
X238049745Y-101650500D01*
X238049748Y-101650500D01*
X238108231Y-101638867D01*
X238108234Y-101638865D01*
X238111247Y-101637618D01*
X238148750Y-101637616D01*
X238148753Y-101637618D01*
G37*
%TD.AperFunction*%
%TA.AperFunction,NonConductor*%
G36*
X245112745Y-102697111D02*
G01*
X245137102Y-102725628D01*
X245139500Y-102740770D01*
X245139500Y-103559229D01*
X245125148Y-103593877D01*
X245090500Y-103608229D01*
X245055852Y-103593877D01*
X245046841Y-103581475D01*
X244989661Y-103469253D01*
X244989657Y-103469248D01*
X244895751Y-103375342D01*
X244895746Y-103375338D01*
X244777422Y-103315050D01*
X244777421Y-103315049D01*
X244777420Y-103315049D01*
X244679246Y-103299500D01*
X244679245Y-103299500D01*
X244197267Y-103299500D01*
X244162619Y-103285148D01*
X243935580Y-103058109D01*
X243921228Y-103023461D01*
X243935580Y-102988813D01*
X243970228Y-102974461D01*
X243992474Y-102979802D01*
X243996351Y-102981777D01*
X244002580Y-102984951D01*
X244100754Y-103000500D01*
X244100755Y-103000500D01*
X244679245Y-103000500D01*
X244679246Y-103000500D01*
X244777420Y-102984951D01*
X244886274Y-102929487D01*
X244895746Y-102924661D01*
X244895747Y-102924659D01*
X244895751Y-102924658D01*
X244989658Y-102830751D01*
X244989662Y-102830744D01*
X245046841Y-102718525D01*
X245075358Y-102694168D01*
X245112745Y-102697111D01*
G37*
%TD.AperFunction*%
%TA.AperFunction,NonConductor*%
G36*
X236889148Y-102330541D02*
G01*
X237998021Y-103439414D01*
X238011873Y-103467087D01*
X238012185Y-103469249D01*
X238019835Y-103522457D01*
X238019835Y-103522458D01*
X238046788Y-103581475D01*
X238079623Y-103653373D01*
X238079624Y-103653374D01*
X238079625Y-103653376D01*
X238126322Y-103707267D01*
X238173872Y-103762143D01*
X238294947Y-103839953D01*
X238371785Y-103862514D01*
X238433034Y-103880499D01*
X238433037Y-103880499D01*
X238433039Y-103880500D01*
X238433040Y-103880500D01*
X238576960Y-103880500D01*
X238576961Y-103880500D01*
X238576963Y-103880499D01*
X238576965Y-103880499D01*
X238608596Y-103871211D01*
X238715053Y-103839953D01*
X238729009Y-103830983D01*
X238765915Y-103824325D01*
X238796721Y-103845713D01*
X238804500Y-103872205D01*
X238804500Y-105270232D01*
X238790148Y-105304880D01*
X238519289Y-105575739D01*
X238484641Y-105590091D01*
X238449993Y-105575739D01*
X238437423Y-105545393D01*
X238435909Y-105545553D01*
X238435338Y-105540118D01*
X238416725Y-105363022D01*
X238360802Y-105190911D01*
X238270318Y-105034187D01*
X238221872Y-104980382D01*
X238149232Y-104899706D01*
X238149227Y-104899703D01*
X238149227Y-104899702D01*
X238002820Y-104793331D01*
X237837497Y-104719725D01*
X237837494Y-104719724D01*
X237837490Y-104719723D01*
X237660483Y-104682099D01*
X237479515Y-104682099D01*
X237302507Y-104719723D01*
X237302498Y-104719726D01*
X237137178Y-104793331D01*
X236990765Y-104899706D01*
X236890914Y-105010604D01*
X236857065Y-105026750D01*
X236821713Y-105014231D01*
X236805567Y-104980382D01*
X236805500Y-104977817D01*
X236805500Y-102365189D01*
X236819852Y-102330541D01*
X236854500Y-102316189D01*
X236889148Y-102330541D01*
G37*
%TD.AperFunction*%
%TA.AperFunction,NonConductor*%
G36*
X228384583Y-105554470D02*
G01*
X228398666Y-105583995D01*
X228413274Y-105722976D01*
X228428723Y-105770524D01*
X228429183Y-105771938D01*
X228426240Y-105809326D01*
X228397723Y-105833682D01*
X228360335Y-105830739D01*
X228353784Y-105826725D01*
X228307823Y-105793332D01*
X228232126Y-105759629D01*
X228212843Y-105751044D01*
X228187028Y-105723840D01*
X228188010Y-105686349D01*
X228198124Y-105671634D01*
X228315289Y-105554469D01*
X228349935Y-105540118D01*
X228384583Y-105554470D01*
G37*
%TD.AperFunction*%
%TA.AperFunction,NonConductor*%
G36*
X235548753Y-101637618D02*
G01*
X235551765Y-101638865D01*
X235551766Y-101638865D01*
X235551769Y-101638867D01*
X235610252Y-101650500D01*
X235610255Y-101650500D01*
X236099747Y-101650500D01*
X236099748Y-101650500D01*
X236107304Y-101648997D01*
X236145941Y-101641312D01*
X236182723Y-101648628D01*
X236203558Y-101679811D01*
X236204500Y-101689370D01*
X236204500Y-105633100D01*
X236190148Y-105667748D01*
X236155500Y-105682100D01*
X236094517Y-105682100D01*
X235917509Y-105719724D01*
X235917500Y-105719727D01*
X235752178Y-105793333D01*
X235706218Y-105826725D01*
X235669751Y-105835480D01*
X235637775Y-105815884D01*
X235629020Y-105779417D01*
X235630810Y-105771956D01*
X235646726Y-105722976D01*
X235665642Y-105542999D01*
X235646726Y-105363022D01*
X235590803Y-105190911D01*
X235500319Y-105034187D01*
X235451873Y-104980382D01*
X235379233Y-104899706D01*
X235379228Y-104899703D01*
X235379228Y-104899702D01*
X235232821Y-104793331D01*
X235067498Y-104719725D01*
X235067495Y-104719724D01*
X235067491Y-104719723D01*
X234890484Y-104682099D01*
X234709516Y-104682099D01*
X234532508Y-104719723D01*
X234532499Y-104719726D01*
X234367179Y-104793331D01*
X234220766Y-104899706D01*
X234099684Y-105034183D01*
X234099678Y-105034191D01*
X234009199Y-105190907D01*
X234009197Y-105190910D01*
X233953274Y-105363021D01*
X233934358Y-105542999D01*
X233953274Y-105722978D01*
X233969183Y-105771940D01*
X233966240Y-105809327D01*
X233937722Y-105833683D01*
X233900335Y-105830740D01*
X233893790Y-105826729D01*
X233847822Y-105793332D01*
X233682499Y-105719726D01*
X233682496Y-105719725D01*
X233682492Y-105719724D01*
X233505485Y-105682100D01*
X233324517Y-105682100D01*
X233147509Y-105719724D01*
X233147500Y-105719727D01*
X232982178Y-105793333D01*
X232936218Y-105826725D01*
X232899751Y-105835480D01*
X232867775Y-105815884D01*
X232859020Y-105779417D01*
X232860810Y-105771956D01*
X232876726Y-105722976D01*
X232895642Y-105542999D01*
X232876726Y-105363022D01*
X232820803Y-105190911D01*
X232730319Y-105034187D01*
X232681873Y-104980382D01*
X232609233Y-104899706D01*
X232609228Y-104899703D01*
X232609228Y-104899702D01*
X232462821Y-104793331D01*
X232462817Y-104793329D01*
X232430263Y-104778834D01*
X232404448Y-104751630D01*
X232405431Y-104714140D01*
X232415543Y-104699426D01*
X233495460Y-103619511D01*
X233527214Y-103564511D01*
X233535021Y-103550989D01*
X233555500Y-103474562D01*
X233555500Y-101689370D01*
X233569852Y-101654722D01*
X233604500Y-101640370D01*
X233614059Y-101641312D01*
X233660246Y-101650499D01*
X233660249Y-101650499D01*
X233660252Y-101650500D01*
X233660253Y-101650500D01*
X234149745Y-101650500D01*
X234149748Y-101650500D01*
X234208231Y-101638867D01*
X234208234Y-101638865D01*
X234211247Y-101637618D01*
X234248750Y-101637616D01*
X234248753Y-101637618D01*
X234251765Y-101638865D01*
X234251766Y-101638865D01*
X234251769Y-101638867D01*
X234310252Y-101650500D01*
X234310255Y-101650500D01*
X234799745Y-101650500D01*
X234799748Y-101650500D01*
X234858231Y-101638867D01*
X234858234Y-101638865D01*
X234861247Y-101637618D01*
X234898750Y-101637616D01*
X234898753Y-101637618D01*
X234901765Y-101638865D01*
X234901766Y-101638865D01*
X234901769Y-101638867D01*
X234960252Y-101650500D01*
X234960255Y-101650500D01*
X235449745Y-101650500D01*
X235449748Y-101650500D01*
X235508231Y-101638867D01*
X235508234Y-101638865D01*
X235511247Y-101637618D01*
X235548750Y-101637616D01*
X235548753Y-101637618D01*
G37*
%TD.AperFunction*%
%TA.AperFunction,NonConductor*%
G36*
X231390314Y-104897451D02*
G01*
X231404666Y-104932099D01*
X231392080Y-104964886D01*
X231329684Y-105034183D01*
X231329678Y-105034191D01*
X231239199Y-105190907D01*
X231239197Y-105190910D01*
X231183274Y-105363021D01*
X231164358Y-105542999D01*
X231183274Y-105722978D01*
X231199183Y-105771940D01*
X231196240Y-105809327D01*
X231167722Y-105833683D01*
X231130335Y-105830740D01*
X231123790Y-105826729D01*
X231077822Y-105793332D01*
X230912499Y-105719726D01*
X230912496Y-105719725D01*
X230912492Y-105719724D01*
X230735485Y-105682100D01*
X230554517Y-105682100D01*
X230377509Y-105719724D01*
X230377500Y-105719727D01*
X230212178Y-105793333D01*
X230166218Y-105826725D01*
X230129751Y-105835480D01*
X230097775Y-105815884D01*
X230089020Y-105779417D01*
X230090810Y-105771956D01*
X230106726Y-105722976D01*
X230125642Y-105542999D01*
X230106726Y-105363022D01*
X230050803Y-105190911D01*
X229960319Y-105034187D01*
X229897919Y-104964885D01*
X229885401Y-104929535D01*
X229901547Y-104895685D01*
X229934334Y-104883099D01*
X231355666Y-104883099D01*
X231390314Y-104897451D01*
G37*
%TD.AperFunction*%
%TA.AperFunction,NonConductor*%
G36*
X235347224Y-106270113D02*
G01*
X235355980Y-106306579D01*
X235354185Y-106314056D01*
X235338275Y-106363020D01*
X235323668Y-106502001D01*
X235305773Y-106534959D01*
X235269814Y-106545611D01*
X235240288Y-106531527D01*
X235123125Y-106414364D01*
X235108773Y-106379716D01*
X235123125Y-106345068D01*
X235137838Y-106334955D01*
X235232821Y-106292667D01*
X235278783Y-106259273D01*
X235315247Y-106250518D01*
X235347224Y-106270113D01*
G37*
%TD.AperFunction*%
%TA.AperFunction,NonConductor*%
G36*
X237084664Y-106255258D02*
G01*
X237091209Y-106259269D01*
X237137178Y-106292667D01*
X237302501Y-106366273D01*
X237479515Y-106403899D01*
X237572833Y-106403899D01*
X237607481Y-106418251D01*
X237621833Y-106452899D01*
X237607481Y-106487547D01*
X236906481Y-107188548D01*
X236871833Y-107202900D01*
X236859335Y-107202900D01*
X236824687Y-107188548D01*
X236810335Y-107153900D01*
X236822921Y-107121113D01*
X236885320Y-107051812D01*
X236975804Y-106895088D01*
X237031727Y-106722977D01*
X237050643Y-106543000D01*
X237031727Y-106363023D01*
X237015817Y-106314058D01*
X237018759Y-106276673D01*
X237047277Y-106252316D01*
X237084664Y-106255258D01*
G37*
%TD.AperFunction*%
%TA.AperFunction,NonConductor*%
G36*
X231960708Y-92138094D02*
G01*
X231984409Y-92161795D01*
X231996776Y-92188316D01*
X231996777Y-92188318D01*
X232074311Y-92265852D01*
X232088663Y-92300500D01*
X232074311Y-92335148D01*
X232039663Y-92349500D01*
X231840337Y-92349500D01*
X231805689Y-92335148D01*
X231791337Y-92300500D01*
X231805689Y-92265852D01*
X231883222Y-92188318D01*
X231883224Y-92188316D01*
X231895591Y-92161795D01*
X231923241Y-92136458D01*
X231960708Y-92138094D01*
G37*
%TD.AperFunction*%
M02*
